G75*
G70*
%OFA0B0*%
%FSLAX24Y24*%
%IPPOS*%
%LPD*%
%AMOC8*
5,1,8,0,0,1.08239X$1,22.5*
%
%ADD10C,0.0030*%
%ADD11C,0.0010*%
%ADD12C,0.0040*%
%ADD13C,0.0160*%
%ADD14C,0.0100*%
%ADD15C,0.0080*%
%ADD16C,0.0157*%
%ADD17C,0.0020*%
%ADD18C,0.0060*%
%ADD19R,0.0118X0.0059*%
%ADD20R,0.0118X0.0118*%
%ADD21R,0.0059X0.0118*%
%ADD22R,0.0270X0.0210*%
%ADD23C,0.0050*%
%ADD24R,0.0079X0.0157*%
%ADD25C,0.0028*%
D10*
X007996Y008686D02*
X008189Y008686D01*
X008093Y008686D02*
X008093Y008976D01*
X007996Y008879D01*
X008290Y008928D02*
X008290Y008734D01*
X008484Y008928D01*
X008484Y008734D01*
X008436Y008686D01*
X008339Y008686D01*
X008290Y008734D01*
X008290Y008928D02*
X008339Y008976D01*
X008436Y008976D01*
X008484Y008928D01*
X008585Y008976D02*
X008585Y008686D01*
X008585Y008783D02*
X008779Y008976D01*
X008633Y008831D02*
X008779Y008686D01*
X008709Y011676D02*
X008563Y011821D01*
X008515Y011773D02*
X008709Y011966D01*
X008515Y011966D02*
X008515Y011676D01*
X008414Y011724D02*
X008366Y011676D01*
X008269Y011676D01*
X008220Y011724D01*
X008414Y011918D01*
X008414Y011724D01*
X008220Y011724D02*
X008220Y011918D01*
X008269Y011966D01*
X008366Y011966D01*
X008414Y011918D01*
X008119Y011676D02*
X007926Y011676D01*
X008023Y011676D02*
X008023Y011966D01*
X007926Y011869D01*
X011006Y014226D02*
X011199Y014226D01*
X011103Y014226D02*
X011103Y014516D01*
X011006Y014419D01*
X011300Y014468D02*
X011300Y014274D01*
X011494Y014468D01*
X011494Y014274D01*
X011446Y014226D01*
X011349Y014226D01*
X011300Y014274D01*
X011300Y014468D02*
X011349Y014516D01*
X011446Y014516D01*
X011494Y014468D01*
X011595Y014516D02*
X011595Y014226D01*
X011595Y014323D02*
X011789Y014516D01*
X011643Y014371D02*
X011789Y014226D01*
X013356Y015633D02*
X013646Y015633D01*
X013646Y015729D02*
X013646Y015536D01*
X013452Y015536D02*
X013356Y015633D01*
X013404Y015830D02*
X013356Y015879D01*
X013356Y015976D01*
X013404Y016024D01*
X013597Y015830D01*
X013646Y015879D01*
X013646Y015976D01*
X013597Y016024D01*
X013404Y016024D01*
X013356Y016125D02*
X013646Y016125D01*
X013549Y016125D02*
X013356Y016319D01*
X013501Y016173D02*
X013646Y016319D01*
X013597Y015830D02*
X013404Y015830D01*
X012079Y017059D02*
X011886Y017059D01*
X011789Y017156D01*
X011886Y017252D01*
X012079Y017252D01*
X011934Y017252D02*
X011934Y017059D01*
X011789Y017354D02*
X011789Y017547D01*
X011789Y017450D02*
X012079Y017450D01*
X012031Y017648D02*
X012079Y017697D01*
X012079Y017793D01*
X012031Y017842D01*
X011789Y017842D01*
X011837Y017943D02*
X011886Y017943D01*
X011934Y017991D01*
X011934Y018088D01*
X011983Y018136D01*
X012031Y018136D01*
X012079Y018088D01*
X012079Y017991D01*
X012031Y017943D01*
X011837Y017943D02*
X011789Y017991D01*
X011789Y018088D01*
X011837Y018136D01*
X011789Y018237D02*
X011789Y018383D01*
X011837Y018431D01*
X011886Y018431D01*
X011934Y018383D01*
X011934Y018237D01*
X012079Y018237D02*
X011789Y018237D01*
X011934Y018383D02*
X011983Y018431D01*
X012031Y018431D01*
X012079Y018383D01*
X012079Y018237D01*
X011934Y018532D02*
X011934Y018726D01*
X011837Y018827D02*
X011789Y018875D01*
X011789Y018972D01*
X011837Y019020D01*
X011886Y019020D01*
X011934Y018972D01*
X011983Y019020D01*
X012031Y019020D01*
X012079Y018972D01*
X012079Y018875D01*
X012031Y018827D01*
X011934Y018924D02*
X011934Y018972D01*
X011983Y019121D02*
X012079Y019218D01*
X011983Y019315D01*
X011789Y019315D01*
X011837Y019416D02*
X011789Y019464D01*
X011789Y019561D01*
X011837Y019610D01*
X011886Y019610D01*
X011934Y019561D01*
X011983Y019610D01*
X012031Y019610D01*
X012079Y019561D01*
X012079Y019464D01*
X012031Y019416D01*
X011934Y019513D02*
X011934Y019561D01*
X011983Y019121D02*
X011789Y019121D01*
X011309Y019286D02*
X011261Y019237D01*
X011309Y019286D02*
X011309Y019383D01*
X011261Y019431D01*
X011213Y019431D01*
X011164Y019383D01*
X011164Y019334D01*
X011164Y019383D02*
X011116Y019431D01*
X011067Y019431D01*
X011019Y019383D01*
X011019Y019286D01*
X011067Y019237D01*
X011164Y019136D02*
X011164Y018943D01*
X011261Y018842D02*
X011067Y018842D01*
X011019Y018793D01*
X011019Y018648D01*
X011309Y018648D01*
X011309Y018793D01*
X011261Y018842D01*
X011309Y018547D02*
X011019Y018547D01*
X011019Y018354D02*
X011309Y018547D01*
X011309Y018354D02*
X011019Y018354D01*
X011067Y018252D02*
X011019Y018204D01*
X011019Y018107D01*
X011067Y018059D01*
X011261Y018059D01*
X011309Y018107D01*
X011309Y018204D01*
X011261Y018252D01*
X011164Y018252D01*
X011164Y018156D01*
X010589Y018217D02*
X010589Y018363D01*
X010541Y018411D01*
X010493Y018411D01*
X010444Y018363D01*
X010444Y018217D01*
X010493Y018116D02*
X010541Y018116D01*
X010589Y018068D01*
X010589Y017971D01*
X010541Y017923D01*
X010541Y017822D02*
X010299Y017822D01*
X010347Y017923D02*
X010396Y017923D01*
X010444Y017971D01*
X010444Y018068D01*
X010493Y018116D01*
X010589Y018217D02*
X010299Y018217D01*
X010299Y018363D01*
X010347Y018411D01*
X010396Y018411D01*
X010444Y018363D01*
X010444Y018512D02*
X010444Y018706D01*
X010493Y018807D02*
X010493Y018952D01*
X010444Y019000D01*
X010347Y019000D01*
X010299Y018952D01*
X010299Y018807D01*
X010589Y018807D01*
X010493Y018904D02*
X010589Y019000D01*
X010541Y019101D02*
X010589Y019150D01*
X010589Y019247D01*
X010541Y019295D01*
X010493Y019295D01*
X010444Y019247D01*
X010444Y019150D01*
X010396Y019101D01*
X010347Y019101D01*
X010299Y019150D01*
X010299Y019247D01*
X010347Y019295D01*
X010299Y019396D02*
X010299Y019590D01*
X010299Y019493D02*
X010589Y019493D01*
X009428Y019126D02*
X009234Y019126D01*
X009234Y018835D01*
X009133Y018835D02*
X009133Y019029D01*
X009234Y018980D02*
X009331Y018980D01*
X009133Y018835D02*
X008988Y018835D01*
X008939Y018884D01*
X008939Y019029D01*
X008838Y019077D02*
X008790Y019126D01*
X008693Y019126D01*
X008645Y019077D01*
X008645Y018884D01*
X008838Y019077D01*
X008838Y018884D01*
X008790Y018835D01*
X008693Y018835D01*
X008645Y018884D01*
X008544Y018835D02*
X008350Y018835D01*
X008447Y018835D02*
X008447Y019126D01*
X008350Y019029D01*
X010299Y018068D02*
X010299Y017971D01*
X010347Y017923D01*
X010299Y018068D02*
X010347Y018116D01*
X010541Y017822D02*
X010589Y017773D01*
X010589Y017677D01*
X010541Y017628D01*
X010299Y017628D01*
X010299Y017527D02*
X010299Y017334D01*
X010299Y017430D02*
X010589Y017430D01*
X010589Y017232D02*
X010396Y017232D01*
X010299Y017136D01*
X010396Y017039D01*
X010589Y017039D01*
X010444Y017039D02*
X010444Y017232D01*
X011789Y017648D02*
X012031Y017648D01*
X012539Y018107D02*
X012539Y018204D01*
X012587Y018252D01*
X012636Y018252D01*
X012684Y018204D01*
X012733Y018252D01*
X012781Y018252D01*
X012829Y018204D01*
X012829Y018107D01*
X012781Y018059D01*
X012684Y018156D02*
X012684Y018204D01*
X012733Y018354D02*
X012829Y018450D01*
X012733Y018547D01*
X012539Y018547D01*
X012587Y018648D02*
X012539Y018697D01*
X012539Y018793D01*
X012587Y018842D01*
X012636Y018842D01*
X012684Y018793D01*
X012733Y018842D01*
X012781Y018842D01*
X012829Y018793D01*
X012829Y018697D01*
X012781Y018648D01*
X012684Y018745D02*
X012684Y018793D01*
X012733Y018354D02*
X012539Y018354D01*
X012539Y018107D02*
X012587Y018059D01*
X015609Y016453D02*
X015657Y016502D01*
X015706Y016502D01*
X015754Y016453D01*
X015754Y016308D01*
X015899Y016308D02*
X015609Y016308D01*
X015609Y016453D01*
X015754Y016453D02*
X015803Y016502D01*
X015851Y016502D01*
X015899Y016453D01*
X015899Y016308D01*
X015899Y016207D02*
X015609Y016207D01*
X015609Y016014D02*
X015899Y016014D01*
X015803Y016110D01*
X015899Y016207D01*
X015899Y015912D02*
X015609Y015912D01*
X015754Y015912D02*
X015754Y015719D01*
X015899Y015719D02*
X015609Y015719D01*
X016239Y015719D02*
X016239Y015864D01*
X016287Y015912D01*
X016384Y015912D01*
X016433Y015864D01*
X016433Y015719D01*
X016529Y015719D02*
X016239Y015719D01*
X016239Y016014D02*
X016239Y016159D01*
X016287Y016207D01*
X016481Y016207D01*
X016529Y016159D01*
X016529Y016014D01*
X016239Y016014D01*
X016239Y016308D02*
X016239Y016405D01*
X016239Y016357D02*
X016529Y016357D01*
X016529Y016405D02*
X016529Y016308D01*
X016578Y016505D02*
X016578Y016698D01*
X016481Y016799D02*
X016529Y016848D01*
X016529Y016944D01*
X016481Y016993D01*
X016529Y017094D02*
X016529Y017287D01*
X016529Y017389D02*
X016239Y017389D01*
X016384Y017437D02*
X016529Y017582D01*
X016433Y017389D02*
X016239Y017582D01*
X016239Y017094D02*
X016529Y017094D01*
X016287Y016993D02*
X016239Y016944D01*
X016239Y016848D01*
X016287Y016799D01*
X016481Y016799D01*
X016899Y016789D02*
X016899Y016934D01*
X016947Y016983D01*
X017141Y016983D01*
X017189Y016934D01*
X017189Y016789D01*
X016899Y016789D01*
X016996Y017084D02*
X016899Y017181D01*
X016996Y017277D01*
X017189Y017277D01*
X017044Y017277D02*
X017044Y017084D01*
X016996Y017084D02*
X017189Y017084D01*
X017559Y017004D02*
X017849Y017004D01*
X017849Y016907D02*
X017849Y017101D01*
X017656Y016907D02*
X017559Y017004D01*
X017704Y016806D02*
X017704Y016613D01*
X017607Y016512D02*
X017559Y016463D01*
X017559Y016318D01*
X017849Y016318D01*
X017849Y016463D01*
X017801Y016512D01*
X017607Y016512D01*
X017559Y016217D02*
X017849Y016217D01*
X017559Y016024D01*
X017849Y016024D01*
X017801Y015922D02*
X017704Y015922D01*
X017704Y015826D01*
X017607Y015922D02*
X017559Y015874D01*
X017559Y015777D01*
X017607Y015729D01*
X017801Y015729D01*
X017849Y015777D01*
X017849Y015874D01*
X017801Y015922D01*
X017189Y016004D02*
X017189Y016149D01*
X017141Y016197D01*
X016947Y016197D01*
X016899Y016149D01*
X016899Y016004D01*
X017189Y016004D01*
X017044Y015902D02*
X017093Y015854D01*
X017093Y015709D01*
X017189Y015709D02*
X016899Y015709D01*
X016899Y015854D01*
X016947Y015902D01*
X017044Y015902D01*
X016899Y016298D02*
X016899Y016395D01*
X016899Y016347D02*
X017189Y016347D01*
X017189Y016395D02*
X017189Y016298D01*
X017238Y016495D02*
X017238Y016688D01*
X016899Y017379D02*
X016899Y017572D01*
X016899Y017475D02*
X017189Y017475D01*
X017189Y017673D02*
X016996Y017673D01*
X016899Y017770D01*
X016996Y017867D01*
X017189Y017867D01*
X017044Y017867D02*
X017044Y017673D01*
X017674Y014583D02*
X017771Y014583D01*
X017819Y014535D01*
X017819Y014390D01*
X017819Y014486D02*
X017916Y014583D01*
X017916Y014390D02*
X017626Y014390D01*
X017626Y014535D01*
X017674Y014583D01*
X017674Y014289D02*
X017867Y014095D01*
X017916Y014143D01*
X017916Y014240D01*
X017867Y014289D01*
X017674Y014289D01*
X017626Y014240D01*
X017626Y014143D01*
X017674Y014095D01*
X017867Y014095D01*
X017916Y013994D02*
X017916Y013800D01*
X017722Y013994D01*
X017674Y013994D01*
X017626Y013946D01*
X017626Y013849D01*
X017674Y013800D01*
X017674Y013699D02*
X017626Y013651D01*
X017626Y013554D01*
X017674Y013506D01*
X017674Y013699D02*
X017722Y013699D01*
X017916Y013506D01*
X017916Y013699D01*
X017486Y013188D02*
X017486Y012994D01*
X017776Y012994D01*
X017776Y012893D02*
X017631Y012893D01*
X017582Y012845D01*
X017582Y012700D01*
X017776Y012700D01*
X017727Y012599D02*
X017776Y012550D01*
X017776Y012453D01*
X017727Y012405D01*
X017534Y012599D01*
X017727Y012599D01*
X017534Y012599D02*
X017486Y012550D01*
X017486Y012453D01*
X017534Y012405D01*
X017727Y012405D01*
X017727Y012304D02*
X017776Y012256D01*
X017776Y012159D01*
X017727Y012110D01*
X017534Y012304D01*
X017727Y012304D01*
X017534Y012304D02*
X017486Y012256D01*
X017486Y012159D01*
X017534Y012110D01*
X017727Y012110D01*
X017776Y012009D02*
X017776Y011816D01*
X017776Y011913D02*
X017486Y011913D01*
X017582Y011816D01*
X017416Y010893D02*
X017416Y010700D01*
X017706Y010700D01*
X017657Y010599D02*
X017706Y010550D01*
X017706Y010405D01*
X017803Y010405D02*
X017512Y010405D01*
X017512Y010550D01*
X017561Y010599D01*
X017657Y010599D01*
X017561Y010700D02*
X017561Y010796D01*
X017512Y010304D02*
X017464Y010304D01*
X017416Y010256D01*
X017416Y010159D01*
X017464Y010110D01*
X017464Y010009D02*
X017416Y009961D01*
X017416Y009864D01*
X017464Y009816D01*
X017464Y010009D02*
X017512Y010009D01*
X017706Y009816D01*
X017706Y010009D01*
X017706Y010110D02*
X017512Y010304D01*
X017706Y010304D02*
X017706Y010110D01*
X016188Y009356D02*
X015994Y009356D01*
X015994Y009066D01*
X015893Y009066D02*
X015893Y009211D01*
X015845Y009259D01*
X015700Y009259D01*
X015700Y009066D01*
X015599Y009114D02*
X015550Y009066D01*
X015453Y009066D01*
X015405Y009114D01*
X015599Y009308D01*
X015599Y009114D01*
X015599Y009308D02*
X015550Y009356D01*
X015453Y009356D01*
X015405Y009308D01*
X015405Y009114D01*
X015304Y009114D02*
X015304Y009308D01*
X015110Y009114D01*
X015159Y009066D01*
X015256Y009066D01*
X015304Y009114D01*
X015110Y009114D02*
X015110Y009308D01*
X015159Y009356D01*
X015256Y009356D01*
X015304Y009308D01*
X015009Y009066D02*
X014816Y009066D01*
X014913Y009066D02*
X014913Y009356D01*
X014816Y009259D01*
X013949Y009426D02*
X013755Y009426D01*
X013755Y009136D01*
X013654Y009136D02*
X013654Y009329D01*
X013755Y009281D02*
X013852Y009281D01*
X013654Y009136D02*
X013509Y009136D01*
X013460Y009184D01*
X013460Y009329D01*
X013359Y009136D02*
X013166Y009136D01*
X013263Y009136D02*
X013263Y009426D01*
X013166Y009329D01*
X012127Y010997D02*
X012176Y011046D01*
X012176Y011142D01*
X012127Y011191D01*
X012031Y011191D01*
X011982Y011142D01*
X011982Y011094D01*
X012031Y010997D01*
X011886Y010997D01*
X011886Y011191D01*
X012031Y011292D02*
X012031Y011437D01*
X012079Y011485D01*
X012127Y011485D01*
X012176Y011437D01*
X012176Y011340D01*
X012127Y011292D01*
X012031Y011292D01*
X011934Y011389D01*
X011886Y011485D01*
X011934Y011586D02*
X011886Y011635D01*
X011886Y011732D01*
X011934Y011780D01*
X012127Y011586D01*
X012176Y011635D01*
X012176Y011732D01*
X012127Y011780D01*
X011934Y011780D01*
X011886Y011881D02*
X011886Y012026D01*
X011934Y012075D01*
X012031Y012075D01*
X012079Y012026D01*
X012079Y011881D01*
X012176Y011881D02*
X011886Y011881D01*
X012079Y011978D02*
X012176Y012075D01*
X012127Y011586D02*
X011934Y011586D01*
X013372Y011686D02*
X013372Y011823D01*
X013508Y011823D01*
X013645Y011686D01*
X013543Y011789D02*
X013406Y011652D01*
X013372Y011686D02*
X013508Y011550D01*
X013785Y011826D02*
X013580Y012031D01*
X013511Y011963D02*
X013648Y012100D01*
X013754Y012137D02*
X013788Y012103D01*
X013857Y012103D01*
X013959Y012206D01*
X013891Y012274D02*
X014028Y012137D01*
X014028Y012069D01*
X013959Y012000D01*
X013891Y012000D01*
X013754Y012137D02*
X013754Y012206D01*
X013822Y012274D01*
X013891Y012274D01*
X013962Y012345D02*
X013962Y012414D01*
X014031Y012482D01*
X014099Y012482D01*
X014099Y012209D01*
X014167Y012209D01*
X014236Y012277D01*
X014236Y012345D01*
X014099Y012482D01*
X014136Y012588D02*
X014307Y012417D01*
X014376Y012417D01*
X014444Y012485D01*
X014444Y012554D01*
X014273Y012725D01*
X014379Y012762D02*
X014413Y012728D01*
X014481Y012728D01*
X014550Y012796D01*
X014618Y012796D01*
X014653Y012762D01*
X014653Y012694D01*
X014584Y012625D01*
X014516Y012625D01*
X014379Y012762D02*
X014379Y012830D01*
X014447Y012899D01*
X014516Y012899D01*
X014553Y013005D02*
X014656Y013107D01*
X014724Y013107D01*
X014758Y013073D01*
X014758Y013005D01*
X014656Y012902D01*
X014758Y013005D02*
X014827Y013005D01*
X014861Y012970D01*
X014861Y012902D01*
X014758Y012799D01*
X014553Y013005D01*
X014830Y013144D02*
X014830Y013281D01*
X015035Y013076D01*
X014967Y013008D02*
X015103Y013144D01*
X015141Y013250D02*
X015209Y013250D01*
X015277Y013319D01*
X015277Y013387D01*
X015243Y013421D01*
X015175Y013421D01*
X015072Y013319D01*
X015141Y013250D01*
X015072Y013319D02*
X015072Y013455D01*
X015106Y013558D01*
X015212Y013595D02*
X015212Y013664D01*
X015281Y013732D01*
X015349Y013732D01*
X015383Y013698D01*
X015383Y013424D01*
X015520Y013561D01*
X014099Y012209D02*
X013962Y012345D01*
X015994Y009211D02*
X016091Y009211D01*
X015976Y006878D02*
X015976Y006684D01*
X016266Y006684D01*
X016266Y006583D02*
X016121Y006583D01*
X016072Y006535D01*
X016072Y006390D01*
X016266Y006390D01*
X016217Y006289D02*
X016266Y006240D01*
X016266Y006143D01*
X016217Y006095D01*
X016024Y006289D01*
X016217Y006289D01*
X016024Y006289D02*
X015976Y006240D01*
X015976Y006143D01*
X016024Y006095D01*
X016217Y006095D01*
X016217Y005994D02*
X016266Y005946D01*
X016266Y005849D01*
X016217Y005800D01*
X016024Y005994D01*
X016217Y005994D01*
X016024Y005994D02*
X015976Y005946D01*
X015976Y005849D01*
X016024Y005800D01*
X016217Y005800D01*
X016266Y005699D02*
X016266Y005506D01*
X016266Y005603D02*
X015976Y005603D01*
X016072Y005506D01*
X016990Y004919D02*
X017087Y005016D01*
X017087Y004725D01*
X016990Y004725D02*
X017184Y004725D01*
X017285Y004774D02*
X017333Y004725D01*
X017430Y004725D01*
X017478Y004774D01*
X017478Y004967D01*
X017285Y004774D01*
X017285Y004967D01*
X017333Y005016D01*
X017430Y005016D01*
X017478Y004967D01*
X017579Y004919D02*
X017579Y004774D01*
X017628Y004725D01*
X017773Y004725D01*
X017773Y004919D01*
X017874Y004870D02*
X017971Y004870D01*
X017874Y004725D02*
X017874Y005016D01*
X018068Y005016D01*
X016121Y006684D02*
X016121Y006781D01*
X014569Y005838D02*
X014569Y005741D01*
X014520Y005693D01*
X014375Y005693D01*
X014472Y005693D02*
X014569Y005596D01*
X014375Y005596D02*
X014375Y005886D01*
X014520Y005886D01*
X014569Y005838D01*
X014274Y005838D02*
X014226Y005886D01*
X014129Y005886D01*
X014080Y005838D01*
X013979Y005838D02*
X013931Y005886D01*
X013834Y005886D01*
X013786Y005838D01*
X013979Y005838D02*
X013979Y005789D01*
X013786Y005596D01*
X013979Y005596D01*
X014080Y005596D02*
X014274Y005789D01*
X014274Y005838D01*
X014274Y005596D02*
X014080Y005596D01*
X012166Y005589D02*
X011972Y005589D01*
X011972Y005541D01*
X011972Y005441D02*
X011972Y005392D01*
X012069Y005296D01*
X012166Y005296D02*
X011972Y005296D01*
X011972Y005195D02*
X011972Y005147D01*
X012069Y005050D01*
X012166Y005050D02*
X011972Y005050D01*
X012021Y004949D02*
X012069Y004949D01*
X012069Y004755D01*
X012021Y004755D02*
X011972Y004804D01*
X011972Y004901D01*
X012021Y004949D01*
X012166Y004901D02*
X012166Y004804D01*
X012117Y004755D01*
X012021Y004755D01*
X011876Y004654D02*
X011876Y004461D01*
X012166Y004461D01*
X012021Y004461D02*
X012021Y004558D01*
X012166Y005541D02*
X012166Y005638D01*
X012117Y005786D02*
X012166Y005834D01*
X012117Y005786D02*
X011924Y005786D01*
X011972Y005738D02*
X011972Y005834D01*
X012021Y005934D02*
X011972Y005982D01*
X011972Y006079D01*
X012021Y006127D01*
X012069Y006127D01*
X012069Y005934D01*
X012117Y005934D02*
X012021Y005934D01*
X012117Y005934D02*
X012166Y005982D01*
X012166Y006079D01*
X011876Y005589D02*
X011827Y005589D01*
X017631Y012994D02*
X017631Y013091D01*
X020376Y012170D02*
X020666Y012170D01*
X020666Y012271D02*
X020666Y012465D01*
X020472Y012465D02*
X020666Y012271D01*
X020521Y012170D02*
X020521Y011976D01*
X020666Y011976D02*
X020376Y011976D01*
X020376Y011875D02*
X020666Y011875D01*
X020666Y011682D02*
X020376Y011682D01*
X020472Y011779D01*
X020376Y011875D01*
X020424Y011581D02*
X020472Y011581D01*
X020521Y011532D01*
X020521Y011436D01*
X020472Y011387D01*
X020424Y011387D01*
X020376Y011436D01*
X020376Y011532D01*
X020424Y011581D01*
X020521Y011532D02*
X020569Y011581D01*
X020617Y011581D01*
X020666Y011532D01*
X020666Y011436D01*
X020617Y011387D01*
X020569Y011387D01*
X020521Y011436D01*
X020472Y012271D02*
X020472Y012465D01*
X023380Y012519D02*
X023574Y012519D01*
X023675Y012519D02*
X023868Y012519D01*
X023969Y012519D02*
X024115Y012519D01*
X024163Y012568D01*
X024163Y012761D01*
X024115Y012810D01*
X023969Y012810D01*
X023969Y012519D01*
X023771Y012664D02*
X023675Y012664D01*
X023675Y012519D02*
X023675Y012810D01*
X023868Y012810D01*
X024264Y012664D02*
X024458Y012664D01*
X024559Y012568D02*
X024607Y012519D01*
X024704Y012519D01*
X024752Y012568D01*
X024752Y012664D01*
X024655Y012664D01*
X024559Y012568D02*
X024559Y012761D01*
X024607Y012810D01*
X024704Y012810D01*
X024752Y012761D01*
X024853Y012810D02*
X025047Y012519D01*
X025047Y012810D01*
X025148Y012810D02*
X025293Y012810D01*
X025341Y012761D01*
X025341Y012568D01*
X025293Y012519D01*
X025148Y012519D01*
X025148Y012810D01*
X024853Y012810D02*
X024853Y012519D01*
X023380Y012519D02*
X023380Y012810D01*
X026689Y012774D02*
X026689Y012581D01*
X026737Y012532D01*
X026834Y012532D01*
X026882Y012581D01*
X026882Y012677D01*
X026786Y012677D01*
X026882Y012774D02*
X026834Y012823D01*
X026737Y012823D01*
X026689Y012774D01*
X026689Y013022D02*
X026689Y013313D01*
X026882Y013313D01*
X026984Y013264D02*
X026984Y013216D01*
X027032Y013167D01*
X027129Y013167D01*
X027177Y013119D01*
X027177Y013071D01*
X027129Y013022D01*
X027032Y013022D01*
X026984Y013071D01*
X026984Y013264D02*
X027032Y013313D01*
X027129Y013313D01*
X027177Y013264D01*
X027278Y013216D02*
X027375Y013313D01*
X027472Y013216D01*
X027472Y013022D01*
X027573Y013071D02*
X027766Y013264D01*
X027766Y013071D01*
X027718Y013022D01*
X027621Y013022D01*
X027573Y013071D01*
X027573Y013264D01*
X027621Y013313D01*
X027718Y013313D01*
X027766Y013264D01*
X027867Y013264D02*
X027916Y013313D01*
X028013Y013313D01*
X028061Y013264D01*
X028061Y013216D01*
X028013Y013167D01*
X028061Y013119D01*
X028061Y013071D01*
X028013Y013022D01*
X027916Y013022D01*
X027867Y013071D01*
X027964Y013167D02*
X028013Y013167D01*
X028162Y013167D02*
X028356Y013167D01*
X028457Y013119D02*
X028602Y013119D01*
X028650Y013167D01*
X028650Y013264D01*
X028602Y013313D01*
X028457Y013313D01*
X028457Y013022D01*
X028554Y013119D02*
X028650Y013022D01*
X028751Y013071D02*
X028800Y013022D01*
X028897Y013022D01*
X028945Y013071D01*
X028945Y013119D01*
X028897Y013167D01*
X028800Y013167D01*
X028751Y013216D01*
X028751Y013264D01*
X028800Y013313D01*
X028897Y013313D01*
X028945Y013264D01*
X029046Y013313D02*
X029240Y013313D01*
X029143Y013313D02*
X029143Y013022D01*
X028061Y012774D02*
X028013Y012823D01*
X027916Y012823D01*
X027867Y012774D01*
X027766Y012677D02*
X027573Y012677D01*
X027472Y012581D02*
X027472Y012774D01*
X027423Y012823D01*
X027278Y012823D01*
X027278Y012532D01*
X027423Y012532D01*
X027472Y012581D01*
X027177Y012532D02*
X027177Y012823D01*
X026984Y012823D02*
X027177Y012532D01*
X026984Y012532D02*
X026984Y012823D01*
X027278Y013022D02*
X027278Y013216D01*
X027278Y013167D02*
X027472Y013167D01*
X026786Y013167D02*
X026689Y013167D01*
X027867Y012532D02*
X028061Y012726D01*
X028061Y012774D01*
X028061Y012532D02*
X027867Y012532D01*
X027128Y009106D02*
X026934Y009106D01*
X026934Y008815D01*
X026833Y008815D02*
X026833Y009009D01*
X026934Y008960D02*
X027031Y008960D01*
X026833Y008815D02*
X026688Y008815D01*
X026639Y008864D01*
X026639Y009009D01*
X026538Y009057D02*
X026345Y008864D01*
X026393Y008815D01*
X026490Y008815D01*
X026538Y008864D01*
X026538Y009057D01*
X026490Y009106D01*
X026393Y009106D01*
X026345Y009057D01*
X026345Y008864D01*
X026244Y008815D02*
X026050Y008815D01*
X026147Y008815D02*
X026147Y009106D01*
X026050Y009009D01*
X024426Y008495D02*
X024329Y008398D01*
X024329Y008446D02*
X024329Y008301D01*
X024426Y008301D02*
X024136Y008301D01*
X024136Y008446D01*
X024184Y008495D01*
X024281Y008495D01*
X024329Y008446D01*
X024377Y008200D02*
X024184Y008200D01*
X024377Y008006D01*
X024426Y008055D01*
X024426Y008152D01*
X024377Y008200D01*
X024184Y008200D02*
X024136Y008152D01*
X024136Y008055D01*
X024184Y008006D01*
X024377Y008006D01*
X024377Y007905D02*
X024329Y007905D01*
X024281Y007857D01*
X024281Y007712D01*
X024377Y007712D01*
X024426Y007760D01*
X024426Y007857D01*
X024377Y007905D01*
X024184Y007809D02*
X024281Y007712D01*
X024281Y007611D02*
X024377Y007611D01*
X024426Y007562D01*
X024426Y007466D01*
X024377Y007417D01*
X024281Y007417D02*
X024232Y007514D01*
X024232Y007562D01*
X024281Y007611D01*
X024136Y007611D02*
X024136Y007417D01*
X024281Y007417D01*
X024184Y007809D02*
X024136Y007905D01*
X022655Y004771D02*
X022655Y004481D01*
X022461Y004771D01*
X022461Y004481D01*
X022360Y004481D02*
X022166Y004481D01*
X022166Y004771D01*
X022360Y004771D01*
X022263Y004626D02*
X022166Y004626D01*
X022067Y004771D02*
X021970Y004771D01*
X022018Y004771D02*
X022018Y004481D01*
X021970Y004481D02*
X022067Y004481D01*
X021869Y004481D02*
X021675Y004481D01*
X021675Y004771D01*
X021574Y004674D02*
X021574Y004481D01*
X021574Y004626D02*
X021381Y004626D01*
X021381Y004674D02*
X021478Y004771D01*
X021574Y004674D01*
X021381Y004674D02*
X021381Y004481D01*
X028016Y005873D02*
X028016Y006066D01*
X028161Y005970D02*
X028161Y005873D01*
X028306Y005873D02*
X028016Y005873D01*
X028161Y006168D02*
X028112Y006216D01*
X028112Y006313D01*
X028161Y006361D01*
X028209Y006361D01*
X028209Y006168D01*
X028257Y006168D02*
X028161Y006168D01*
X028257Y006168D02*
X028306Y006216D01*
X028306Y006313D01*
X028306Y006462D02*
X028112Y006462D01*
X028112Y006559D02*
X028112Y006607D01*
X028112Y006559D02*
X028209Y006462D01*
X028209Y006708D02*
X028112Y006804D01*
X028112Y006853D01*
X028112Y006953D02*
X028112Y007002D01*
X028306Y007002D01*
X028306Y007050D02*
X028306Y006953D01*
X028306Y006708D02*
X028112Y006708D01*
X028016Y007002D02*
X027967Y007002D01*
X028112Y007150D02*
X028112Y007246D01*
X028064Y007198D02*
X028257Y007198D01*
X028306Y007246D01*
X028257Y007346D02*
X028161Y007346D01*
X028112Y007394D01*
X028112Y007491D01*
X028161Y007540D01*
X028209Y007540D01*
X028209Y007346D01*
X028257Y007346D02*
X028306Y007394D01*
X028306Y007491D01*
X032097Y018086D02*
X032097Y018376D01*
X031952Y018231D01*
X032145Y018231D01*
X032246Y018183D02*
X032440Y018376D01*
X032541Y018376D02*
X032735Y018376D01*
X032735Y018328D01*
X032541Y018134D01*
X032541Y018086D01*
X032440Y018086D02*
X032295Y018231D01*
X032246Y018376D02*
X032246Y018086D01*
X030086Y020537D02*
X030086Y020731D01*
X030086Y020634D02*
X029796Y020634D01*
X029892Y020537D01*
X029844Y020832D02*
X029796Y020880D01*
X029796Y020977D01*
X029844Y021025D01*
X030037Y020832D01*
X030086Y020880D01*
X030086Y020977D01*
X030037Y021025D01*
X029844Y021025D01*
X029844Y021126D02*
X029796Y021175D01*
X029796Y021272D01*
X029844Y021320D01*
X030037Y021126D01*
X030086Y021175D01*
X030086Y021272D01*
X030037Y021320D01*
X029844Y021320D01*
X029796Y021421D02*
X029796Y021566D01*
X029844Y021615D01*
X029941Y021615D01*
X029989Y021566D01*
X029989Y021421D01*
X030086Y021421D02*
X029796Y021421D01*
X029989Y021518D02*
X030086Y021615D01*
X030037Y021126D02*
X029844Y021126D01*
X029844Y020832D02*
X030037Y020832D01*
X028446Y020814D02*
X028397Y020766D01*
X028446Y020814D02*
X028446Y020911D01*
X028397Y020959D01*
X028301Y020959D01*
X028252Y020911D01*
X028252Y020863D01*
X028301Y020766D01*
X028156Y020766D01*
X028156Y020959D01*
X028301Y021060D02*
X028204Y021157D01*
X028156Y021254D01*
X028204Y021355D02*
X028156Y021403D01*
X028156Y021500D01*
X028204Y021549D01*
X028397Y021355D01*
X028446Y021403D01*
X028446Y021500D01*
X028397Y021549D01*
X028204Y021549D01*
X028156Y021650D02*
X028156Y021795D01*
X028204Y021843D01*
X028301Y021843D01*
X028349Y021795D01*
X028349Y021650D01*
X028349Y021746D02*
X028446Y021843D01*
X028446Y021650D02*
X028156Y021650D01*
X028204Y021355D02*
X028397Y021355D01*
X028397Y021254D02*
X028349Y021254D01*
X028301Y021206D01*
X028301Y021060D01*
X028397Y021060D01*
X028446Y021109D01*
X028446Y021206D01*
X028397Y021254D01*
X030076Y022836D02*
X030269Y022836D01*
X030173Y022836D02*
X030173Y023126D01*
X030076Y023029D01*
X030370Y023078D02*
X030419Y023126D01*
X030516Y023126D01*
X030564Y023078D01*
X030370Y022884D01*
X030419Y022836D01*
X030516Y022836D01*
X030564Y022884D01*
X030564Y023078D01*
X030665Y023078D02*
X030713Y023126D01*
X030810Y023126D01*
X030859Y023078D01*
X030665Y022884D01*
X030713Y022836D01*
X030810Y022836D01*
X030859Y022884D01*
X030859Y023078D01*
X030960Y023126D02*
X031105Y023126D01*
X031153Y023078D01*
X031153Y022981D01*
X031105Y022933D01*
X030960Y022933D01*
X031056Y022933D02*
X031153Y022836D01*
X030960Y022836D02*
X030960Y023126D01*
X030665Y023078D02*
X030665Y022884D01*
X030370Y022884D02*
X030370Y023078D01*
X030646Y023656D02*
X030839Y023656D01*
X030743Y023656D02*
X030743Y023946D01*
X030646Y023849D01*
X030940Y023898D02*
X030989Y023946D01*
X031086Y023946D01*
X031134Y023898D01*
X030940Y023704D01*
X030989Y023656D01*
X031086Y023656D01*
X031134Y023704D01*
X031134Y023898D01*
X031235Y023898D02*
X031283Y023946D01*
X031380Y023946D01*
X031429Y023898D01*
X031235Y023704D01*
X031283Y023656D01*
X031380Y023656D01*
X031429Y023704D01*
X031429Y023898D01*
X031530Y023946D02*
X031675Y023946D01*
X031723Y023898D01*
X031723Y023801D01*
X031675Y023753D01*
X031530Y023753D01*
X031626Y023753D02*
X031723Y023656D01*
X031530Y023656D02*
X031530Y023946D01*
X031235Y023898D02*
X031235Y023704D01*
X030940Y023704D02*
X030940Y023898D01*
X030943Y024496D02*
X030895Y024544D01*
X031089Y024738D01*
X031089Y024544D01*
X031040Y024496D01*
X030943Y024496D01*
X030895Y024544D02*
X030895Y024738D01*
X030943Y024786D01*
X031040Y024786D01*
X031089Y024738D01*
X031190Y024786D02*
X031335Y024786D01*
X031383Y024738D01*
X031383Y024641D01*
X031335Y024593D01*
X031190Y024593D01*
X031286Y024593D02*
X031383Y024496D01*
X031190Y024496D02*
X031190Y024786D01*
X030794Y024738D02*
X030794Y024544D01*
X030746Y024496D01*
X030649Y024496D01*
X030600Y024544D01*
X030794Y024738D01*
X030746Y024786D01*
X030649Y024786D01*
X030600Y024738D01*
X030600Y024544D01*
X030499Y024496D02*
X030306Y024496D01*
X030403Y024496D02*
X030403Y024786D01*
X030306Y024689D01*
X028996Y024733D02*
X028996Y024926D01*
X028996Y024829D02*
X028706Y024829D01*
X028802Y024733D01*
X028754Y025027D02*
X028706Y025076D01*
X028706Y025172D01*
X028754Y025221D01*
X028947Y025027D01*
X028996Y025076D01*
X028996Y025172D01*
X028947Y025221D01*
X028754Y025221D01*
X028754Y025322D02*
X028706Y025370D01*
X028706Y025467D01*
X028754Y025515D01*
X028947Y025322D01*
X028996Y025370D01*
X028996Y025467D01*
X028947Y025515D01*
X028754Y025515D01*
X028802Y025616D02*
X028802Y025762D01*
X028851Y025810D01*
X028996Y025810D01*
X028996Y025911D02*
X028706Y025911D01*
X028706Y026105D01*
X028851Y026008D02*
X028851Y025911D01*
X028802Y025616D02*
X028996Y025616D01*
X028947Y025322D02*
X028754Y025322D01*
X028754Y025027D02*
X028947Y025027D01*
X029406Y027316D02*
X029599Y027509D01*
X029599Y027558D01*
X029551Y027606D01*
X029454Y027606D01*
X029406Y027558D01*
X029406Y027316D02*
X029599Y027316D01*
X029700Y027316D02*
X029894Y027509D01*
X029894Y027558D01*
X029846Y027606D01*
X029749Y027606D01*
X029700Y027558D01*
X029700Y027316D02*
X029894Y027316D01*
X029995Y027316D02*
X030140Y027316D01*
X030189Y027364D01*
X030189Y027461D01*
X030140Y027509D01*
X029995Y027509D01*
X029995Y027219D01*
X030290Y027316D02*
X030290Y027606D01*
X030483Y027606D01*
X030386Y027461D02*
X030290Y027461D01*
X031986Y027774D02*
X031986Y027823D01*
X032034Y027871D01*
X032131Y027871D01*
X032179Y027823D01*
X032179Y027774D01*
X032131Y027726D01*
X032034Y027726D01*
X031986Y027774D01*
X032034Y027871D02*
X031986Y027919D01*
X031986Y027968D01*
X032034Y028016D01*
X032131Y028016D01*
X032179Y027968D01*
X032179Y027919D01*
X032131Y027871D01*
X032280Y028016D02*
X032377Y027919D01*
X032474Y028016D01*
X032474Y027726D01*
X032575Y027726D02*
X032575Y028016D01*
X032575Y027871D02*
X032769Y027871D01*
X032870Y027919D02*
X033063Y027919D01*
X032870Y027726D01*
X033063Y027726D01*
X032769Y027726D02*
X032769Y028016D01*
X032280Y028016D02*
X032280Y027726D01*
X026978Y027946D02*
X026784Y027946D01*
X026784Y027656D01*
X026683Y027656D02*
X026683Y027801D01*
X026635Y027849D01*
X026490Y027849D01*
X026490Y027656D01*
X026389Y027704D02*
X026340Y027656D01*
X026243Y027656D01*
X026195Y027704D01*
X026389Y027898D01*
X026389Y027704D01*
X026389Y027898D02*
X026340Y027946D01*
X026243Y027946D01*
X026195Y027898D01*
X026195Y027704D01*
X026094Y027704D02*
X026046Y027656D01*
X025949Y027656D01*
X025900Y027704D01*
X026094Y027898D01*
X026094Y027704D01*
X025900Y027704D02*
X025900Y027898D01*
X025949Y027946D01*
X026046Y027946D01*
X026094Y027898D01*
X025799Y027656D02*
X025606Y027656D01*
X025703Y027656D02*
X025703Y027946D01*
X025606Y027849D01*
X025074Y028865D02*
X025074Y029156D01*
X025268Y029156D01*
X025171Y029010D02*
X025074Y029010D01*
X024973Y029059D02*
X024973Y028865D01*
X024828Y028865D01*
X024779Y028914D01*
X024779Y029059D01*
X024678Y029107D02*
X024485Y028914D01*
X024533Y028865D01*
X024630Y028865D01*
X024678Y028914D01*
X024678Y029107D01*
X024630Y029156D01*
X024533Y029156D01*
X024485Y029107D01*
X024485Y028914D01*
X024384Y028865D02*
X024190Y028865D01*
X024287Y028865D02*
X024287Y029156D01*
X024190Y029059D01*
X025756Y029716D02*
X025949Y029909D01*
X025949Y029958D01*
X025901Y030006D01*
X025804Y030006D01*
X025756Y029958D01*
X025756Y029716D02*
X025949Y029716D01*
X026050Y029716D02*
X026244Y029909D01*
X026244Y029958D01*
X026196Y030006D01*
X026099Y030006D01*
X026050Y029958D01*
X026050Y029716D02*
X026244Y029716D01*
X026345Y029716D02*
X026490Y029716D01*
X026539Y029764D01*
X026539Y029861D01*
X026490Y029909D01*
X026345Y029909D01*
X026345Y029619D01*
X026640Y029716D02*
X026640Y030006D01*
X026833Y030006D01*
X026736Y029861D02*
X026640Y029861D01*
X026784Y027801D02*
X026881Y027801D01*
X025503Y025971D02*
X025309Y025971D01*
X025212Y025874D01*
X025309Y025778D01*
X025503Y025778D01*
X025358Y025778D02*
X025358Y025971D01*
X025358Y025676D02*
X025358Y025483D01*
X025212Y025628D01*
X025503Y025628D01*
X025503Y025382D02*
X025309Y025382D01*
X025212Y025285D01*
X025309Y025188D01*
X025503Y025188D01*
X025454Y025087D02*
X025406Y025087D01*
X025358Y025039D01*
X025358Y024894D01*
X025454Y024894D01*
X025503Y024942D01*
X025503Y025039D01*
X025454Y025087D01*
X025358Y025188D02*
X025358Y025382D01*
X025212Y025087D02*
X025261Y024990D01*
X025358Y024894D01*
X025503Y024792D02*
X025503Y024599D01*
X025503Y024696D02*
X025212Y024696D01*
X025309Y024599D01*
X025309Y024498D02*
X025503Y024498D01*
X025358Y024498D02*
X025358Y024304D01*
X025309Y024304D02*
X025503Y024304D01*
X025454Y024203D02*
X025358Y024203D01*
X025358Y024106D01*
X025454Y024010D02*
X025503Y024058D01*
X025503Y024155D01*
X025454Y024203D01*
X025309Y024304D02*
X025212Y024401D01*
X025309Y024498D01*
X025261Y024203D02*
X025212Y024155D01*
X025212Y024058D01*
X025261Y024010D01*
X025454Y024010D01*
X025503Y023909D02*
X025503Y023715D01*
X025212Y023715D01*
X025212Y023909D01*
X025358Y023812D02*
X025358Y023715D01*
X025503Y023614D02*
X025212Y023614D01*
X025309Y023517D01*
X025212Y023420D01*
X025503Y023420D01*
X025503Y023319D02*
X025212Y023126D01*
X025212Y023319D02*
X025503Y023126D01*
X026096Y021815D02*
X026096Y021621D01*
X026386Y021621D01*
X026386Y021520D02*
X026241Y021520D01*
X026192Y021472D01*
X026192Y021326D01*
X026386Y021326D01*
X026337Y021225D02*
X026386Y021177D01*
X026386Y021080D01*
X026337Y021032D01*
X026144Y021225D01*
X026337Y021225D01*
X026144Y021225D02*
X026096Y021177D01*
X026096Y021080D01*
X026144Y021032D01*
X026337Y021032D01*
X026337Y020931D02*
X026386Y020882D01*
X026386Y020786D01*
X026337Y020737D01*
X026144Y020931D01*
X026337Y020931D01*
X026144Y020931D02*
X026096Y020882D01*
X026096Y020786D01*
X026144Y020737D01*
X026337Y020737D01*
X026386Y020636D02*
X026386Y020443D01*
X026386Y020539D02*
X026096Y020539D01*
X026192Y020443D01*
X026241Y021621D02*
X026241Y021718D01*
X024683Y020568D02*
X024683Y020471D01*
X024635Y020423D01*
X024490Y020423D01*
X024586Y020423D02*
X024683Y020326D01*
X024490Y020326D02*
X024490Y020616D01*
X024635Y020616D01*
X024683Y020568D01*
X024389Y020568D02*
X024389Y020374D01*
X024340Y020326D01*
X024243Y020326D01*
X024195Y020374D01*
X024389Y020568D01*
X024340Y020616D01*
X024243Y020616D01*
X024195Y020568D01*
X024195Y020374D01*
X024094Y020374D02*
X024046Y020326D01*
X023949Y020326D01*
X023900Y020374D01*
X024094Y020568D01*
X024094Y020374D01*
X023900Y020374D02*
X023900Y020568D01*
X023949Y020616D01*
X024046Y020616D01*
X024094Y020568D01*
X023799Y020326D02*
X023606Y020326D01*
X023703Y020326D02*
X023703Y020616D01*
X023606Y020519D01*
X022755Y021966D02*
X022755Y022014D01*
X022949Y022208D01*
X022949Y022256D01*
X022755Y022256D01*
X022654Y022256D02*
X022460Y022063D01*
X022509Y022111D02*
X022654Y021966D01*
X022460Y021966D02*
X022460Y022256D01*
X022311Y022256D02*
X022166Y022111D01*
X022359Y022111D01*
X022311Y021966D02*
X022311Y022256D01*
X020816Y025983D02*
X020526Y025983D01*
X020526Y026176D01*
X020671Y026080D02*
X020671Y025983D01*
X020671Y026278D02*
X020622Y026326D01*
X020622Y026423D01*
X020671Y026471D01*
X020719Y026471D01*
X020719Y026278D01*
X020767Y026278D02*
X020671Y026278D01*
X020767Y026278D02*
X020816Y026326D01*
X020816Y026423D01*
X020816Y026572D02*
X020622Y026572D01*
X020622Y026669D02*
X020622Y026717D01*
X020622Y026669D02*
X020719Y026572D01*
X020719Y026818D02*
X020622Y026914D01*
X020622Y026963D01*
X020622Y027063D02*
X020622Y027112D01*
X020816Y027112D01*
X020816Y027160D02*
X020816Y027063D01*
X020816Y026818D02*
X020622Y026818D01*
X020526Y027112D02*
X020477Y027112D01*
X020622Y027260D02*
X020622Y027356D01*
X020574Y027308D02*
X020767Y027308D01*
X020816Y027356D01*
X020767Y027456D02*
X020671Y027456D01*
X020622Y027504D01*
X020622Y027601D01*
X020671Y027650D01*
X020719Y027650D01*
X020719Y027456D01*
X020767Y027456D02*
X020816Y027504D01*
X020816Y027601D01*
X020704Y028945D02*
X020704Y029236D01*
X020898Y029236D01*
X020801Y029090D02*
X020704Y029090D01*
X020603Y029139D02*
X020603Y028945D01*
X020458Y028945D01*
X020409Y028994D01*
X020409Y029139D01*
X020308Y029187D02*
X020115Y028994D01*
X020163Y028945D01*
X020260Y028945D01*
X020308Y028994D01*
X020308Y029187D01*
X020260Y029236D01*
X020163Y029236D01*
X020115Y029187D01*
X020115Y028994D01*
X020014Y028945D02*
X019820Y028945D01*
X019917Y028945D02*
X019917Y029236D01*
X019820Y029139D01*
X019324Y029616D02*
X019324Y029906D01*
X019518Y029906D01*
X019421Y029761D02*
X019324Y029761D01*
X019223Y029761D02*
X019223Y029616D01*
X019223Y029761D02*
X019175Y029809D01*
X019030Y029809D01*
X019030Y029616D01*
X018929Y029664D02*
X018880Y029616D01*
X018783Y029616D01*
X018735Y029664D01*
X018929Y029858D01*
X018929Y029664D01*
X018929Y029858D02*
X018880Y029906D01*
X018783Y029906D01*
X018735Y029858D01*
X018735Y029664D01*
X018634Y029664D02*
X018586Y029616D01*
X018489Y029616D01*
X018440Y029664D01*
X018634Y029858D01*
X018634Y029664D01*
X018440Y029664D02*
X018440Y029858D01*
X018489Y029906D01*
X018586Y029906D01*
X018634Y029858D01*
X018339Y029616D02*
X018146Y029616D01*
X018243Y029616D02*
X018243Y029906D01*
X018146Y029809D01*
X020266Y031015D02*
X020411Y030870D01*
X020411Y031064D01*
X020508Y031165D02*
X020508Y031213D01*
X020556Y031213D01*
X020556Y031165D01*
X020508Y031165D01*
X020508Y031312D02*
X020314Y031506D01*
X020266Y031506D01*
X020266Y031312D01*
X020508Y031312D02*
X020556Y031312D01*
X020556Y031015D02*
X020266Y031015D01*
X020363Y031607D02*
X020508Y031607D01*
X020556Y031655D01*
X020556Y031800D01*
X020363Y031800D01*
X020411Y031901D02*
X020411Y031998D01*
X020266Y031901D02*
X020266Y032095D01*
X020266Y031901D02*
X020556Y031901D01*
X019699Y026796D02*
X019505Y026603D01*
X019553Y026651D02*
X019699Y026506D01*
X019505Y026506D02*
X019505Y026796D01*
X019404Y026748D02*
X019210Y026554D01*
X019259Y026506D01*
X019356Y026506D01*
X019404Y026554D01*
X019404Y026748D01*
X019356Y026796D01*
X019259Y026796D01*
X019210Y026748D01*
X019210Y026554D01*
X019109Y026506D02*
X018916Y026506D01*
X019013Y026506D02*
X019013Y026796D01*
X018916Y026699D01*
X004256Y016449D02*
X003966Y016449D01*
X003966Y016642D01*
X004111Y016545D02*
X004111Y016449D01*
X004063Y016348D02*
X004256Y016348D01*
X004256Y016202D01*
X004208Y016154D01*
X004063Y016154D01*
X004014Y016053D02*
X004208Y015859D01*
X004256Y015908D01*
X004256Y016005D01*
X004208Y016053D01*
X004014Y016053D01*
X003966Y016005D01*
X003966Y015908D01*
X004014Y015859D01*
X004208Y015859D01*
X004208Y015758D02*
X004256Y015710D01*
X004256Y015613D01*
X004208Y015565D01*
X004014Y015758D01*
X004208Y015758D01*
X004208Y015565D02*
X004014Y015565D01*
X003966Y015613D01*
X003966Y015710D01*
X004014Y015758D01*
X004256Y015464D02*
X004256Y015270D01*
X004256Y015367D02*
X003966Y015367D01*
X004063Y015270D01*
X003479Y014666D02*
X003528Y014618D01*
X003528Y014521D01*
X003479Y014473D01*
X003334Y014473D01*
X003431Y014473D02*
X003528Y014376D01*
X003334Y014376D02*
X003334Y014666D01*
X003479Y014666D01*
X003233Y014666D02*
X003040Y014666D01*
X003040Y014376D01*
X003233Y014376D01*
X003136Y014521D02*
X003040Y014521D01*
X002939Y014376D02*
X002939Y014666D01*
X002745Y014666D02*
X002745Y014376D01*
X002842Y014473D01*
X002939Y014376D01*
X002644Y014424D02*
X002644Y014618D01*
X002596Y014666D01*
X002499Y014666D01*
X002450Y014618D01*
X002450Y014424D01*
X002499Y014376D01*
X002596Y014376D01*
X002644Y014424D01*
X002681Y014145D02*
X002681Y013951D01*
X002301Y014473D02*
X002156Y014473D01*
X002156Y014376D02*
X002156Y014666D01*
X002301Y014666D01*
X002349Y014618D01*
X002349Y014521D01*
X002301Y014473D01*
X002673Y012488D02*
X002673Y012294D01*
X002769Y012391D02*
X002576Y012391D01*
X003382Y017746D02*
X003286Y017843D01*
X003576Y017843D01*
X003576Y017939D02*
X003576Y017746D01*
X003527Y018040D02*
X003334Y018234D01*
X003527Y018234D01*
X003576Y018186D01*
X003576Y018089D01*
X003527Y018040D01*
X003334Y018040D01*
X003286Y018089D01*
X003286Y018186D01*
X003334Y018234D01*
X003334Y018335D02*
X003286Y018383D01*
X003286Y018480D01*
X003334Y018529D01*
X003527Y018335D01*
X003576Y018383D01*
X003576Y018480D01*
X003527Y018529D01*
X003334Y018529D01*
X003382Y018630D02*
X003382Y018775D01*
X003431Y018823D01*
X003576Y018823D01*
X003576Y018924D02*
X003286Y018924D01*
X003286Y019118D01*
X003431Y019021D02*
X003431Y018924D01*
X003382Y018630D02*
X003576Y018630D01*
X003527Y018335D02*
X003334Y018335D01*
D11*
X008951Y011935D02*
X008926Y011910D01*
X008926Y011835D01*
X009076Y011835D01*
X009076Y011910D01*
X009051Y011935D01*
X009026Y011935D01*
X009001Y011910D01*
X009001Y011835D01*
X009026Y011788D02*
X009051Y011788D01*
X009076Y011763D01*
X009076Y011713D01*
X009051Y011688D01*
X009051Y011641D02*
X008926Y011641D01*
X008951Y011688D02*
X008926Y011713D01*
X008926Y011763D01*
X008951Y011788D01*
X009001Y011763D02*
X009026Y011788D01*
X009001Y011763D02*
X009001Y011713D01*
X008976Y011688D01*
X008951Y011688D01*
X009051Y011641D02*
X009076Y011615D01*
X009076Y011565D01*
X009051Y011540D01*
X008926Y011540D01*
X008926Y011493D02*
X008926Y011393D01*
X008926Y011443D02*
X009076Y011443D01*
X009076Y011346D02*
X008976Y011346D01*
X008926Y011296D01*
X008976Y011246D01*
X009076Y011246D01*
X009001Y011246D02*
X009001Y011346D01*
X009001Y011910D02*
X008976Y011935D01*
X008951Y011935D01*
X024656Y010171D02*
X024656Y010071D01*
X024681Y010046D01*
X024731Y010046D01*
X024756Y010071D01*
X024756Y010121D01*
X024706Y010121D01*
X024756Y010171D02*
X024731Y010196D01*
X024681Y010196D01*
X024656Y010171D01*
X024803Y010196D02*
X024878Y010196D01*
X024903Y010171D01*
X024903Y010121D01*
X024878Y010096D01*
X024803Y010096D01*
X024803Y010046D02*
X024803Y010196D01*
X024950Y010171D02*
X024950Y010146D01*
X024975Y010121D01*
X025025Y010121D01*
X025051Y010096D01*
X025051Y010071D01*
X025025Y010046D01*
X024975Y010046D01*
X024950Y010071D01*
X024950Y010171D02*
X024975Y010196D01*
X025025Y010196D01*
X025051Y010171D01*
X027494Y019146D02*
X027594Y019296D01*
X027641Y019296D02*
X027691Y019246D01*
X027741Y019296D01*
X027741Y019146D01*
X027788Y019146D02*
X027889Y019246D01*
X027889Y019271D01*
X027864Y019296D01*
X027813Y019296D01*
X027788Y019271D01*
X027788Y019146D02*
X027889Y019146D01*
X027641Y019146D02*
X027641Y019296D01*
X027494Y019296D02*
X027594Y019146D01*
X023978Y028076D02*
X023928Y028126D01*
X023953Y028126D02*
X023878Y028126D01*
X023878Y028076D02*
X023878Y028226D01*
X023953Y028226D01*
X023978Y028201D01*
X023978Y028151D01*
X023953Y028126D01*
X023831Y028101D02*
X023805Y028076D01*
X023755Y028076D01*
X023730Y028101D01*
X023831Y028201D01*
X023831Y028101D01*
X023831Y028201D02*
X023805Y028226D01*
X023755Y028226D01*
X023730Y028201D01*
X023730Y028101D01*
X023683Y028101D02*
X023683Y028126D01*
X023658Y028151D01*
X023583Y028151D01*
X023583Y028101D01*
X023608Y028076D01*
X023658Y028076D01*
X023683Y028101D01*
X023633Y028201D02*
X023583Y028151D01*
X023536Y028151D02*
X023536Y028101D01*
X023511Y028076D01*
X023461Y028076D01*
X023436Y028101D01*
X023436Y028151D02*
X023486Y028176D01*
X023511Y028176D01*
X023536Y028151D01*
X023536Y028226D02*
X023436Y028226D01*
X023436Y028151D01*
X023261Y028236D02*
X023160Y028236D01*
X023113Y028236D02*
X023113Y028386D01*
X023063Y028336D01*
X023013Y028386D01*
X023013Y028236D01*
X022966Y028236D02*
X022866Y028386D01*
X022966Y028386D02*
X022866Y028236D01*
X023160Y028336D02*
X023210Y028386D01*
X023210Y028236D01*
X023633Y028201D02*
X023683Y028226D01*
X023661Y028847D02*
X023661Y028897D01*
X023736Y028847D02*
X023586Y028847D01*
X023586Y028947D01*
X023636Y029019D02*
X023661Y028994D01*
X023711Y028994D01*
X023736Y029019D01*
X023736Y029069D01*
X023686Y029094D02*
X023686Y028994D01*
X023636Y029019D02*
X023636Y029069D01*
X023661Y029094D01*
X023686Y029094D01*
X023686Y029141D02*
X023636Y029192D01*
X023636Y029217D01*
X023636Y029264D02*
X023736Y029264D01*
X023686Y029264D02*
X023636Y029314D01*
X023636Y029339D01*
X023636Y029387D02*
X023636Y029412D01*
X023736Y029412D01*
X023736Y029387D02*
X023736Y029437D01*
X023711Y029510D02*
X023736Y029535D01*
X023711Y029510D02*
X023611Y029510D01*
X023636Y029485D02*
X023636Y029535D01*
X023661Y029583D02*
X023636Y029608D01*
X023636Y029658D01*
X023661Y029683D01*
X023686Y029683D01*
X023686Y029583D01*
X023711Y029583D02*
X023661Y029583D01*
X023711Y029583D02*
X023736Y029608D01*
X023736Y029658D01*
X023586Y029412D02*
X023561Y029412D01*
X023636Y029141D02*
X023736Y029141D01*
X022461Y028371D02*
X022461Y028321D01*
X022435Y028296D01*
X022360Y028296D01*
X022360Y028246D02*
X022360Y028396D01*
X022435Y028396D01*
X022461Y028371D01*
X022410Y028296D02*
X022461Y028246D01*
X022313Y028246D02*
X022313Y028396D01*
X022213Y028396D02*
X022213Y028246D01*
X022263Y028296D01*
X022313Y028246D01*
X022166Y028321D02*
X022141Y028296D01*
X022066Y028296D01*
X022066Y028246D02*
X022066Y028396D01*
X022141Y028396D01*
X022166Y028371D01*
X022166Y028321D01*
D12*
X011865Y028661D02*
X011558Y028661D01*
X011865Y028968D01*
X011865Y029044D01*
X011789Y029121D01*
X011635Y029121D01*
X011558Y029044D01*
X011405Y029121D02*
X011405Y028661D01*
X011098Y028661D02*
X011098Y029121D01*
X011251Y028968D01*
X011405Y029121D01*
X010945Y029121D02*
X010791Y029121D01*
X010868Y029121D02*
X010868Y028661D01*
X010791Y028661D02*
X010945Y028661D01*
X010638Y028661D02*
X010638Y029121D01*
X010331Y029121D02*
X010331Y028661D01*
X010638Y028661D02*
X010331Y029121D01*
X005581Y014521D02*
X005341Y014521D01*
X005581Y014521D02*
X005581Y012741D01*
X005341Y012741D01*
X004321Y012741D02*
X004081Y012741D01*
X004081Y014521D01*
X004321Y014521D01*
X012903Y013949D02*
X012903Y011233D01*
X015481Y011233D01*
X015619Y011370D01*
X015619Y013949D01*
X012903Y013949D01*
X018494Y003451D02*
X018648Y003298D01*
X018648Y002991D01*
X018801Y002991D02*
X019108Y002991D01*
X019261Y002991D02*
X019415Y002991D01*
X019338Y002991D02*
X019338Y003451D01*
X019261Y003451D02*
X019415Y003451D01*
X019568Y003451D02*
X019568Y002991D01*
X019875Y002991D01*
X020029Y002991D02*
X020029Y003451D01*
X020336Y002991D01*
X020336Y003451D01*
X020489Y003221D02*
X020796Y003221D01*
X020949Y003374D02*
X021026Y003451D01*
X021180Y003451D01*
X021256Y003374D01*
X021256Y003298D01*
X020949Y002991D01*
X021256Y002991D01*
X021256Y002681D02*
X021486Y002681D01*
X021563Y002604D01*
X021563Y002451D01*
X021486Y002374D01*
X021256Y002374D01*
X021256Y002221D02*
X021256Y002681D01*
X021410Y002374D02*
X021563Y002221D01*
X021717Y002221D02*
X021870Y002221D01*
X021793Y002221D02*
X021793Y002528D01*
X021717Y002528D01*
X021793Y002681D02*
X021793Y002758D01*
X021870Y002991D02*
X021870Y003451D01*
X022177Y003451D01*
X022331Y003451D02*
X022407Y003451D01*
X022407Y002991D01*
X022331Y002991D02*
X022484Y002991D01*
X022637Y002991D02*
X022791Y002991D01*
X022714Y002991D02*
X022714Y003298D01*
X022637Y003298D01*
X022714Y003451D02*
X022714Y003528D01*
X023021Y003298D02*
X022944Y003221D01*
X022944Y003067D01*
X023021Y002991D01*
X023251Y002991D01*
X023251Y002914D02*
X023251Y003298D01*
X023021Y003298D01*
X023405Y003221D02*
X023481Y003298D01*
X023635Y003298D01*
X023712Y003221D01*
X023712Y002991D01*
X023942Y003067D02*
X023942Y003374D01*
X024018Y003298D02*
X023865Y003298D01*
X023942Y003067D02*
X024018Y002991D01*
X024632Y003067D02*
X024632Y003374D01*
X024709Y003451D01*
X024862Y003451D01*
X024939Y003374D01*
X025093Y003221D02*
X025093Y003067D01*
X025169Y002991D01*
X025323Y002991D01*
X025399Y003067D01*
X025399Y003221D01*
X025323Y003298D01*
X025169Y003298D01*
X025093Y003221D01*
X024939Y003067D02*
X024862Y002991D01*
X024709Y002991D01*
X024632Y003067D01*
X024862Y002681D02*
X024786Y002604D01*
X024862Y002681D02*
X025016Y002681D01*
X025093Y002604D01*
X025093Y002528D01*
X024786Y002221D01*
X025093Y002221D01*
X025246Y002297D02*
X025553Y002604D01*
X025553Y002297D01*
X025476Y002221D01*
X025323Y002221D01*
X025246Y002297D01*
X025246Y002604D01*
X025323Y002681D01*
X025476Y002681D01*
X025553Y002604D01*
X025706Y002528D02*
X025860Y002681D01*
X025860Y002221D01*
X026013Y002221D02*
X025706Y002221D01*
X025783Y001911D02*
X025783Y001527D01*
X025706Y001451D01*
X025553Y001451D01*
X025476Y001527D01*
X025476Y001911D01*
X025937Y001911D02*
X025937Y001451D01*
X025937Y001604D02*
X026244Y001911D01*
X026243Y002221D02*
X026167Y002297D01*
X026474Y002604D01*
X026474Y002297D01*
X026397Y002221D01*
X026243Y002221D01*
X026167Y002297D02*
X026167Y002604D01*
X026243Y002681D01*
X026397Y002681D01*
X026474Y002604D01*
X026550Y002991D02*
X026781Y002991D01*
X026781Y003298D01*
X026934Y003298D02*
X027087Y003298D01*
X027011Y003374D02*
X027011Y003067D01*
X027087Y002991D01*
X027241Y003067D02*
X027241Y003221D01*
X027318Y003298D01*
X027471Y003298D01*
X027548Y003221D01*
X027548Y003144D01*
X027241Y003144D01*
X027241Y003067D02*
X027318Y002991D01*
X027471Y002991D01*
X027701Y002991D02*
X027701Y003298D01*
X027701Y003144D02*
X027855Y003298D01*
X027931Y003298D01*
X028085Y003298D02*
X028085Y003221D01*
X028162Y003221D01*
X028162Y003298D01*
X028085Y003298D01*
X028085Y003067D02*
X028085Y002991D01*
X028162Y002991D01*
X028162Y003067D01*
X028085Y003067D01*
X028775Y003298D02*
X028852Y003374D01*
X028852Y003528D01*
X029006Y003528D02*
X029006Y003374D01*
X028929Y003298D01*
X029159Y003221D02*
X029466Y003221D01*
X029619Y003221D02*
X029926Y003221D01*
X029926Y003298D02*
X029926Y002991D01*
X030080Y002991D02*
X030080Y003451D01*
X029926Y003298D02*
X029773Y003451D01*
X029619Y003298D01*
X029619Y002991D01*
X029466Y002991D02*
X029466Y003451D01*
X029159Y003451D02*
X029159Y002991D01*
X030080Y002991D02*
X030233Y003144D01*
X030387Y002991D01*
X030387Y003451D01*
X030540Y003451D02*
X030540Y002991D01*
X030540Y003144D02*
X030847Y003451D01*
X031000Y003298D02*
X031077Y003374D01*
X031077Y003528D01*
X031231Y003528D02*
X031231Y003374D01*
X031154Y003298D01*
X030847Y002991D02*
X030617Y003221D01*
X026550Y002991D02*
X026474Y003067D01*
X026474Y003298D01*
X026320Y003221D02*
X026320Y003067D01*
X026243Y002991D01*
X026013Y002991D01*
X025860Y002991D02*
X025860Y003221D01*
X025783Y003298D01*
X025706Y003221D01*
X025706Y002991D01*
X025553Y002991D02*
X025553Y003298D01*
X025630Y003298D01*
X025706Y003221D01*
X026013Y003298D02*
X026013Y002837D01*
X026013Y003298D02*
X026243Y003298D01*
X026320Y003221D01*
X026013Y001681D02*
X026244Y001451D01*
X024862Y001527D02*
X024786Y001451D01*
X024632Y001451D01*
X024556Y001527D01*
X024862Y001834D01*
X024862Y001527D01*
X024556Y001527D02*
X024556Y001834D01*
X024632Y001911D01*
X024786Y001911D01*
X024862Y001834D01*
X024402Y001527D02*
X024402Y001451D01*
X024325Y001451D01*
X024325Y001527D01*
X024402Y001527D01*
X024172Y001451D02*
X023865Y001451D01*
X024172Y001758D01*
X024172Y001834D01*
X024095Y001911D01*
X023942Y001911D01*
X023865Y001834D01*
X023251Y001758D02*
X023251Y001451D01*
X023251Y001681D02*
X022944Y001681D01*
X022944Y001758D02*
X023098Y001911D01*
X023251Y001758D01*
X022944Y001758D02*
X022944Y001451D01*
X022791Y001527D02*
X022714Y001451D01*
X022561Y001451D01*
X022484Y001527D01*
X022561Y001681D02*
X022484Y001758D01*
X022484Y001834D01*
X022561Y001911D01*
X022714Y001911D01*
X022791Y001834D01*
X022714Y001681D02*
X022791Y001604D01*
X022791Y001527D01*
X022714Y001681D02*
X022561Y001681D01*
X022331Y001681D02*
X022024Y001681D01*
X021870Y001834D02*
X021793Y001911D01*
X021640Y001911D01*
X021563Y001834D01*
X021563Y001527D01*
X021640Y001451D01*
X021793Y001451D01*
X021870Y001527D01*
X021410Y001451D02*
X021410Y001911D01*
X021103Y001911D02*
X021410Y001451D01*
X021103Y001451D02*
X021103Y001911D01*
X020949Y001681D02*
X020643Y001681D01*
X020489Y001834D02*
X020489Y001911D01*
X020489Y001834D02*
X020336Y001681D01*
X020336Y001451D01*
X020336Y001681D02*
X020182Y001834D01*
X020182Y001911D01*
X020029Y001834D02*
X020029Y001758D01*
X019952Y001681D01*
X019722Y001681D01*
X019568Y001681D02*
X019261Y001681D01*
X019108Y001834D02*
X019031Y001911D01*
X018878Y001911D01*
X018801Y001834D01*
X018801Y001527D01*
X018878Y001451D01*
X019031Y001451D01*
X019108Y001527D01*
X018648Y001527D02*
X018571Y001451D01*
X018417Y001451D01*
X018341Y001527D01*
X018341Y001834D01*
X018417Y001911D01*
X018571Y001911D01*
X018648Y001834D01*
X018571Y002221D02*
X018341Y002221D01*
X018341Y002681D01*
X018571Y002681D01*
X018648Y002604D01*
X018648Y002297D01*
X018571Y002221D01*
X018801Y002297D02*
X018878Y002374D01*
X019108Y002374D01*
X019108Y002451D02*
X019108Y002221D01*
X018878Y002221D01*
X018801Y002297D01*
X018878Y002528D02*
X019031Y002528D01*
X019108Y002451D01*
X019261Y002528D02*
X019492Y002528D01*
X019568Y002451D01*
X019568Y002221D01*
X019722Y002221D02*
X019875Y002221D01*
X019799Y002221D02*
X019799Y002528D01*
X019722Y002528D01*
X019799Y002681D02*
X019799Y002758D01*
X020105Y002528D02*
X020259Y002528D01*
X020336Y002451D01*
X020336Y002374D01*
X020029Y002374D01*
X020029Y002297D02*
X020029Y002451D01*
X020105Y002528D01*
X020029Y002297D02*
X020105Y002221D01*
X020259Y002221D01*
X020489Y002221D02*
X020643Y002221D01*
X020566Y002221D02*
X020566Y002681D01*
X020489Y002681D01*
X019722Y003221D02*
X019568Y003221D01*
X019568Y003451D02*
X019875Y003451D01*
X018801Y003451D02*
X018801Y002991D01*
X018648Y003221D02*
X018341Y003221D01*
X018341Y003298D02*
X018494Y003451D01*
X018341Y003298D02*
X018341Y002991D01*
X019261Y002528D02*
X019261Y002221D01*
X019722Y001911D02*
X019952Y001911D01*
X020029Y001834D01*
X019952Y001681D02*
X020029Y001604D01*
X020029Y001527D01*
X019952Y001451D01*
X019722Y001451D01*
X019722Y001911D01*
X022024Y002297D02*
X022100Y002221D01*
X022330Y002221D01*
X022484Y002221D02*
X022484Y002681D01*
X022561Y002528D02*
X022484Y002451D01*
X022561Y002528D02*
X022714Y002528D01*
X022791Y002451D01*
X022791Y002221D01*
X022944Y002221D02*
X022944Y002528D01*
X023021Y002528D01*
X023098Y002451D01*
X023174Y002528D01*
X023251Y002451D01*
X023251Y002221D01*
X023098Y002221D02*
X023098Y002451D01*
X023405Y002297D02*
X023481Y002374D01*
X023712Y002374D01*
X023712Y002451D02*
X023712Y002221D01*
X023481Y002221D01*
X023405Y002297D01*
X023481Y002528D02*
X023635Y002528D01*
X023712Y002451D01*
X023865Y002528D02*
X024095Y002528D01*
X024172Y002451D01*
X024172Y002221D01*
X023865Y002221D02*
X023865Y002528D01*
X023251Y002914D02*
X023174Y002837D01*
X023098Y002837D01*
X023405Y002991D02*
X023405Y003451D01*
X022330Y002528D02*
X022100Y002528D01*
X022024Y002451D01*
X022024Y002297D01*
X022024Y003221D02*
X021870Y003221D01*
D13*
X018101Y003701D02*
X018101Y001201D01*
X031501Y001201D01*
X031501Y003701D01*
X018101Y003701D01*
X012111Y024391D02*
X012109Y024322D01*
X012103Y024253D01*
X012094Y024185D01*
X012081Y024118D01*
X012064Y024051D01*
X012043Y023985D01*
X012019Y023921D01*
X011991Y023858D01*
X011960Y023796D01*
X011926Y023736D01*
X011888Y023679D01*
X011847Y023623D01*
X011804Y023570D01*
X011757Y023519D01*
X011708Y023471D01*
X011656Y023426D01*
X011601Y023384D01*
X011545Y023345D01*
X011486Y023308D01*
X011425Y023276D01*
X011363Y023246D01*
X011299Y023220D01*
X011234Y023198D01*
X011168Y023179D01*
X011101Y023164D01*
X011033Y023153D01*
X010964Y023145D01*
X010895Y023141D01*
X010827Y023141D01*
X010758Y023145D01*
X010689Y023153D01*
X010621Y023164D01*
X010554Y023179D01*
X010488Y023198D01*
X010423Y023220D01*
X010359Y023246D01*
X010297Y023276D01*
X010236Y023308D01*
X010177Y023345D01*
X010121Y023384D01*
X010066Y023426D01*
X010014Y023471D01*
X009965Y023519D01*
X009918Y023570D01*
X009875Y023623D01*
X009834Y023679D01*
X009796Y023736D01*
X009762Y023796D01*
X009731Y023858D01*
X009703Y023921D01*
X009679Y023985D01*
X009658Y024051D01*
X009641Y024118D01*
X009628Y024185D01*
X009619Y024253D01*
X009613Y024322D01*
X009611Y024391D01*
X010361Y024891D02*
X010361Y026391D01*
X011361Y026391D02*
X011361Y024891D01*
X008361Y024891D02*
X008364Y025014D01*
X008373Y025136D01*
X008388Y025258D01*
X008409Y025379D01*
X008436Y025498D01*
X008469Y025617D01*
X008507Y025733D01*
X008551Y025848D01*
X008601Y025960D01*
X008656Y026069D01*
X008717Y026176D01*
X008782Y026280D01*
X008853Y026380D01*
X008928Y026477D01*
X009009Y026570D01*
X009093Y026659D01*
X009182Y026743D01*
X009275Y026824D01*
X009372Y026899D01*
X009472Y026970D01*
X009576Y027035D01*
X009683Y027096D01*
X009792Y027151D01*
X009904Y027201D01*
X010019Y027245D01*
X010135Y027283D01*
X010254Y027316D01*
X010373Y027343D01*
X010494Y027364D01*
X010616Y027379D01*
X010738Y027388D01*
X010861Y027391D01*
X010984Y027388D01*
X011106Y027379D01*
X011228Y027364D01*
X011349Y027343D01*
X011468Y027316D01*
X011587Y027283D01*
X011703Y027245D01*
X011818Y027201D01*
X011930Y027151D01*
X012039Y027096D01*
X012146Y027035D01*
X012250Y026970D01*
X012350Y026899D01*
X012447Y026824D01*
X012540Y026743D01*
X012629Y026659D01*
X012713Y026570D01*
X012794Y026477D01*
X012869Y026380D01*
X012940Y026280D01*
X013005Y026176D01*
X013066Y026069D01*
X013121Y025960D01*
X013171Y025848D01*
X013215Y025733D01*
X013253Y025617D01*
X013286Y025498D01*
X013313Y025379D01*
X013334Y025258D01*
X013349Y025136D01*
X013358Y025014D01*
X013361Y024891D01*
X013358Y024768D01*
X013349Y024646D01*
X013334Y024524D01*
X013313Y024403D01*
X013286Y024284D01*
X013253Y024165D01*
X013215Y024049D01*
X013171Y023934D01*
X013121Y023822D01*
X013066Y023713D01*
X013005Y023606D01*
X012940Y023502D01*
X012869Y023402D01*
X012794Y023305D01*
X012713Y023212D01*
X012629Y023123D01*
X012540Y023039D01*
X012447Y022958D01*
X012350Y022883D01*
X012250Y022812D01*
X012146Y022747D01*
X012039Y022686D01*
X011930Y022631D01*
X011818Y022581D01*
X011703Y022537D01*
X011587Y022499D01*
X011468Y022466D01*
X011349Y022439D01*
X011228Y022418D01*
X011106Y022403D01*
X010984Y022394D01*
X010861Y022391D01*
X010738Y022394D01*
X010616Y022403D01*
X010494Y022418D01*
X010373Y022439D01*
X010254Y022466D01*
X010135Y022499D01*
X010019Y022537D01*
X009904Y022581D01*
X009792Y022631D01*
X009683Y022686D01*
X009576Y022747D01*
X009472Y022812D01*
X009372Y022883D01*
X009275Y022958D01*
X009182Y023039D01*
X009093Y023123D01*
X009009Y023212D01*
X008928Y023305D01*
X008853Y023402D01*
X008782Y023502D01*
X008717Y023606D01*
X008656Y023713D01*
X008601Y023822D01*
X008551Y023934D01*
X008507Y024049D01*
X008469Y024165D01*
X008436Y024284D01*
X008409Y024403D01*
X008388Y024524D01*
X008373Y024646D01*
X008364Y024768D01*
X008361Y024891D01*
D14*
X024375Y026436D02*
X024377Y026456D01*
X024382Y026476D01*
X024392Y026494D01*
X024404Y026511D01*
X024419Y026525D01*
X024437Y026535D01*
X024456Y026543D01*
X024476Y026547D01*
X024496Y026547D01*
X024516Y026543D01*
X024535Y026535D01*
X024553Y026525D01*
X024568Y026511D01*
X024580Y026494D01*
X024590Y026476D01*
X024595Y026456D01*
X024597Y026436D01*
X024595Y026416D01*
X024590Y026396D01*
X024580Y026378D01*
X024568Y026361D01*
X024553Y026347D01*
X024535Y026337D01*
X024516Y026329D01*
X024496Y026325D01*
X024476Y026325D01*
X024456Y026329D01*
X024437Y026337D01*
X024419Y026347D01*
X024404Y026361D01*
X024392Y026378D01*
X024382Y026396D01*
X024377Y026416D01*
X024375Y026436D01*
D15*
X024171Y026593D02*
X024329Y026751D01*
X027793Y026751D01*
X027951Y026593D01*
X027951Y023129D01*
X027793Y022971D01*
X024329Y022971D01*
X024171Y023129D01*
X024171Y026593D01*
X024179Y028164D02*
X023824Y028519D01*
X023824Y029857D01*
X024238Y029857D01*
X025045Y029661D02*
X025090Y029633D01*
X025132Y029602D01*
X025172Y029569D01*
X025210Y029532D01*
X025245Y029494D01*
X025277Y029452D01*
X025307Y029409D01*
X025333Y029363D01*
X025356Y029316D01*
X025376Y029268D01*
X025392Y029218D01*
X025405Y029167D01*
X025414Y029115D01*
X025419Y029063D01*
X025421Y029011D01*
X025419Y028959D01*
X025414Y028907D01*
X025405Y028855D01*
X025392Y028804D01*
X025376Y028754D01*
X025356Y028706D01*
X025333Y028659D01*
X025307Y028613D01*
X025277Y028570D01*
X025245Y028528D01*
X025210Y028490D01*
X025172Y028453D01*
X025132Y028420D01*
X025090Y028389D01*
X025045Y028361D01*
X025104Y028164D02*
X025163Y028164D01*
X025517Y028519D01*
X025517Y029857D01*
X025104Y029857D01*
X024297Y029661D02*
X024252Y029633D01*
X024210Y029602D01*
X024170Y029569D01*
X024132Y029532D01*
X024097Y029494D01*
X024065Y029452D01*
X024035Y029409D01*
X024009Y029363D01*
X023986Y029316D01*
X023966Y029268D01*
X023950Y029218D01*
X023937Y029167D01*
X023928Y029115D01*
X023923Y029063D01*
X023921Y029011D01*
X023923Y028959D01*
X023928Y028907D01*
X023937Y028855D01*
X023950Y028804D01*
X023966Y028754D01*
X023986Y028706D01*
X024009Y028659D01*
X024035Y028613D01*
X024065Y028570D01*
X024097Y028528D01*
X024132Y028490D01*
X024170Y028453D01*
X024210Y028420D01*
X024252Y028389D01*
X024297Y028361D01*
X024257Y028164D02*
X024179Y028164D01*
X021167Y028589D02*
X020813Y028234D01*
X020754Y028234D01*
X021167Y028589D02*
X021167Y029927D01*
X020754Y029927D01*
X020903Y030624D02*
X021257Y030979D01*
X021257Y031057D01*
X020903Y030624D02*
X019564Y030624D01*
X019564Y031038D01*
X019564Y031904D02*
X019564Y032317D01*
X020903Y032317D01*
X021257Y031963D01*
X021257Y031904D01*
X021061Y031845D02*
X021033Y031890D01*
X021002Y031932D01*
X020969Y031972D01*
X020932Y032010D01*
X020894Y032045D01*
X020852Y032077D01*
X020809Y032107D01*
X020763Y032133D01*
X020716Y032156D01*
X020668Y032176D01*
X020618Y032192D01*
X020567Y032205D01*
X020515Y032214D01*
X020463Y032219D01*
X020411Y032221D01*
X020359Y032219D01*
X020307Y032214D01*
X020255Y032205D01*
X020204Y032192D01*
X020154Y032176D01*
X020106Y032156D01*
X020059Y032133D01*
X020013Y032107D01*
X019970Y032077D01*
X019928Y032045D01*
X019890Y032010D01*
X019853Y031972D01*
X019820Y031932D01*
X019789Y031890D01*
X019761Y031845D01*
X019761Y031097D02*
X019789Y031052D01*
X019820Y031010D01*
X019853Y030970D01*
X019890Y030932D01*
X019928Y030897D01*
X019970Y030865D01*
X020013Y030835D01*
X020059Y030809D01*
X020106Y030786D01*
X020154Y030766D01*
X020204Y030750D01*
X020255Y030737D01*
X020307Y030728D01*
X020359Y030723D01*
X020411Y030721D01*
X020463Y030723D01*
X020515Y030728D01*
X020567Y030737D01*
X020618Y030750D01*
X020668Y030766D01*
X020716Y030786D01*
X020763Y030809D01*
X020809Y030835D01*
X020852Y030865D01*
X020894Y030897D01*
X020932Y030932D01*
X020969Y030970D01*
X021002Y031010D01*
X021033Y031052D01*
X021061Y031097D01*
X019888Y029927D02*
X019474Y029927D01*
X019474Y028589D01*
X019829Y028234D01*
X019907Y028234D01*
X020695Y028431D02*
X020740Y028459D01*
X020782Y028490D01*
X020822Y028523D01*
X020860Y028560D01*
X020895Y028598D01*
X020927Y028640D01*
X020957Y028683D01*
X020983Y028729D01*
X021006Y028776D01*
X021026Y028824D01*
X021042Y028874D01*
X021055Y028925D01*
X021064Y028977D01*
X021069Y029029D01*
X021071Y029081D01*
X021069Y029133D01*
X021064Y029185D01*
X021055Y029237D01*
X021042Y029288D01*
X021026Y029338D01*
X021006Y029386D01*
X020983Y029433D01*
X020957Y029479D01*
X020927Y029522D01*
X020895Y029564D01*
X020860Y029602D01*
X020822Y029639D01*
X020782Y029672D01*
X020740Y029703D01*
X020695Y029731D01*
X019947Y029731D02*
X019902Y029703D01*
X019860Y029672D01*
X019820Y029639D01*
X019782Y029602D01*
X019747Y029564D01*
X019715Y029522D01*
X019685Y029479D01*
X019659Y029433D01*
X019636Y029386D01*
X019616Y029338D01*
X019600Y029288D01*
X019587Y029237D01*
X019578Y029185D01*
X019573Y029133D01*
X019571Y029081D01*
X019573Y029029D01*
X019578Y028977D01*
X019587Y028925D01*
X019600Y028874D01*
X019616Y028824D01*
X019636Y028776D01*
X019659Y028729D01*
X019685Y028683D01*
X019715Y028640D01*
X019747Y028598D01*
X019782Y028560D01*
X019820Y028523D01*
X019860Y028490D01*
X019902Y028459D01*
X019947Y028431D01*
X009667Y019837D02*
X009667Y018499D01*
X009313Y018144D01*
X009254Y018144D01*
X008407Y018144D02*
X008329Y018144D01*
X007974Y018499D01*
X007974Y019837D01*
X008388Y019837D01*
X009254Y019837D02*
X009667Y019837D01*
X009195Y019641D02*
X009240Y019613D01*
X009282Y019582D01*
X009322Y019549D01*
X009360Y019512D01*
X009395Y019474D01*
X009427Y019432D01*
X009457Y019389D01*
X009483Y019343D01*
X009506Y019296D01*
X009526Y019248D01*
X009542Y019198D01*
X009555Y019147D01*
X009564Y019095D01*
X009569Y019043D01*
X009571Y018991D01*
X009569Y018939D01*
X009564Y018887D01*
X009555Y018835D01*
X009542Y018784D01*
X009526Y018734D01*
X009506Y018686D01*
X009483Y018639D01*
X009457Y018593D01*
X009427Y018550D01*
X009395Y018508D01*
X009360Y018470D01*
X009322Y018433D01*
X009282Y018400D01*
X009240Y018369D01*
X009195Y018341D01*
X008447Y018341D02*
X008402Y018369D01*
X008360Y018400D01*
X008320Y018433D01*
X008282Y018470D01*
X008247Y018508D01*
X008215Y018550D01*
X008185Y018593D01*
X008159Y018639D01*
X008136Y018686D01*
X008116Y018734D01*
X008100Y018784D01*
X008087Y018835D01*
X008078Y018887D01*
X008073Y018939D01*
X008071Y018991D01*
X008073Y019043D01*
X008078Y019095D01*
X008087Y019147D01*
X008100Y019198D01*
X008116Y019248D01*
X008136Y019296D01*
X008159Y019343D01*
X008185Y019389D01*
X008215Y019432D01*
X008247Y019474D01*
X008282Y019512D01*
X008320Y019549D01*
X008360Y019582D01*
X008402Y019613D01*
X008447Y019641D01*
X006841Y019661D02*
X006841Y017081D01*
X005441Y017081D01*
X005441Y019661D01*
X006841Y019661D01*
X004603Y016807D02*
X004957Y016453D01*
X004957Y016394D01*
X004603Y016807D02*
X003264Y016807D01*
X003264Y016394D01*
X003264Y015528D02*
X003264Y015114D01*
X004603Y015114D01*
X004957Y015469D01*
X004957Y015547D01*
X004761Y016335D02*
X004733Y016380D01*
X004702Y016422D01*
X004669Y016462D01*
X004632Y016500D01*
X004594Y016535D01*
X004552Y016567D01*
X004509Y016597D01*
X004463Y016623D01*
X004416Y016646D01*
X004368Y016666D01*
X004318Y016682D01*
X004267Y016695D01*
X004215Y016704D01*
X004163Y016709D01*
X004111Y016711D01*
X004059Y016709D01*
X004007Y016704D01*
X003955Y016695D01*
X003904Y016682D01*
X003854Y016666D01*
X003806Y016646D01*
X003759Y016623D01*
X003713Y016597D01*
X003670Y016567D01*
X003628Y016535D01*
X003590Y016500D01*
X003553Y016462D01*
X003520Y016422D01*
X003489Y016380D01*
X003461Y016335D01*
X003461Y015587D02*
X003489Y015542D01*
X003520Y015500D01*
X003553Y015460D01*
X003590Y015422D01*
X003628Y015387D01*
X003670Y015355D01*
X003713Y015325D01*
X003759Y015299D01*
X003806Y015276D01*
X003854Y015256D01*
X003904Y015240D01*
X003955Y015227D01*
X004007Y015218D01*
X004059Y015213D01*
X004111Y015211D01*
X004163Y015213D01*
X004215Y015218D01*
X004267Y015227D01*
X004318Y015240D01*
X004368Y015256D01*
X004416Y015276D01*
X004463Y015299D01*
X004509Y015325D01*
X004552Y015355D01*
X004594Y015387D01*
X004632Y015422D01*
X004669Y015460D01*
X004702Y015500D01*
X004733Y015542D01*
X004761Y015587D01*
X004831Y013758D02*
X004437Y013355D01*
X005224Y013355D01*
X004831Y013758D01*
X004401Y013771D02*
X005261Y013771D01*
X012980Y003880D02*
X013335Y003880D01*
X012705Y002896D02*
X012705Y002069D01*
X015067Y003880D02*
X015421Y003880D01*
X015697Y002896D02*
X015697Y002069D01*
X016604Y004014D02*
X016604Y005353D01*
X016959Y005707D01*
X017018Y005707D01*
X017077Y005511D02*
X017032Y005483D01*
X016990Y005452D01*
X016950Y005419D01*
X016912Y005382D01*
X016877Y005344D01*
X016845Y005302D01*
X016815Y005259D01*
X016789Y005213D01*
X016766Y005166D01*
X016746Y005118D01*
X016730Y005068D01*
X016717Y005017D01*
X016708Y004965D01*
X016703Y004913D01*
X016701Y004861D01*
X016703Y004809D01*
X016708Y004757D01*
X016717Y004705D01*
X016730Y004654D01*
X016746Y004604D01*
X016766Y004556D01*
X016789Y004509D01*
X016815Y004463D01*
X016845Y004420D01*
X016877Y004378D01*
X016912Y004340D01*
X016950Y004303D01*
X016990Y004270D01*
X017032Y004239D01*
X017077Y004211D01*
X017018Y004014D02*
X016604Y004014D01*
X017825Y004211D02*
X017870Y004239D01*
X017912Y004270D01*
X017952Y004303D01*
X017990Y004340D01*
X018025Y004378D01*
X018057Y004420D01*
X018087Y004463D01*
X018113Y004509D01*
X018136Y004556D01*
X018156Y004604D01*
X018172Y004654D01*
X018185Y004705D01*
X018194Y004757D01*
X018199Y004809D01*
X018201Y004861D01*
X018199Y004913D01*
X018194Y004965D01*
X018185Y005017D01*
X018172Y005068D01*
X018156Y005118D01*
X018136Y005166D01*
X018113Y005213D01*
X018087Y005259D01*
X018057Y005302D01*
X018025Y005344D01*
X017990Y005382D01*
X017952Y005419D01*
X017912Y005452D01*
X017870Y005483D01*
X017825Y005511D01*
X017864Y005707D02*
X017943Y005707D01*
X018297Y005353D01*
X018297Y004014D01*
X017884Y004014D01*
X025674Y008479D02*
X026029Y008124D01*
X026107Y008124D01*
X025674Y008479D02*
X025674Y009817D01*
X026088Y009817D01*
X026954Y009817D02*
X027367Y009817D01*
X027367Y008479D01*
X027013Y008124D01*
X026954Y008124D01*
X026895Y008321D02*
X026940Y008349D01*
X026982Y008380D01*
X027022Y008413D01*
X027060Y008450D01*
X027095Y008488D01*
X027127Y008530D01*
X027157Y008573D01*
X027183Y008619D01*
X027206Y008666D01*
X027226Y008714D01*
X027242Y008764D01*
X027255Y008815D01*
X027264Y008867D01*
X027269Y008919D01*
X027271Y008971D01*
X027269Y009023D01*
X027264Y009075D01*
X027255Y009127D01*
X027242Y009178D01*
X027226Y009228D01*
X027206Y009276D01*
X027183Y009323D01*
X027157Y009369D01*
X027127Y009412D01*
X027095Y009454D01*
X027060Y009492D01*
X027022Y009529D01*
X026982Y009562D01*
X026940Y009593D01*
X026895Y009621D01*
X026147Y009621D02*
X026102Y009593D01*
X026060Y009562D01*
X026020Y009529D01*
X025982Y009492D01*
X025947Y009454D01*
X025915Y009412D01*
X025885Y009369D01*
X025859Y009323D01*
X025836Y009276D01*
X025816Y009228D01*
X025800Y009178D01*
X025787Y009127D01*
X025778Y009075D01*
X025773Y009023D01*
X025771Y008971D01*
X025773Y008919D01*
X025778Y008867D01*
X025787Y008815D01*
X025800Y008764D01*
X025816Y008714D01*
X025836Y008666D01*
X025859Y008619D01*
X025885Y008573D01*
X025915Y008530D01*
X025947Y008488D01*
X025982Y008450D01*
X026020Y008413D01*
X026060Y008380D01*
X026102Y008349D01*
X026147Y008321D01*
X003751Y027868D02*
X003751Y028734D01*
X002924Y029561D02*
X002058Y029561D01*
X001231Y028734D02*
X001231Y027868D01*
X002058Y027041D02*
X002924Y027041D01*
X001822Y028301D02*
X001824Y028352D01*
X001830Y028403D01*
X001840Y028453D01*
X001853Y028503D01*
X001871Y028551D01*
X001891Y028598D01*
X001916Y028643D01*
X001944Y028686D01*
X001975Y028727D01*
X002009Y028765D01*
X002046Y028800D01*
X002085Y028833D01*
X002127Y028863D01*
X002171Y028889D01*
X002217Y028911D01*
X002265Y028931D01*
X002314Y028946D01*
X002364Y028958D01*
X002414Y028966D01*
X002465Y028970D01*
X002517Y028970D01*
X002568Y028966D01*
X002618Y028958D01*
X002668Y028946D01*
X002717Y028931D01*
X002765Y028911D01*
X002811Y028889D01*
X002855Y028863D01*
X002897Y028833D01*
X002936Y028800D01*
X002973Y028765D01*
X003007Y028727D01*
X003038Y028686D01*
X003066Y028643D01*
X003091Y028598D01*
X003111Y028551D01*
X003129Y028503D01*
X003142Y028453D01*
X003152Y028403D01*
X003158Y028352D01*
X003160Y028301D01*
X003158Y028250D01*
X003152Y028199D01*
X003142Y028149D01*
X003129Y028099D01*
X003111Y028051D01*
X003091Y028004D01*
X003066Y027959D01*
X003038Y027916D01*
X003007Y027875D01*
X002973Y027837D01*
X002936Y027802D01*
X002897Y027769D01*
X002855Y027739D01*
X002811Y027713D01*
X002765Y027691D01*
X002717Y027671D01*
X002668Y027656D01*
X002618Y027644D01*
X002568Y027636D01*
X002517Y027632D01*
X002465Y027632D01*
X002414Y027636D01*
X002364Y027644D01*
X002314Y027656D01*
X002265Y027671D01*
X002217Y027691D01*
X002171Y027713D01*
X002127Y027739D01*
X002085Y027769D01*
X002046Y027802D01*
X002009Y027837D01*
X001975Y027875D01*
X001944Y027916D01*
X001916Y027959D01*
X001891Y028004D01*
X001871Y028051D01*
X001853Y028099D01*
X001840Y028149D01*
X001830Y028199D01*
X001824Y028250D01*
X001822Y028301D01*
D16*
X015363Y011488D03*
D17*
X007947Y004301D02*
X007911Y004337D01*
X007911Y004521D01*
X008058Y004521D02*
X008058Y004337D01*
X008021Y004301D01*
X007947Y004301D01*
X008132Y004374D02*
X008205Y004301D01*
X008279Y004374D01*
X008279Y004521D01*
X008353Y004484D02*
X008353Y004337D01*
X008389Y004301D01*
X008463Y004301D01*
X008500Y004337D01*
X008574Y004337D02*
X008574Y004484D01*
X008610Y004521D01*
X008684Y004521D01*
X008721Y004484D01*
X008795Y004411D02*
X008941Y004411D01*
X009016Y004484D02*
X009052Y004521D01*
X009126Y004521D01*
X009162Y004484D01*
X009162Y004448D01*
X009126Y004411D01*
X009162Y004374D01*
X009162Y004337D01*
X009126Y004301D01*
X009052Y004301D01*
X009016Y004337D01*
X009089Y004411D02*
X009126Y004411D01*
X009237Y004374D02*
X009237Y004521D01*
X009383Y004521D02*
X009383Y004374D01*
X009310Y004301D01*
X009237Y004374D01*
X009458Y004337D02*
X009494Y004301D01*
X009568Y004301D01*
X009604Y004337D01*
X009604Y004374D01*
X009568Y004411D01*
X009531Y004411D01*
X009568Y004411D02*
X009604Y004448D01*
X009604Y004484D01*
X009568Y004521D01*
X009494Y004521D01*
X009458Y004484D01*
X008721Y004337D02*
X008684Y004301D01*
X008610Y004301D01*
X008574Y004337D01*
X008500Y004484D02*
X008463Y004521D01*
X008389Y004521D01*
X008353Y004484D01*
X008132Y004521D02*
X008132Y004374D01*
X007821Y009044D02*
X007821Y009818D01*
X008981Y009818D01*
X008981Y009044D01*
X007821Y009044D01*
X006561Y009737D02*
X006561Y009811D01*
X006524Y009848D01*
X006341Y009848D01*
X006377Y009922D02*
X006524Y009922D01*
X006561Y009958D01*
X006561Y010032D01*
X006524Y010069D01*
X006561Y010143D02*
X006414Y010143D01*
X006341Y010216D01*
X006414Y010290D01*
X006561Y010290D01*
X006561Y010364D02*
X006341Y010364D01*
X006341Y010474D01*
X006377Y010511D01*
X006451Y010511D01*
X006487Y010474D01*
X006487Y010364D01*
X006451Y010290D02*
X006451Y010143D01*
X006377Y010069D02*
X006341Y010032D01*
X006341Y009958D01*
X006377Y009922D01*
X006341Y009701D02*
X006524Y009701D01*
X006561Y009737D01*
X006451Y010585D02*
X006451Y010731D01*
X006524Y010806D02*
X006561Y010842D01*
X006561Y010916D01*
X006524Y010952D01*
X006487Y010952D01*
X006451Y010916D01*
X006451Y010879D01*
X006451Y010916D02*
X006414Y010952D01*
X006377Y010952D01*
X006341Y010916D01*
X006341Y010842D01*
X006377Y010806D01*
X006341Y011027D02*
X006487Y011027D01*
X006561Y011100D01*
X006487Y011173D01*
X006341Y011173D01*
X006377Y011248D02*
X006341Y011284D01*
X006341Y011358D01*
X006377Y011394D01*
X006414Y011394D01*
X006451Y011358D01*
X006487Y011394D01*
X006524Y011394D01*
X006561Y011358D01*
X006561Y011284D01*
X006524Y011248D01*
X006451Y011321D02*
X006451Y011358D01*
X007741Y012014D02*
X007741Y012788D01*
X008901Y012788D01*
X008901Y012014D01*
X007741Y012014D01*
X010611Y012008D02*
X010611Y011234D01*
X011771Y011234D01*
X011771Y012008D01*
X010611Y012008D01*
X010611Y012054D02*
X010611Y012828D01*
X011771Y012828D01*
X011771Y012054D01*
X010611Y012054D01*
X010611Y011178D02*
X010611Y010404D01*
X011771Y010404D01*
X011771Y011178D01*
X010611Y011178D01*
X013011Y010248D02*
X013011Y009474D01*
X014171Y009474D01*
X014171Y010248D01*
X013011Y010248D01*
X014901Y010238D02*
X014901Y009464D01*
X016061Y009464D01*
X016061Y010238D01*
X014901Y010238D01*
X016574Y010301D02*
X016574Y009141D01*
X017348Y009141D01*
X017348Y010301D01*
X016574Y010301D01*
X016574Y010541D02*
X016574Y011701D01*
X017348Y011701D01*
X017348Y010541D01*
X016574Y010541D01*
X016604Y011991D02*
X016604Y013151D01*
X017378Y013151D01*
X017378Y011991D01*
X016604Y011991D01*
X016411Y013214D02*
X016411Y013988D01*
X017571Y013988D01*
X017571Y013214D01*
X016411Y013214D01*
X016411Y014024D02*
X016411Y014798D01*
X017571Y014798D01*
X017571Y014024D01*
X016411Y014024D01*
X014498Y014931D02*
X014498Y016091D01*
X013724Y016091D01*
X013724Y014931D01*
X014498Y014931D01*
X014498Y016301D02*
X013724Y016301D01*
X013724Y017461D01*
X014498Y017461D01*
X014498Y016301D01*
X012211Y015618D02*
X012211Y014844D01*
X011051Y014844D01*
X011051Y015618D01*
X012211Y015618D01*
X018481Y011381D02*
X018481Y008681D01*
X018781Y008681D02*
X018781Y011381D01*
X019731Y011599D02*
X019746Y011565D01*
X019759Y011529D01*
X019768Y011493D01*
X019775Y011456D01*
X019780Y011419D01*
X019781Y011381D01*
X019781Y008681D01*
X020081Y008681D02*
X020081Y011381D01*
X018831Y011599D02*
X018816Y011565D01*
X018803Y011529D01*
X018794Y011493D01*
X018787Y011456D01*
X018782Y011419D01*
X018781Y011381D01*
X018481Y011381D02*
X018483Y011437D01*
X018489Y011492D01*
X018498Y011547D01*
X018512Y011601D01*
X018529Y011654D01*
X018550Y011705D01*
X018574Y011755D01*
X018602Y011803D01*
X018633Y011850D01*
X018667Y011893D01*
X018704Y011935D01*
X018744Y011974D01*
X018786Y012010D01*
X018831Y012042D01*
X019731Y012042D02*
X019776Y012010D01*
X019818Y011974D01*
X019858Y011935D01*
X019895Y011894D01*
X019929Y011850D01*
X019960Y011803D01*
X019988Y011755D01*
X020012Y011705D01*
X020033Y011654D01*
X020050Y011601D01*
X020064Y011547D01*
X020073Y011492D01*
X020079Y011437D01*
X020081Y011381D01*
X019281Y010431D02*
X019281Y010281D01*
X019281Y009781D02*
X019281Y009631D01*
X018481Y008681D02*
X018483Y008625D01*
X018489Y008570D01*
X018498Y008515D01*
X018512Y008461D01*
X018529Y008408D01*
X018550Y008357D01*
X018574Y008307D01*
X018602Y008259D01*
X018633Y008212D01*
X018667Y008168D01*
X018704Y008127D01*
X018744Y008088D01*
X018786Y008052D01*
X018831Y008020D01*
X019731Y008463D02*
X019746Y008497D01*
X019759Y008533D01*
X019768Y008569D01*
X019775Y008606D01*
X019780Y008643D01*
X019781Y008681D01*
X018831Y008463D02*
X018816Y008497D01*
X018803Y008533D01*
X018794Y008569D01*
X018787Y008606D01*
X018782Y008643D01*
X018781Y008681D01*
X019731Y008020D02*
X019776Y008052D01*
X019818Y008088D01*
X019858Y008127D01*
X019895Y008169D01*
X019929Y008212D01*
X019960Y008259D01*
X019988Y008307D01*
X020012Y008357D01*
X020033Y008408D01*
X020050Y008461D01*
X020064Y008515D01*
X020073Y008570D01*
X020079Y008625D01*
X020081Y008681D01*
X017497Y007864D02*
X017461Y007901D01*
X017387Y007901D01*
X017351Y007864D01*
X017351Y007828D01*
X017387Y007791D01*
X017461Y007791D01*
X017497Y007754D01*
X017497Y007717D01*
X017461Y007681D01*
X017387Y007681D01*
X017351Y007717D01*
X017276Y007717D02*
X017276Y007901D01*
X017130Y007901D02*
X017130Y007717D01*
X017166Y007681D01*
X017240Y007681D01*
X017276Y007717D01*
X017055Y007717D02*
X017019Y007681D01*
X016909Y007681D01*
X016909Y007901D01*
X017019Y007901D01*
X017055Y007864D01*
X017055Y007828D01*
X017019Y007791D01*
X016909Y007791D01*
X016834Y007754D02*
X016834Y007901D01*
X016688Y007901D02*
X016688Y007754D01*
X016761Y007681D01*
X016834Y007754D01*
X017019Y007791D02*
X017055Y007754D01*
X017055Y007717D01*
X016613Y007791D02*
X016467Y007791D01*
X016392Y007901D02*
X016246Y007901D01*
X016246Y007681D01*
X016392Y007681D01*
X016319Y007791D02*
X016246Y007791D01*
X016171Y007681D02*
X016025Y007681D01*
X016025Y007901D01*
X015951Y007864D02*
X015951Y007828D01*
X015914Y007791D01*
X015804Y007791D01*
X015730Y007791D02*
X015583Y007791D01*
X015583Y007828D02*
X015656Y007901D01*
X015730Y007828D01*
X015730Y007681D01*
X015804Y007681D02*
X015914Y007681D01*
X015951Y007717D01*
X015951Y007754D01*
X015914Y007791D01*
X015951Y007864D02*
X015914Y007901D01*
X015804Y007901D01*
X015804Y007681D01*
X015583Y007681D02*
X015583Y007828D01*
X015509Y007901D02*
X015509Y007681D01*
X015362Y007901D01*
X015362Y007681D01*
X015288Y007681D02*
X015141Y007681D01*
X015141Y007901D01*
X015288Y007901D01*
X015214Y007791D02*
X015141Y007791D01*
X015118Y005461D02*
X014344Y005461D01*
X014344Y004301D01*
X015118Y004301D01*
X015118Y005461D01*
X015724Y005461D02*
X016498Y005461D01*
X016498Y004301D01*
X015724Y004301D01*
X015724Y005461D01*
X014038Y005461D02*
X014038Y004301D01*
X013264Y004301D01*
X013264Y005461D01*
X014038Y005461D01*
X024504Y007411D02*
X024504Y008571D01*
X025278Y008571D01*
X025278Y007411D01*
X024504Y007411D01*
X031584Y018511D02*
X032358Y018511D01*
X032358Y019671D01*
X031584Y019671D01*
X031584Y018511D01*
X032674Y018511D02*
X032674Y019671D01*
X033448Y019671D01*
X033448Y018511D01*
X032674Y018511D01*
X029688Y020691D02*
X028914Y020691D01*
X028914Y021851D01*
X029688Y021851D01*
X029688Y020691D01*
X028078Y020691D02*
X027304Y020691D01*
X027304Y021851D01*
X028078Y021851D01*
X028078Y020691D01*
X027258Y020691D02*
X026484Y020691D01*
X026484Y021851D01*
X027258Y021851D01*
X027258Y020691D01*
X028791Y022564D02*
X028791Y023338D01*
X029951Y023338D01*
X029951Y022564D01*
X028791Y022564D01*
X029311Y023374D02*
X029311Y024148D01*
X030471Y024148D01*
X030471Y023374D01*
X029311Y023374D01*
X029071Y024184D02*
X029071Y024958D01*
X030231Y024958D01*
X030231Y024184D01*
X029071Y024184D01*
X029074Y024991D02*
X029074Y026151D01*
X029848Y026151D01*
X029848Y024991D01*
X029074Y024991D01*
X029281Y027064D02*
X028121Y027064D01*
X028121Y027838D01*
X029281Y027838D01*
X029281Y027064D01*
X029181Y028251D02*
X031881Y028251D01*
X031881Y028551D02*
X029181Y028551D01*
X028520Y029501D02*
X028552Y029546D01*
X028588Y029588D01*
X028627Y029628D01*
X028668Y029665D01*
X028712Y029699D01*
X028759Y029730D01*
X028807Y029758D01*
X028857Y029782D01*
X028908Y029803D01*
X028961Y029820D01*
X029015Y029834D01*
X029070Y029843D01*
X029125Y029849D01*
X029181Y029851D01*
X031881Y029851D01*
X031881Y029551D02*
X029181Y029551D01*
X028963Y028601D02*
X028997Y028586D01*
X029033Y028573D01*
X029069Y028564D01*
X029106Y028557D01*
X029143Y028552D01*
X029181Y028551D01*
X028963Y029501D02*
X028997Y029516D01*
X029033Y029529D01*
X029069Y029538D01*
X029106Y029545D01*
X029143Y029550D01*
X029181Y029551D01*
X028520Y028601D02*
X028552Y028556D01*
X028588Y028514D01*
X028627Y028474D01*
X028669Y028437D01*
X028712Y028403D01*
X028759Y028372D01*
X028807Y028344D01*
X028857Y028320D01*
X028908Y028299D01*
X028961Y028282D01*
X029015Y028268D01*
X029070Y028259D01*
X029125Y028253D01*
X029181Y028251D01*
X030131Y029051D02*
X030281Y029051D01*
X030781Y029051D02*
X030931Y029051D01*
X031881Y028251D02*
X031937Y028253D01*
X031992Y028259D01*
X032047Y028268D01*
X032101Y028282D01*
X032154Y028299D01*
X032205Y028320D01*
X032255Y028344D01*
X032303Y028372D01*
X032350Y028403D01*
X032394Y028437D01*
X032435Y028474D01*
X032474Y028514D01*
X032510Y028556D01*
X032542Y028601D01*
X032099Y028601D02*
X032065Y028586D01*
X032029Y028573D01*
X031993Y028564D01*
X031956Y028557D01*
X031919Y028552D01*
X031881Y028551D01*
X032099Y029501D02*
X032065Y029516D01*
X032029Y029529D01*
X031993Y029538D01*
X031956Y029545D01*
X031919Y029550D01*
X031881Y029551D01*
X031881Y029851D02*
X031937Y029849D01*
X031992Y029843D01*
X032047Y029834D01*
X032101Y029820D01*
X032154Y029803D01*
X032205Y029782D01*
X032255Y029758D01*
X032303Y029730D01*
X032350Y029699D01*
X032393Y029665D01*
X032435Y029628D01*
X032474Y029588D01*
X032510Y029546D01*
X032542Y029501D01*
X026781Y029588D02*
X026781Y028814D01*
X025621Y028814D01*
X025621Y029588D01*
X026781Y029588D01*
X026781Y028768D02*
X026781Y027994D01*
X025621Y027994D01*
X025621Y028768D01*
X026781Y028768D01*
X024188Y028051D02*
X024188Y026891D01*
X023414Y026891D01*
X023414Y028051D01*
X024188Y028051D01*
X023168Y028901D02*
X022394Y028901D01*
X022394Y030061D01*
X023168Y030061D01*
X023168Y028901D01*
X022341Y029137D02*
X022304Y029101D01*
X022341Y029137D02*
X022341Y029211D01*
X022304Y029248D01*
X022231Y029248D01*
X022194Y029211D01*
X022194Y029174D01*
X022231Y029101D01*
X022121Y029101D01*
X022121Y029248D01*
X022231Y029322D02*
X022231Y029432D01*
X022267Y029469D01*
X022304Y029469D01*
X022341Y029432D01*
X022341Y029358D01*
X022304Y029322D01*
X022231Y029322D01*
X022157Y029395D01*
X022121Y029469D01*
X022157Y029543D02*
X022121Y029579D01*
X022121Y029653D01*
X022157Y029690D01*
X022304Y029543D01*
X022341Y029579D01*
X022341Y029653D01*
X022304Y029690D01*
X022157Y029690D01*
X022121Y029764D02*
X022121Y029874D01*
X022157Y029911D01*
X022231Y029911D01*
X022267Y029874D01*
X022267Y029764D01*
X022267Y029837D02*
X022341Y029911D01*
X022341Y029764D02*
X022121Y029764D01*
X022157Y029543D02*
X022304Y029543D01*
X019958Y028001D02*
X019958Y026841D01*
X019184Y026841D01*
X019184Y028001D01*
X019958Y028001D01*
X019138Y028001D02*
X019138Y026841D01*
X018364Y026841D01*
X018364Y028001D01*
X019138Y028001D01*
X019118Y028411D02*
X018344Y028411D01*
X018344Y029571D01*
X019118Y029571D01*
X019118Y028411D01*
X022154Y024691D02*
X022928Y024691D01*
X022928Y023531D01*
X022154Y023531D01*
X022154Y024691D01*
X021881Y024197D02*
X021881Y024050D01*
X022101Y024050D01*
X022101Y023976D02*
X021991Y023976D01*
X021954Y023939D01*
X021954Y023829D01*
X022101Y023829D01*
X022064Y023755D02*
X022101Y023718D01*
X022101Y023645D01*
X022064Y023608D01*
X021917Y023755D01*
X022064Y023755D01*
X021917Y023755D02*
X021881Y023718D01*
X021881Y023645D01*
X021917Y023608D01*
X022064Y023608D01*
X022064Y023534D02*
X022101Y023497D01*
X022101Y023424D01*
X022064Y023387D01*
X021917Y023534D01*
X022064Y023534D01*
X021917Y023534D02*
X021881Y023497D01*
X021881Y023424D01*
X021917Y023387D01*
X022064Y023387D01*
X022101Y023313D02*
X022101Y023166D01*
X022101Y023239D02*
X021881Y023239D01*
X021954Y023166D01*
X021991Y024050D02*
X021991Y024123D01*
X021714Y021851D02*
X022488Y021851D01*
X022488Y020691D01*
X021714Y020691D01*
X021714Y021851D01*
X022524Y021851D02*
X022524Y020691D01*
X023298Y020691D01*
X023298Y021851D01*
X022524Y021851D01*
X023334Y021851D02*
X024108Y021851D01*
X024108Y020691D01*
X023334Y020691D01*
X023334Y021851D01*
X024144Y021851D02*
X024918Y021851D01*
X024918Y020691D01*
X024144Y020691D01*
X024144Y021851D01*
X004438Y019551D02*
X004438Y018391D01*
X003664Y018391D01*
X003664Y019551D01*
X004438Y019551D01*
X004438Y018121D02*
X003664Y018121D01*
X003664Y016961D01*
X004438Y016961D01*
X004438Y018121D01*
D18*
X008171Y015781D02*
X008171Y015281D01*
X008421Y015031D01*
X009921Y015031D01*
X010171Y014781D01*
X010171Y014281D01*
X009921Y014031D01*
X010171Y013781D01*
X010171Y013281D01*
X009921Y013031D01*
X008421Y013031D01*
X008171Y013281D01*
X008171Y013781D01*
X008421Y014031D01*
X009921Y014031D01*
X009921Y015031D02*
X010171Y015281D01*
X010171Y015781D01*
X009921Y016031D01*
X008421Y016031D01*
X008171Y015781D01*
X008421Y015031D02*
X008171Y014781D01*
X008171Y014281D01*
X008421Y014031D01*
X007871Y010841D02*
X006771Y010841D01*
X006754Y010839D01*
X006737Y010835D01*
X006721Y010828D01*
X006707Y010818D01*
X006694Y010805D01*
X006684Y010791D01*
X006677Y010775D01*
X006673Y010758D01*
X006671Y010741D01*
X006671Y010141D01*
X006673Y010124D01*
X006677Y010107D01*
X006684Y010091D01*
X006694Y010077D01*
X006707Y010064D01*
X006721Y010054D01*
X006737Y010047D01*
X006754Y010043D01*
X006771Y010041D01*
X007871Y010041D01*
X007888Y010043D01*
X007905Y010047D01*
X007921Y010054D01*
X007935Y010064D01*
X007948Y010077D01*
X007958Y010091D01*
X007965Y010107D01*
X007969Y010124D01*
X007971Y010141D01*
X007971Y010741D01*
X007969Y010758D01*
X007965Y010775D01*
X007958Y010791D01*
X007948Y010805D01*
X007935Y010818D01*
X007921Y010828D01*
X007905Y010835D01*
X007888Y010839D01*
X007871Y010841D01*
X003881Y012521D02*
X003631Y012271D01*
X003131Y012271D01*
X002881Y012521D01*
X002881Y013021D01*
X003131Y013271D01*
X002881Y013521D01*
X002881Y014021D01*
X003131Y014271D01*
X003631Y014271D01*
X003881Y014021D01*
X003881Y013521D01*
X003631Y013271D01*
X003881Y013021D01*
X003881Y012521D01*
X003631Y013271D02*
X003131Y013271D01*
X008201Y005381D02*
X009301Y005381D01*
X009318Y005379D01*
X009335Y005375D01*
X009351Y005368D01*
X009365Y005358D01*
X009378Y005345D01*
X009388Y005331D01*
X009395Y005315D01*
X009399Y005298D01*
X009401Y005281D01*
X009401Y004681D01*
X009399Y004664D01*
X009395Y004647D01*
X009388Y004631D01*
X009378Y004617D01*
X009365Y004604D01*
X009351Y004594D01*
X009335Y004587D01*
X009318Y004583D01*
X009301Y004581D01*
X008201Y004581D01*
X008184Y004583D01*
X008167Y004587D01*
X008151Y004594D01*
X008137Y004604D01*
X008124Y004617D01*
X008114Y004631D01*
X008107Y004647D01*
X008103Y004664D01*
X008101Y004681D01*
X008101Y005281D01*
X008103Y005298D01*
X008107Y005315D01*
X008114Y005331D01*
X008124Y005345D01*
X008137Y005358D01*
X008151Y005368D01*
X008167Y005375D01*
X008184Y005379D01*
X008201Y005381D01*
X015591Y006911D02*
X015591Y007511D01*
X015593Y007528D01*
X015597Y007545D01*
X015604Y007561D01*
X015614Y007575D01*
X015627Y007588D01*
X015641Y007598D01*
X015657Y007605D01*
X015674Y007609D01*
X015691Y007611D01*
X016791Y007611D01*
X016808Y007609D01*
X016825Y007605D01*
X016841Y007598D01*
X016855Y007588D01*
X016868Y007575D01*
X016878Y007561D01*
X016885Y007545D01*
X016889Y007528D01*
X016891Y007511D01*
X016891Y006911D01*
X016889Y006894D01*
X016885Y006877D01*
X016878Y006861D01*
X016868Y006847D01*
X016855Y006834D01*
X016841Y006824D01*
X016825Y006817D01*
X016808Y006813D01*
X016791Y006811D01*
X015691Y006811D01*
X015674Y006813D01*
X015657Y006817D01*
X015641Y006824D01*
X015627Y006834D01*
X015614Y006847D01*
X015604Y006861D01*
X015597Y006877D01*
X015593Y006894D01*
X015591Y006911D01*
X018331Y007881D02*
X018331Y012181D01*
X018333Y012198D01*
X018337Y012215D01*
X018344Y012231D01*
X018354Y012245D01*
X018367Y012258D01*
X018381Y012268D01*
X018397Y012275D01*
X018414Y012279D01*
X018431Y012281D01*
X018831Y012281D01*
X019731Y012281D02*
X020131Y012281D01*
X020148Y012279D01*
X020165Y012275D01*
X020181Y012268D01*
X020195Y012258D01*
X020208Y012245D01*
X020218Y012231D01*
X020225Y012215D01*
X020229Y012198D01*
X020231Y012181D01*
X020231Y007881D01*
X020229Y007864D01*
X020225Y007847D01*
X020218Y007831D01*
X020208Y007817D01*
X020195Y007804D01*
X020181Y007794D01*
X020165Y007787D01*
X020148Y007783D01*
X020131Y007781D01*
X019731Y007781D01*
X018831Y007781D02*
X018431Y007781D01*
X018414Y007783D01*
X018397Y007787D01*
X018381Y007794D01*
X018367Y007804D01*
X018354Y007817D01*
X018344Y007831D01*
X018337Y007847D01*
X018333Y007864D01*
X018331Y007881D01*
X019031Y009781D02*
X019281Y009781D01*
X019531Y009781D01*
X019531Y009931D02*
X019031Y009931D01*
X019031Y010131D01*
X019531Y010131D01*
X019531Y009931D01*
X019531Y010281D02*
X019281Y010281D01*
X019031Y010281D01*
X022221Y016441D02*
X022721Y016441D01*
X022971Y016691D01*
X023221Y016441D01*
X023721Y016441D01*
X023971Y016691D01*
X023971Y017191D01*
X023721Y017441D01*
X023221Y017441D01*
X022971Y017191D01*
X022971Y016691D01*
X022971Y017191D02*
X022721Y017441D01*
X022221Y017441D01*
X021971Y017191D01*
X021971Y016691D01*
X022221Y016441D01*
X023971Y016691D02*
X024221Y016441D01*
X024721Y016441D01*
X024971Y016691D01*
X025221Y016441D01*
X025721Y016441D01*
X025971Y016691D01*
X026221Y016441D01*
X026721Y016441D01*
X026971Y016691D01*
X026971Y017191D01*
X026721Y017441D01*
X026221Y017441D01*
X025971Y017191D01*
X025971Y016691D01*
X025971Y017191D02*
X025721Y017441D01*
X025221Y017441D01*
X024971Y017191D01*
X024971Y016691D01*
X024971Y017191D02*
X024721Y017441D01*
X024221Y017441D01*
X023971Y017191D01*
X026971Y017191D02*
X027221Y017441D01*
X027721Y017441D01*
X027971Y017191D01*
X028221Y017441D01*
X028721Y017441D01*
X028971Y017191D01*
X029221Y017441D01*
X029721Y017441D01*
X029971Y017191D01*
X029971Y016691D01*
X029721Y016441D01*
X029221Y016441D01*
X028971Y016691D01*
X028721Y016441D01*
X028221Y016441D01*
X027971Y016691D01*
X027721Y016441D01*
X027221Y016441D01*
X026971Y016691D01*
X027971Y016691D02*
X027971Y017191D01*
X028971Y017191D02*
X028971Y016691D01*
X029971Y016691D02*
X030221Y016441D01*
X030721Y016441D01*
X030971Y016691D01*
X031221Y016441D01*
X031721Y016441D01*
X031971Y016691D01*
X032221Y016441D01*
X032721Y016441D01*
X032971Y016691D01*
X032971Y017191D01*
X032721Y017441D01*
X032221Y017441D01*
X031971Y017191D01*
X031971Y016691D01*
X031971Y017191D02*
X031721Y017441D01*
X031221Y017441D01*
X030971Y017191D01*
X030971Y016691D01*
X030971Y017191D02*
X030721Y017441D01*
X030221Y017441D01*
X029971Y017191D01*
X026561Y012141D02*
X025461Y012141D01*
X025444Y012139D01*
X025427Y012135D01*
X025411Y012128D01*
X025397Y012118D01*
X025384Y012105D01*
X025374Y012091D01*
X025367Y012075D01*
X025363Y012058D01*
X025361Y012041D01*
X025361Y011441D01*
X025363Y011424D01*
X025367Y011407D01*
X025374Y011391D01*
X025384Y011377D01*
X025397Y011364D01*
X025411Y011354D01*
X025427Y011347D01*
X025444Y011343D01*
X025461Y011341D01*
X026561Y011341D01*
X026578Y011343D01*
X026595Y011347D01*
X026611Y011354D01*
X026625Y011364D01*
X026638Y011377D01*
X026648Y011391D01*
X026655Y011407D01*
X026659Y011424D01*
X026661Y011441D01*
X026661Y012041D01*
X026659Y012058D01*
X026655Y012075D01*
X026648Y012091D01*
X026638Y012105D01*
X026625Y012118D01*
X026611Y012128D01*
X026595Y012135D01*
X026578Y012139D01*
X026561Y012141D01*
X028381Y028101D02*
X032681Y028101D01*
X032698Y028103D01*
X032715Y028107D01*
X032731Y028114D01*
X032745Y028124D01*
X032758Y028137D01*
X032768Y028151D01*
X032775Y028167D01*
X032779Y028184D01*
X032781Y028201D01*
X032781Y028601D01*
X032781Y029501D02*
X032781Y029901D01*
X032779Y029918D01*
X032775Y029935D01*
X032768Y029951D01*
X032758Y029965D01*
X032745Y029978D01*
X032731Y029988D01*
X032715Y029995D01*
X032698Y029999D01*
X032681Y030001D01*
X028381Y030001D01*
X028364Y029999D01*
X028347Y029995D01*
X028331Y029988D01*
X028317Y029978D01*
X028304Y029965D01*
X028294Y029951D01*
X028287Y029935D01*
X028283Y029918D01*
X028281Y029901D01*
X028281Y029501D01*
X028221Y030441D02*
X028721Y030441D01*
X028971Y030691D01*
X029221Y030441D01*
X029721Y030441D01*
X029971Y030691D01*
X029971Y031191D01*
X029721Y031441D01*
X029221Y031441D01*
X028971Y031191D01*
X028971Y030691D01*
X028971Y031191D02*
X028721Y031441D01*
X028221Y031441D01*
X027971Y031191D01*
X027971Y030691D01*
X028221Y030441D01*
X027971Y030691D02*
X027721Y030441D01*
X027221Y030441D01*
X026971Y030691D01*
X026721Y030441D01*
X026221Y030441D01*
X025971Y030691D01*
X025721Y030441D01*
X025221Y030441D01*
X024971Y030691D01*
X024721Y030441D01*
X024221Y030441D01*
X023971Y030691D01*
X023721Y030441D01*
X023221Y030441D01*
X022971Y030691D01*
X022721Y030441D01*
X022221Y030441D01*
X021971Y030691D01*
X021971Y031191D01*
X022221Y031441D01*
X022721Y031441D01*
X022971Y031191D01*
X023221Y031441D01*
X023721Y031441D01*
X023971Y031191D01*
X023971Y030691D01*
X023971Y031191D02*
X024221Y031441D01*
X024721Y031441D01*
X024971Y031191D01*
X025221Y031441D01*
X025721Y031441D01*
X025971Y031191D01*
X026221Y031441D01*
X026721Y031441D01*
X026971Y031191D01*
X026971Y030691D01*
X026971Y031191D02*
X027221Y031441D01*
X027721Y031441D01*
X027971Y031191D01*
X029971Y031191D02*
X030221Y031441D01*
X030721Y031441D01*
X030971Y031191D01*
X031221Y031441D01*
X031721Y031441D01*
X031971Y031191D01*
X032221Y031441D01*
X032721Y031441D01*
X032971Y031191D01*
X032971Y030691D01*
X032721Y030441D01*
X032221Y030441D01*
X031971Y030691D01*
X031721Y030441D01*
X031221Y030441D01*
X030971Y030691D01*
X030721Y030441D01*
X030221Y030441D01*
X029971Y030691D01*
X030971Y030691D02*
X030971Y031191D01*
X031971Y031191D02*
X031971Y030691D01*
X030781Y029301D02*
X030781Y029051D01*
X030781Y028801D01*
X030631Y028801D02*
X030631Y029301D01*
X030431Y029301D01*
X030431Y028801D01*
X030631Y028801D01*
X030281Y028801D02*
X030281Y029051D01*
X030281Y029301D01*
X028281Y028601D02*
X028281Y028201D01*
X028283Y028184D01*
X028287Y028167D01*
X028294Y028151D01*
X028304Y028137D01*
X028317Y028124D01*
X028331Y028114D01*
X028347Y028107D01*
X028364Y028103D01*
X028381Y028101D01*
X025971Y030691D02*
X025971Y031191D01*
X024971Y031191D02*
X024971Y030691D01*
X022971Y030691D02*
X022971Y031191D01*
D19*
X009692Y012667D03*
X009692Y012195D03*
X009692Y011847D03*
X009692Y011375D03*
X009692Y011027D03*
X009692Y010555D03*
D20*
X009692Y010791D03*
X009692Y011611D03*
X009692Y012431D03*
X022301Y027522D03*
X023101Y027630D03*
X027691Y019672D03*
X024891Y009440D03*
D21*
X025127Y009440D03*
X024655Y009440D03*
X027455Y019672D03*
X027927Y019672D03*
X022537Y027522D03*
X022865Y027630D03*
X023337Y027630D03*
X022065Y027522D03*
D22*
X005446Y014056D03*
X004216Y014056D03*
D23*
X004791Y020821D02*
X017791Y020821D01*
X017791Y029821D01*
X004791Y029821D01*
X004791Y020821D01*
X022481Y006307D02*
X022479Y006236D01*
X022474Y006165D01*
X022466Y006095D01*
X022454Y006025D01*
X022439Y005956D01*
X022420Y005887D01*
X022399Y005820D01*
X022374Y005753D01*
X022346Y005688D01*
X022315Y005624D01*
X022281Y005562D01*
X022244Y005501D01*
X022204Y005443D01*
X022201Y005440D01*
X022168Y005441D02*
X021807Y005441D01*
X021816Y005428D02*
X021710Y005572D01*
X021628Y005741D01*
X021560Y005947D01*
X021735Y005678D01*
X021841Y005635D01*
X022153Y005635D01*
X022235Y005672D01*
X022291Y005753D01*
X022410Y005966D01*
X022391Y006066D01*
X022297Y006078D01*
X022116Y006003D01*
X022041Y005935D01*
X021985Y005791D01*
X021941Y005935D01*
X021847Y005985D01*
X021672Y006078D01*
X021616Y006078D01*
X021553Y005972D01*
X021497Y006335D01*
X021597Y006641D01*
X021803Y006766D01*
X021972Y006810D01*
X022216Y006753D01*
X022391Y006578D01*
X022466Y006285D01*
X022416Y005953D01*
X022303Y005647D01*
X022160Y005428D01*
X022022Y005347D01*
X021897Y005366D01*
X021816Y005428D01*
X021863Y005392D02*
X022098Y005392D01*
X022199Y005489D02*
X021771Y005489D01*
X021735Y005538D02*
X022231Y005538D01*
X022263Y005586D02*
X021703Y005586D01*
X021679Y005635D02*
X021840Y005635D01*
X021841Y005635D02*
X021910Y005660D01*
X021978Y005735D01*
X022060Y005660D01*
X022153Y005635D01*
X022154Y005635D02*
X022295Y005635D01*
X022317Y005683D02*
X022242Y005683D01*
X022227Y005707D02*
X022370Y005929D01*
X022387Y005926D02*
X022406Y005926D01*
X022408Y005975D02*
X022419Y005975D01*
X022426Y006023D02*
X022399Y006023D01*
X022434Y006072D02*
X022347Y006072D01*
X022281Y006072D02*
X021685Y006072D01*
X021688Y006047D02*
X021855Y005958D01*
X021866Y005975D02*
X022084Y005975D01*
X022108Y005958D02*
X022275Y006047D01*
X022276Y006047D02*
X022291Y006053D01*
X022307Y006056D01*
X022324Y006055D01*
X022339Y006051D01*
X022354Y006044D01*
X022367Y006033D01*
X022377Y006020D01*
X022384Y006006D01*
X022388Y005990D01*
X022389Y005973D01*
X022386Y005957D01*
X022380Y005942D01*
X022370Y005929D01*
X022360Y005877D02*
X022388Y005877D01*
X022370Y005829D02*
X022333Y005829D01*
X022352Y005780D02*
X022306Y005780D01*
X022334Y005732D02*
X022276Y005732D01*
X021999Y005770D02*
X022000Y005796D01*
X022004Y005821D01*
X022011Y005845D01*
X022021Y005868D01*
X022034Y005890D01*
X022049Y005910D01*
X022067Y005929D01*
X022086Y005944D01*
X022108Y005958D01*
X022037Y005926D02*
X021943Y005926D01*
X021958Y005877D02*
X022018Y005877D01*
X021999Y005829D02*
X021973Y005829D01*
X021976Y005732D02*
X021981Y005732D01*
X021931Y005683D02*
X022034Y005683D01*
X022202Y005439D02*
X022181Y005414D01*
X022158Y005392D01*
X022133Y005372D01*
X022105Y005356D01*
X022076Y005343D01*
X022045Y005334D01*
X022013Y005328D01*
X021981Y005326D01*
X021949Y005328D01*
X021917Y005334D01*
X021886Y005343D01*
X021857Y005356D01*
X021829Y005372D01*
X021804Y005392D01*
X021781Y005414D01*
X021760Y005439D01*
X021731Y005683D02*
X021656Y005683D01*
X021633Y005732D02*
X021700Y005732D01*
X021736Y005707D02*
X021593Y005929D01*
X021573Y005926D02*
X021567Y005926D01*
X021553Y005975D02*
X021555Y005975D01*
X021545Y006023D02*
X021583Y006023D01*
X021612Y006072D02*
X021538Y006072D01*
X021530Y006120D02*
X022441Y006120D01*
X022448Y006169D02*
X021523Y006169D01*
X021515Y006217D02*
X022456Y006217D01*
X022463Y006266D02*
X021508Y006266D01*
X021500Y006314D02*
X022458Y006314D01*
X022481Y006307D02*
X022481Y006331D01*
X022446Y006363D02*
X021506Y006363D01*
X021481Y006331D02*
X021481Y006311D01*
X021522Y006411D02*
X022433Y006411D01*
X022421Y006460D02*
X021538Y006460D01*
X021554Y006509D02*
X022409Y006509D01*
X022396Y006557D02*
X021570Y006557D01*
X021586Y006606D02*
X022364Y006606D01*
X022315Y006654D02*
X021619Y006654D01*
X021699Y006703D02*
X022266Y006703D01*
X022218Y006751D02*
X021779Y006751D01*
X021934Y006800D02*
X022014Y006800D01*
X021981Y006831D02*
X022025Y006829D01*
X022068Y006823D01*
X022110Y006814D01*
X022152Y006801D01*
X022192Y006784D01*
X022231Y006764D01*
X022268Y006741D01*
X022302Y006714D01*
X022335Y006685D01*
X022364Y006652D01*
X022391Y006618D01*
X022414Y006581D01*
X022434Y006542D01*
X022451Y006502D01*
X022464Y006460D01*
X022473Y006418D01*
X022479Y006375D01*
X022481Y006331D01*
X022164Y006023D02*
X021775Y006023D01*
X021687Y006047D02*
X021672Y006053D01*
X021656Y006056D01*
X021639Y006055D01*
X021624Y006051D01*
X021609Y006044D01*
X021596Y006033D01*
X021586Y006020D01*
X021579Y006006D01*
X021575Y005990D01*
X021574Y005973D01*
X021577Y005957D01*
X021583Y005942D01*
X021593Y005929D01*
X021583Y005877D02*
X021605Y005877D01*
X021599Y005829D02*
X021636Y005829D01*
X021615Y005780D02*
X021668Y005780D01*
X021855Y005958D02*
X021877Y005944D01*
X021896Y005929D01*
X021914Y005910D01*
X021929Y005890D01*
X021942Y005868D01*
X021952Y005845D01*
X021959Y005821D01*
X021963Y005796D01*
X021964Y005770D01*
X021964Y005771D02*
X021960Y005749D01*
X021953Y005729D01*
X021942Y005710D01*
X021928Y005693D01*
X021911Y005679D01*
X021893Y005668D01*
X021872Y005661D01*
X021851Y005657D01*
X021829Y005656D01*
X021808Y005660D01*
X021787Y005667D01*
X021768Y005677D01*
X021751Y005691D01*
X021736Y005707D01*
X021999Y005771D02*
X022003Y005749D01*
X022010Y005729D01*
X022021Y005710D01*
X022035Y005693D01*
X022052Y005679D01*
X022070Y005668D01*
X022091Y005661D01*
X022112Y005657D01*
X022134Y005656D01*
X022155Y005660D01*
X022176Y005667D01*
X022195Y005677D01*
X022212Y005691D01*
X022227Y005707D01*
X021481Y006331D02*
X021483Y006375D01*
X021489Y006418D01*
X021498Y006460D01*
X021511Y006502D01*
X021528Y006542D01*
X021548Y006581D01*
X021571Y006618D01*
X021598Y006652D01*
X021627Y006685D01*
X021660Y006714D01*
X021694Y006741D01*
X021731Y006764D01*
X021770Y006784D01*
X021810Y006801D01*
X021852Y006814D01*
X021894Y006823D01*
X021937Y006829D01*
X021981Y006831D01*
X021481Y006311D02*
X021483Y006239D01*
X021488Y006168D01*
X021496Y006097D01*
X021508Y006026D01*
X021523Y005957D01*
X021542Y005887D01*
X021564Y005819D01*
X021589Y005752D01*
X021617Y005686D01*
X021649Y005622D01*
X021683Y005559D01*
X021720Y005498D01*
X021760Y005439D01*
X020141Y004406D02*
X020234Y004494D01*
X020331Y004578D01*
X020432Y004657D01*
X020537Y004731D01*
X020646Y004800D01*
X020758Y004863D01*
X020872Y004921D01*
X020990Y004973D01*
X021110Y005019D01*
X021231Y005059D01*
X021355Y005094D01*
X021481Y005122D01*
X021607Y005144D01*
X021735Y005159D01*
X021863Y005169D01*
X021991Y005172D01*
X022119Y005169D01*
X022247Y005159D01*
X022375Y005144D01*
X022501Y005122D01*
X022627Y005094D01*
X022751Y005059D01*
X022872Y005019D01*
X022992Y004973D01*
X023110Y004921D01*
X023224Y004863D01*
X023336Y004800D01*
X023445Y004731D01*
X023550Y004657D01*
X023651Y004578D01*
X023748Y004494D01*
X023841Y004406D01*
D24*
X027751Y007051D03*
X012421Y004890D03*
X020321Y027120D03*
X023391Y029460D03*
D25*
X023548Y029736D02*
X023548Y029106D01*
X023233Y029106D02*
X023233Y029736D01*
X020478Y027396D02*
X020478Y026766D01*
X020163Y026766D02*
X020163Y027396D01*
X027593Y007406D02*
X027593Y006776D01*
X027908Y006776D02*
X027908Y007406D01*
X012578Y005166D02*
X012578Y004536D01*
X012263Y004536D02*
X012263Y005166D01*
M02*
