G75*
G70*
%OFA0B0*%
%FSLAX24Y24*%
%IPPOS*%
%LPD*%
%AMOC8*
5,1,8,0,0,1.08239X$1,22.5*
%
%ADD10C,0.0000*%
%ADD11R,0.0591X0.0197*%
%ADD12R,0.0197X0.0591*%
%ADD13R,0.0394X0.0177*%
%ADD14R,0.0177X0.0394*%
%ADD15R,0.0197X0.0984*%
%ADD16R,0.0787X0.0984*%
%ADD17R,0.0433X0.0394*%
%ADD18R,0.0760X0.2100*%
%ADD19R,0.0394X0.0433*%
%ADD20R,0.2100X0.0760*%
%ADD21R,0.0472X0.0472*%
%ADD22C,0.0394*%
%ADD23R,0.1024X0.0630*%
%ADD24R,0.0630X0.1024*%
%ADD25R,0.0945X0.0945*%
%ADD26C,0.0600*%
%ADD27C,0.0945*%
%ADD28R,0.0276X0.0335*%
%ADD29R,0.0787X0.0591*%
%ADD30R,0.0787X0.1496*%
%ADD31R,0.0460X0.0630*%
%ADD32C,0.0240*%
%ADD33C,0.0160*%
%ADD34C,0.0400*%
%ADD35C,0.0886*%
%ADD36C,0.0413*%
%ADD37C,0.1660*%
%ADD38C,0.0320*%
%ADD39C,0.0500*%
%ADD40C,0.0591*%
D10*
X000101Y001101D02*
X000101Y032101D01*
X000103Y032161D01*
X000108Y032222D01*
X000117Y032281D01*
X000130Y032340D01*
X000146Y032399D01*
X000166Y032456D01*
X000189Y032511D01*
X000216Y032566D01*
X000245Y032618D01*
X000278Y032669D01*
X000314Y032718D01*
X000352Y032764D01*
X000394Y032808D01*
X000438Y032850D01*
X000484Y032888D01*
X000533Y032924D01*
X000584Y032957D01*
X000636Y032986D01*
X000691Y033013D01*
X000746Y033036D01*
X000803Y033056D01*
X000862Y033072D01*
X000921Y033085D01*
X000980Y033094D01*
X001041Y033099D01*
X001101Y033101D01*
X034601Y033101D01*
X034661Y033099D01*
X034722Y033094D01*
X034781Y033085D01*
X034840Y033072D01*
X034899Y033056D01*
X034956Y033036D01*
X035011Y033013D01*
X035066Y032986D01*
X035118Y032957D01*
X035169Y032924D01*
X035218Y032888D01*
X035264Y032850D01*
X035308Y032808D01*
X035350Y032764D01*
X035388Y032718D01*
X035424Y032669D01*
X035457Y032618D01*
X035486Y032566D01*
X035513Y032511D01*
X035536Y032456D01*
X035556Y032399D01*
X035572Y032340D01*
X035585Y032281D01*
X035594Y032222D01*
X035599Y032161D01*
X035601Y032101D01*
X035601Y010831D01*
X035599Y010787D01*
X035593Y010744D01*
X035584Y010702D01*
X035571Y010660D01*
X035554Y010620D01*
X035534Y010581D01*
X035511Y010544D01*
X035484Y010510D01*
X035455Y010477D01*
X035422Y010448D01*
X035388Y010421D01*
X035351Y010398D01*
X035312Y010378D01*
X035272Y010361D01*
X035230Y010348D01*
X035188Y010339D01*
X035145Y010333D01*
X035101Y010331D01*
X035041Y010329D01*
X034980Y010324D01*
X034921Y010315D01*
X034862Y010302D01*
X034803Y010286D01*
X034746Y010266D01*
X034691Y010243D01*
X034636Y010216D01*
X034584Y010187D01*
X034533Y010154D01*
X034484Y010118D01*
X034438Y010080D01*
X034394Y010038D01*
X034352Y009994D01*
X034314Y009948D01*
X034278Y009899D01*
X034245Y009848D01*
X034216Y009796D01*
X034189Y009741D01*
X034166Y009686D01*
X034146Y009629D01*
X034130Y009570D01*
X034117Y009511D01*
X034108Y009452D01*
X034103Y009391D01*
X034101Y009331D01*
X034101Y007071D01*
X034103Y007011D01*
X034108Y006950D01*
X034117Y006891D01*
X034130Y006832D01*
X034146Y006773D01*
X034166Y006716D01*
X034189Y006661D01*
X034216Y006606D01*
X034245Y006554D01*
X034278Y006503D01*
X034314Y006454D01*
X034352Y006408D01*
X034394Y006364D01*
X034438Y006322D01*
X034484Y006284D01*
X034533Y006248D01*
X034584Y006215D01*
X034636Y006186D01*
X034691Y006159D01*
X034746Y006136D01*
X034803Y006116D01*
X034862Y006100D01*
X034921Y006087D01*
X034980Y006078D01*
X035041Y006073D01*
X035101Y006071D01*
X035145Y006069D01*
X035188Y006063D01*
X035230Y006054D01*
X035272Y006041D01*
X035312Y006024D01*
X035351Y006004D01*
X035388Y005981D01*
X035422Y005954D01*
X035455Y005925D01*
X035484Y005892D01*
X035511Y005858D01*
X035534Y005821D01*
X035554Y005782D01*
X035571Y005742D01*
X035584Y005700D01*
X035593Y005658D01*
X035599Y005615D01*
X035601Y005571D01*
X035601Y001101D01*
X035599Y001041D01*
X035594Y000980D01*
X035585Y000921D01*
X035572Y000862D01*
X035556Y000803D01*
X035536Y000746D01*
X035513Y000691D01*
X035486Y000636D01*
X035457Y000584D01*
X035424Y000533D01*
X035388Y000484D01*
X035350Y000438D01*
X035308Y000394D01*
X035264Y000352D01*
X035218Y000314D01*
X035169Y000278D01*
X035118Y000245D01*
X035066Y000216D01*
X035011Y000189D01*
X034956Y000166D01*
X034899Y000146D01*
X034840Y000130D01*
X034781Y000117D01*
X034722Y000108D01*
X034661Y000103D01*
X034601Y000101D01*
X001101Y000101D01*
X001041Y000103D01*
X000980Y000108D01*
X000921Y000117D01*
X000862Y000130D01*
X000803Y000146D01*
X000746Y000166D01*
X000691Y000189D01*
X000636Y000216D01*
X000584Y000245D01*
X000533Y000278D01*
X000484Y000314D01*
X000438Y000352D01*
X000394Y000394D01*
X000352Y000438D01*
X000314Y000484D01*
X000278Y000533D01*
X000245Y000584D01*
X000216Y000636D01*
X000189Y000691D01*
X000166Y000746D01*
X000146Y000803D01*
X000130Y000862D01*
X000117Y000921D01*
X000108Y000980D01*
X000103Y001041D01*
X000101Y001101D01*
X003125Y001646D02*
X003127Y001679D01*
X003133Y001711D01*
X003142Y001742D01*
X003155Y001772D01*
X003172Y001800D01*
X003192Y001826D01*
X003215Y001850D01*
X003240Y001870D01*
X003268Y001888D01*
X003297Y001902D01*
X003328Y001912D01*
X003360Y001919D01*
X003393Y001922D01*
X003426Y001921D01*
X003458Y001916D01*
X003489Y001907D01*
X003520Y001895D01*
X003548Y001879D01*
X003575Y001860D01*
X003599Y001838D01*
X003620Y001813D01*
X003639Y001786D01*
X003654Y001757D01*
X003665Y001727D01*
X003673Y001695D01*
X003677Y001662D01*
X003677Y001630D01*
X003673Y001597D01*
X003665Y001565D01*
X003654Y001535D01*
X003639Y001506D01*
X003620Y001479D01*
X003599Y001454D01*
X003575Y001432D01*
X003548Y001413D01*
X003520Y001397D01*
X003489Y001385D01*
X003458Y001376D01*
X003426Y001371D01*
X003393Y001370D01*
X003360Y001373D01*
X003328Y001380D01*
X003297Y001390D01*
X003268Y001404D01*
X003240Y001422D01*
X003215Y001442D01*
X003192Y001466D01*
X003172Y001492D01*
X003155Y001520D01*
X003142Y001550D01*
X003133Y001581D01*
X003127Y001613D01*
X003125Y001646D01*
X003125Y011095D02*
X003127Y011128D01*
X003133Y011160D01*
X003142Y011191D01*
X003155Y011221D01*
X003172Y011249D01*
X003192Y011275D01*
X003215Y011299D01*
X003240Y011319D01*
X003268Y011337D01*
X003297Y011351D01*
X003328Y011361D01*
X003360Y011368D01*
X003393Y011371D01*
X003426Y011370D01*
X003458Y011365D01*
X003489Y011356D01*
X003520Y011344D01*
X003548Y011328D01*
X003575Y011309D01*
X003599Y011287D01*
X003620Y011262D01*
X003639Y011235D01*
X003654Y011206D01*
X003665Y011176D01*
X003673Y011144D01*
X003677Y011111D01*
X003677Y011079D01*
X003673Y011046D01*
X003665Y011014D01*
X003654Y010984D01*
X003639Y010955D01*
X003620Y010928D01*
X003599Y010903D01*
X003575Y010881D01*
X003548Y010862D01*
X003520Y010846D01*
X003489Y010834D01*
X003458Y010825D01*
X003426Y010820D01*
X003393Y010819D01*
X003360Y010822D01*
X003328Y010829D01*
X003297Y010839D01*
X003268Y010853D01*
X003240Y010871D01*
X003215Y010891D01*
X003192Y010915D01*
X003172Y010941D01*
X003155Y010969D01*
X003142Y010999D01*
X003133Y011030D01*
X003127Y011062D01*
X003125Y011095D01*
X013158Y002581D02*
X013160Y002607D01*
X013166Y002633D01*
X013176Y002658D01*
X013189Y002681D01*
X013205Y002701D01*
X013225Y002719D01*
X013247Y002734D01*
X013270Y002746D01*
X013296Y002754D01*
X013322Y002758D01*
X013348Y002758D01*
X013374Y002754D01*
X013400Y002746D01*
X013424Y002734D01*
X013445Y002719D01*
X013465Y002701D01*
X013481Y002681D01*
X013494Y002658D01*
X013504Y002633D01*
X013510Y002607D01*
X013512Y002581D01*
X013510Y002555D01*
X013504Y002529D01*
X013494Y002504D01*
X013481Y002481D01*
X013465Y002461D01*
X013445Y002443D01*
X013423Y002428D01*
X013400Y002416D01*
X013374Y002408D01*
X013348Y002404D01*
X013322Y002404D01*
X013296Y002408D01*
X013270Y002416D01*
X013246Y002428D01*
X013225Y002443D01*
X013205Y002461D01*
X013189Y002481D01*
X013176Y002504D01*
X013166Y002529D01*
X013160Y002555D01*
X013158Y002581D01*
X014890Y002581D02*
X014892Y002607D01*
X014898Y002633D01*
X014908Y002658D01*
X014921Y002681D01*
X014937Y002701D01*
X014957Y002719D01*
X014979Y002734D01*
X015002Y002746D01*
X015028Y002754D01*
X015054Y002758D01*
X015080Y002758D01*
X015106Y002754D01*
X015132Y002746D01*
X015156Y002734D01*
X015177Y002719D01*
X015197Y002701D01*
X015213Y002681D01*
X015226Y002658D01*
X015236Y002633D01*
X015242Y002607D01*
X015244Y002581D01*
X015242Y002555D01*
X015236Y002529D01*
X015226Y002504D01*
X015213Y002481D01*
X015197Y002461D01*
X015177Y002443D01*
X015155Y002428D01*
X015132Y002416D01*
X015106Y002408D01*
X015080Y002404D01*
X015054Y002404D01*
X015028Y002408D01*
X015002Y002416D01*
X014978Y002428D01*
X014957Y002443D01*
X014937Y002461D01*
X014921Y002481D01*
X014908Y002504D01*
X014898Y002529D01*
X014892Y002555D01*
X014890Y002581D01*
D11*
X023777Y023286D03*
X023777Y023601D03*
X023777Y023916D03*
X023777Y024231D03*
X023777Y024546D03*
X023777Y024861D03*
X023777Y025176D03*
X023777Y025491D03*
X023777Y025806D03*
X023777Y026121D03*
X023777Y026436D03*
X028344Y026436D03*
X028344Y026121D03*
X028344Y025806D03*
X028344Y025491D03*
X028344Y025176D03*
X028344Y024861D03*
X028344Y024546D03*
X028344Y024231D03*
X028344Y023916D03*
X028344Y023601D03*
X028344Y023286D03*
D12*
X027636Y022577D03*
X027321Y022577D03*
X027006Y022577D03*
X026691Y022577D03*
X026376Y022577D03*
X026061Y022577D03*
X025746Y022577D03*
X025431Y022577D03*
X025116Y022577D03*
X024801Y022577D03*
X024486Y022577D03*
X024486Y027144D03*
X024801Y027144D03*
X025116Y027144D03*
X025431Y027144D03*
X025746Y027144D03*
X026061Y027144D03*
X026376Y027144D03*
X026691Y027144D03*
X027006Y027144D03*
X027321Y027144D03*
X027636Y027144D03*
D13*
X015895Y013693D03*
X015895Y013378D03*
X015895Y013063D03*
X015895Y012748D03*
X015895Y012433D03*
X015895Y012118D03*
X015895Y011803D03*
X015895Y011488D03*
X012627Y011488D03*
X012627Y011803D03*
X012627Y012118D03*
X012627Y012433D03*
X012627Y012748D03*
X012627Y013063D03*
X012627Y013378D03*
X012627Y013693D03*
D14*
X013158Y014225D03*
X013473Y014225D03*
X013788Y014225D03*
X014103Y014225D03*
X014418Y014225D03*
X014733Y014225D03*
X015048Y014225D03*
X015363Y014225D03*
X015363Y010957D03*
X015048Y010957D03*
X014733Y010957D03*
X014418Y010957D03*
X014103Y010957D03*
X013788Y010957D03*
X013473Y010957D03*
X013158Y010957D03*
D15*
X013571Y003565D03*
X013886Y003565D03*
X014201Y003565D03*
X014516Y003565D03*
X014831Y003565D03*
D16*
X015972Y003565D03*
X015972Y001400D03*
X012429Y001400D03*
X012429Y003565D03*
D17*
X013651Y004546D03*
X013651Y005215D03*
X014731Y005215D03*
X014731Y004546D03*
X015146Y009851D03*
X015815Y009851D03*
X013925Y009861D03*
X013256Y009861D03*
X014111Y015176D03*
X014111Y015845D03*
X014111Y016546D03*
X014111Y017215D03*
X022101Y020936D03*
X022101Y021605D03*
X022911Y021605D03*
X022911Y020936D03*
X023721Y020936D03*
X023721Y021605D03*
X024531Y021605D03*
X024531Y020936D03*
X027691Y020936D03*
X027691Y021605D03*
X029301Y021605D03*
X029301Y020936D03*
X031971Y019425D03*
X031971Y018756D03*
X033061Y018756D03*
X033061Y019425D03*
X029035Y027451D03*
X028366Y027451D03*
X026535Y028381D03*
X025866Y028381D03*
X025866Y029201D03*
X026535Y029201D03*
X023801Y027805D03*
X023801Y027136D03*
X022781Y029146D03*
X022781Y029815D03*
X019571Y027755D03*
X019571Y027086D03*
X018751Y027086D03*
X018751Y027755D03*
X024891Y008325D03*
X024891Y007656D03*
D18*
X019281Y008131D03*
X019281Y011931D03*
D19*
X017325Y013601D03*
X016656Y013601D03*
X016991Y012905D03*
X016991Y012236D03*
X016961Y011455D03*
X016961Y010786D03*
X016961Y010055D03*
X016961Y009386D03*
X016111Y005215D03*
X016111Y004546D03*
X011525Y010791D03*
X010856Y010791D03*
X010856Y011621D03*
X011525Y011621D03*
X011525Y012441D03*
X010856Y012441D03*
X008655Y012401D03*
X007986Y012401D03*
X008066Y009431D03*
X008735Y009431D03*
X011296Y015231D03*
X011965Y015231D03*
X016656Y014411D03*
X017325Y014411D03*
X022541Y023776D03*
X022541Y024445D03*
X026871Y021605D03*
X026871Y020936D03*
X029036Y022951D03*
X029705Y022951D03*
X029556Y023761D03*
X030225Y023761D03*
X029985Y024571D03*
X029316Y024571D03*
X029461Y025236D03*
X029461Y025905D03*
X018731Y028656D03*
X018731Y029325D03*
X004051Y019305D03*
X004051Y018636D03*
X004051Y017875D03*
X004051Y017206D03*
D20*
X028631Y029051D03*
X032431Y029051D03*
D21*
X027691Y020144D03*
X027691Y019317D03*
X023101Y027157D03*
X022301Y027167D03*
X022301Y027994D03*
X023101Y027984D03*
X010164Y012431D03*
X010164Y011611D03*
X010164Y010791D03*
X009337Y010791D03*
X009337Y011611D03*
X009337Y012431D03*
X024891Y009794D03*
X024891Y008967D03*
D22*
X025711Y012591D03*
X026311Y012591D03*
X026311Y013231D03*
X017561Y015401D03*
X016901Y015401D03*
X016261Y015391D03*
X015641Y015391D03*
X012631Y016631D03*
X011881Y016631D03*
X011131Y016631D03*
X010381Y016631D03*
D23*
X004819Y015961D03*
X003402Y015961D03*
X019702Y031471D03*
X021119Y031471D03*
D24*
X020321Y029789D03*
X020321Y028372D03*
X024671Y028302D03*
X024671Y029719D03*
X008821Y019699D03*
X008821Y018282D03*
X017451Y005569D03*
X017451Y004152D03*
X026521Y008262D03*
X026521Y009679D03*
D25*
X004831Y012765D03*
X004831Y014497D03*
D26*
X003681Y013771D02*
X003081Y013771D01*
X003081Y012771D02*
X003681Y012771D01*
X008071Y013531D02*
X008671Y013531D01*
X008671Y014531D02*
X008071Y014531D01*
X008071Y015531D02*
X008671Y015531D01*
X009671Y015531D02*
X010271Y015531D01*
X010271Y014531D02*
X009671Y014531D01*
X009671Y013531D02*
X010271Y013531D01*
X016991Y021321D02*
X017591Y021321D01*
X017591Y022321D02*
X016991Y022321D01*
X016991Y023321D02*
X017591Y023321D01*
X017591Y024321D02*
X016991Y024321D01*
X016991Y025321D02*
X017591Y025321D01*
X017591Y026321D02*
X016991Y026321D01*
X016991Y027321D02*
X017591Y027321D01*
X017591Y028321D02*
X016991Y028321D01*
X016991Y029321D02*
X017591Y029321D01*
X022471Y030641D02*
X022471Y031241D01*
X023471Y031241D02*
X023471Y030641D01*
X024471Y030641D02*
X024471Y031241D01*
X025471Y031241D02*
X025471Y030641D01*
X026471Y030641D02*
X026471Y031241D01*
X027471Y031241D02*
X027471Y030641D01*
X028471Y030641D02*
X028471Y031241D01*
X029471Y031241D02*
X029471Y030641D01*
X030471Y030641D02*
X030471Y031241D01*
X031471Y031241D02*
X031471Y030641D01*
X032471Y030641D02*
X032471Y031241D01*
X032471Y017241D02*
X032471Y016641D01*
X031471Y016641D02*
X031471Y017241D01*
X030471Y017241D02*
X030471Y016641D01*
X029471Y016641D02*
X029471Y017241D01*
X028471Y017241D02*
X028471Y016641D01*
X027471Y016641D02*
X027471Y017241D01*
X026471Y017241D02*
X026471Y016641D01*
X025471Y016641D02*
X025471Y017241D01*
X024471Y017241D02*
X024471Y016641D01*
X023471Y016641D02*
X023471Y017241D01*
X022471Y017241D02*
X022471Y016641D01*
X005591Y027321D02*
X004991Y027321D01*
X004991Y028321D02*
X005591Y028321D01*
X005591Y029321D02*
X004991Y029321D01*
D27*
X003495Y029305D03*
X002491Y028301D03*
X001487Y029305D03*
X001487Y027297D03*
X003495Y027297D03*
X006081Y013391D03*
X017411Y002771D03*
X027591Y008191D03*
X027811Y011341D03*
X028081Y004291D03*
X019131Y021291D03*
X021341Y026801D03*
D28*
X020321Y026805D03*
X020321Y027435D03*
X023391Y029145D03*
X023391Y029775D03*
X027751Y007366D03*
X027751Y006736D03*
X012421Y005205D03*
X012421Y004575D03*
D29*
X004901Y017465D03*
X004901Y018371D03*
X004901Y019276D03*
D30*
X007381Y018371D03*
D31*
X007621Y010441D03*
X007021Y010441D03*
X008451Y004981D03*
X009051Y004981D03*
X015941Y007211D03*
X016541Y007211D03*
X025711Y011741D03*
X026311Y011741D03*
D32*
X026311Y012591D01*
X025711Y012591D02*
X025711Y011741D01*
X024891Y010921D01*
X024891Y009794D01*
X024891Y008967D02*
X024891Y008325D01*
X024891Y007656D02*
X024891Y007191D01*
X026471Y005611D01*
X026521Y009679D02*
X026521Y011491D01*
X026311Y011741D01*
X024891Y010921D02*
X024891Y013521D01*
X026971Y015601D01*
X027281Y015291D01*
X033051Y015291D01*
X033681Y015921D01*
X033681Y028151D01*
X034001Y028471D01*
X034001Y029501D01*
X033611Y029891D01*
X030471Y029891D01*
X025351Y029891D01*
X026471Y030941D02*
X026471Y031231D01*
X025701Y032001D01*
X022001Y032001D01*
X021471Y031471D01*
X021119Y031471D01*
X020321Y030281D02*
X020321Y029789D01*
X020321Y030281D02*
X019701Y030901D01*
X019701Y031469D01*
X019702Y031471D01*
X021401Y029815D02*
X022781Y029815D01*
X022781Y029146D02*
X021991Y029146D01*
X021991Y028811D01*
X022781Y029146D02*
X023392Y029146D01*
X023351Y028631D02*
X023101Y028381D01*
X023101Y027984D01*
X022301Y027994D02*
X021401Y027994D01*
X021401Y029815D01*
X018751Y027086D02*
X018631Y027086D01*
X018631Y026551D01*
X018631Y027086D02*
X017525Y027086D01*
X017291Y027321D01*
X017291Y025321D02*
X018101Y025321D01*
X018541Y024881D01*
X020401Y024881D01*
X020831Y025321D01*
X020411Y023871D02*
X020411Y023321D01*
X017291Y023321D01*
X017291Y022321D02*
X020991Y022321D01*
X021551Y021351D02*
X019131Y021351D01*
X021551Y021351D02*
X021551Y020936D01*
X022101Y020936D01*
X022911Y020936D01*
X027691Y020936D02*
X027691Y020384D01*
X027591Y013591D02*
X026671Y013591D01*
X026311Y013231D01*
X020671Y013491D02*
X020671Y010411D01*
X020671Y006581D01*
X018211Y006581D01*
X018211Y004181D01*
X017451Y004181D01*
X017451Y004152D01*
X016791Y004152D01*
X016791Y004546D01*
X016111Y004546D01*
X016111Y005215D02*
X015351Y005975D01*
X015351Y006051D01*
X015741Y006441D01*
X016251Y006441D01*
X016541Y006731D01*
X016541Y007211D01*
X015941Y007211D02*
X015361Y007791D01*
X015361Y008211D01*
X015146Y008811D02*
X015146Y009851D01*
X015146Y008811D02*
X017551Y008811D01*
X017551Y006581D01*
X018211Y006581D01*
X017451Y005341D02*
X016101Y005341D01*
X016791Y004152D02*
X016791Y003391D01*
X017411Y002771D01*
X013141Y006051D02*
X012421Y006051D01*
X012421Y005205D01*
X012581Y007201D02*
X010231Y007201D01*
X009051Y006021D01*
X009051Y004981D01*
X008451Y004981D02*
X008451Y003771D01*
X004911Y003771D01*
X004911Y004511D01*
X003831Y005591D01*
X003831Y005941D01*
X007441Y008771D02*
X008791Y008771D01*
X008791Y009431D01*
X008791Y008771D02*
X011461Y008771D01*
X012291Y007951D02*
X009061Y007951D01*
X008111Y007000D01*
X012291Y007951D02*
X013025Y008685D01*
X013925Y008685D01*
X013925Y009861D01*
X016961Y010055D02*
X016961Y010411D01*
X020671Y010411D01*
X019281Y009386D02*
X019281Y008131D01*
X019281Y009386D02*
X016961Y009386D01*
X016961Y010411D02*
X016961Y010786D01*
X016961Y011455D02*
X019271Y011445D01*
X019281Y011931D01*
X017991Y012118D02*
X017991Y013491D01*
X017991Y015401D01*
X017561Y015401D01*
X017325Y014411D02*
X017325Y013601D01*
X017991Y013491D02*
X020671Y013491D01*
X017991Y012118D02*
X016991Y012118D01*
X012631Y016631D02*
X012631Y017215D01*
X012631Y018282D01*
X012631Y017215D02*
X014111Y017215D01*
X011371Y017331D02*
X011131Y017331D01*
X011131Y016631D01*
X030471Y029891D02*
X030471Y030941D01*
D33*
X031048Y031468D02*
X030996Y031592D01*
X030822Y031766D01*
X030594Y031861D01*
X030347Y031861D01*
X030120Y031766D01*
X029971Y031618D01*
X029822Y031766D01*
X029594Y031861D01*
X029347Y031861D01*
X029120Y031766D01*
X028971Y031618D01*
X028822Y031766D01*
X028594Y031861D01*
X028347Y031861D01*
X028120Y031766D01*
X027971Y031618D01*
X027822Y031766D01*
X027594Y031861D01*
X027347Y031861D01*
X027120Y031766D01*
X026971Y031618D01*
X026822Y031766D01*
X026594Y031861D01*
X026463Y031861D01*
X025950Y032374D01*
X025788Y032441D01*
X025613Y032441D01*
X021913Y032441D01*
X021752Y032374D01*
X021628Y032250D01*
X021484Y032106D01*
X020544Y032106D01*
X020426Y032057D01*
X020336Y031967D01*
X020322Y031931D01*
X020283Y031953D01*
X020238Y031966D01*
X019780Y031966D01*
X019780Y031549D01*
X019625Y031549D01*
X019625Y031966D01*
X019167Y031966D01*
X019121Y031953D01*
X019080Y031930D01*
X019046Y031896D01*
X019023Y031855D01*
X019010Y031809D01*
X000625Y031809D01*
X000611Y031743D02*
X000641Y031883D01*
X000691Y032016D01*
X000760Y032141D01*
X000845Y032256D01*
X000946Y032357D01*
X001060Y032442D01*
X001185Y032510D01*
X001319Y032560D01*
X001458Y032591D01*
X001601Y032601D01*
X034101Y032601D01*
X034243Y032591D01*
X034383Y032560D01*
X034516Y032510D01*
X034641Y032442D01*
X034756Y032357D01*
X034857Y032256D01*
X034942Y032141D01*
X035010Y032016D01*
X035060Y031883D01*
X035091Y031743D01*
X035101Y031601D01*
X035101Y012601D01*
X035091Y012458D01*
X035060Y012319D01*
X035010Y012185D01*
X034942Y012060D01*
X034857Y011946D01*
X034756Y011845D01*
X034641Y011760D01*
X034516Y011691D01*
X034383Y011641D01*
X034243Y011611D01*
X034101Y011601D01*
X029151Y011601D01*
X029008Y011591D01*
X028869Y011560D01*
X028735Y011510D01*
X028610Y011442D01*
X028496Y011357D01*
X028395Y011256D01*
X028310Y011141D01*
X028241Y011016D01*
X028191Y010883D01*
X028161Y010743D01*
X028151Y010601D01*
X028151Y008751D01*
X028040Y008863D01*
X027748Y008983D01*
X027433Y008983D01*
X027145Y008864D01*
X027107Y008955D01*
X027017Y009045D01*
X026981Y009060D01*
X027003Y009098D01*
X027016Y009144D01*
X027016Y009602D01*
X026599Y009602D01*
X026599Y009757D01*
X027016Y009757D01*
X027016Y010215D01*
X027003Y010261D01*
X026980Y010302D01*
X026946Y010335D01*
X026905Y010359D01*
X026859Y010371D01*
X026598Y010371D01*
X026598Y009757D01*
X026443Y009757D01*
X026443Y009602D01*
X026026Y009602D01*
X026026Y009144D01*
X026038Y009098D01*
X026060Y009060D01*
X026025Y009045D01*
X025935Y008955D01*
X025886Y008838D01*
X025886Y007687D01*
X025935Y007569D01*
X026001Y007503D01*
X026001Y007263D01*
X026080Y007072D01*
X026226Y006926D01*
X026417Y006846D01*
X026624Y006846D01*
X027235Y006846D01*
X027229Y006830D01*
X027247Y005872D01*
X026997Y005623D01*
X026997Y005716D01*
X026917Y005909D01*
X026769Y006057D01*
X026576Y006137D01*
X026566Y006137D01*
X025392Y007311D01*
X025427Y007396D01*
X025427Y007917D01*
X025397Y007991D01*
X025427Y008065D01*
X025427Y008586D01*
X025420Y008603D01*
X025447Y008667D01*
X025447Y009267D01*
X025400Y009381D01*
X025447Y009494D01*
X025447Y010094D01*
X025398Y010212D01*
X025331Y010279D01*
X025331Y010739D01*
X025698Y011106D01*
X026004Y011106D01*
X026122Y011154D01*
X026212Y011244D01*
X026213Y011246D01*
X026276Y011246D01*
X026276Y011706D01*
X026346Y011706D01*
X026346Y011776D01*
X026721Y011776D01*
X026721Y012079D01*
X026708Y012125D01*
X026685Y012166D01*
X026651Y012200D01*
X026610Y012223D01*
X026564Y012236D01*
X026438Y012236D01*
X026489Y012257D01*
X026551Y012298D01*
X026603Y012351D01*
X026645Y012412D01*
X026673Y012481D01*
X026688Y012554D01*
X026688Y012572D01*
X026329Y012572D01*
X026329Y012214D01*
X026346Y012214D01*
X026346Y011776D01*
X026276Y011776D01*
X026276Y012214D01*
X026292Y012214D01*
X026292Y012572D01*
X026329Y012572D01*
X026329Y012609D01*
X026688Y012609D01*
X026688Y012628D01*
X026673Y012701D01*
X026645Y012769D01*
X026619Y012808D01*
X026749Y012938D01*
X026826Y013124D01*
X026853Y013151D01*
X027286Y013151D01*
X027292Y013144D01*
X027486Y013064D01*
X027696Y013064D01*
X027889Y013144D01*
X028037Y013292D01*
X028117Y013486D01*
X028117Y013696D01*
X028037Y013889D01*
X027889Y014037D01*
X027696Y014117D01*
X027486Y014117D01*
X027292Y014037D01*
X027286Y014031D01*
X026583Y014031D01*
X026422Y013964D01*
X026298Y013840D01*
X026204Y013746D01*
X026018Y013669D01*
X025873Y013524D01*
X025794Y013334D01*
X025794Y013128D01*
X025802Y013108D01*
X025608Y013108D01*
X025418Y013029D01*
X025331Y012942D01*
X025331Y013339D01*
X026971Y014979D01*
X027032Y014918D01*
X027193Y014851D01*
X027368Y014851D01*
X033138Y014851D01*
X033300Y014918D01*
X033424Y015042D01*
X033930Y015548D01*
X034054Y015672D01*
X034121Y015833D01*
X034121Y027969D01*
X034250Y028098D01*
X034374Y028222D01*
X034441Y028383D01*
X034441Y029413D01*
X034441Y029588D01*
X034374Y029750D01*
X033984Y030140D01*
X033860Y030264D01*
X033698Y030331D01*
X032839Y030331D01*
X032881Y030389D01*
X032916Y030456D01*
X032939Y030528D01*
X032951Y030603D01*
X032951Y030921D01*
X032491Y030921D01*
X032491Y030961D01*
X032451Y030961D01*
X032451Y031721D01*
X032433Y031721D01*
X032358Y031709D01*
X032286Y031686D01*
X032219Y031651D01*
X031723Y031651D01*
X031722Y031651D02*
X031655Y031686D01*
X031583Y031709D01*
X031509Y031721D01*
X031491Y031721D01*
X031491Y030961D01*
X031451Y030961D01*
X031451Y031721D01*
X031433Y031721D01*
X031358Y031709D01*
X031286Y031686D01*
X031219Y031651D01*
X030937Y031651D01*
X031038Y031492D02*
X031060Y031492D01*
X031048Y031468D01*
X031060Y031492D02*
X031105Y031553D01*
X031158Y031607D01*
X031219Y031651D01*
X031451Y031651D02*
X031491Y031651D01*
X031491Y031492D02*
X031451Y031492D01*
X031451Y031334D02*
X031491Y031334D01*
X031491Y031175D02*
X031451Y031175D01*
X031451Y031017D02*
X031491Y031017D01*
X031491Y030961D02*
X031951Y030961D01*
X031951Y031279D01*
X031939Y031353D01*
X031916Y031425D01*
X031881Y031492D01*
X031837Y031553D01*
X031783Y031607D01*
X031722Y031651D01*
X031881Y031492D02*
X032060Y031492D01*
X032026Y031425D01*
X032003Y031353D01*
X031991Y031279D01*
X031991Y030961D01*
X032451Y030961D01*
X032451Y030921D01*
X031991Y030921D01*
X031991Y030603D01*
X032003Y030528D01*
X032026Y030456D01*
X032060Y030389D01*
X032103Y030331D01*
X031839Y030331D01*
X031881Y030389D01*
X031916Y030456D01*
X031939Y030528D01*
X031951Y030603D01*
X031951Y030921D01*
X031491Y030921D01*
X031491Y030961D01*
X031951Y031017D02*
X031991Y031017D01*
X031991Y031175D02*
X031951Y031175D01*
X031942Y031334D02*
X032000Y031334D01*
X032060Y031492D02*
X032105Y031553D01*
X032158Y031607D01*
X032219Y031651D01*
X032451Y031651D02*
X032491Y031651D01*
X032491Y031721D02*
X032491Y030961D01*
X032951Y030961D01*
X032951Y031279D01*
X032939Y031353D01*
X032916Y031425D01*
X032881Y031492D01*
X032837Y031553D01*
X032783Y031607D01*
X032722Y031651D01*
X032655Y031686D01*
X032583Y031709D01*
X032509Y031721D01*
X032491Y031721D01*
X032491Y031492D02*
X032451Y031492D01*
X032451Y031334D02*
X032491Y031334D01*
X032491Y031175D02*
X032451Y031175D01*
X032451Y031017D02*
X032491Y031017D01*
X031991Y030858D02*
X031951Y030858D01*
X031951Y030700D02*
X031991Y030700D01*
X032001Y030541D02*
X031941Y030541D01*
X031876Y030383D02*
X032065Y030383D01*
X032876Y030383D02*
X035101Y030383D01*
X035101Y030541D02*
X032941Y030541D01*
X032951Y030700D02*
X035101Y030700D01*
X035101Y030858D02*
X032951Y030858D01*
X032951Y031017D02*
X035101Y031017D01*
X035101Y031175D02*
X032951Y031175D01*
X032942Y031334D02*
X035101Y031334D01*
X035101Y031492D02*
X032881Y031492D01*
X032723Y031651D02*
X035097Y031651D01*
X035076Y031809D02*
X030718Y031809D01*
X030224Y031809D02*
X029718Y031809D01*
X029937Y031651D02*
X030004Y031651D01*
X029224Y031809D02*
X028718Y031809D01*
X028937Y031651D02*
X029004Y031651D01*
X028224Y031809D02*
X027718Y031809D01*
X027937Y031651D02*
X028004Y031651D01*
X027224Y031809D02*
X026718Y031809D01*
X026937Y031651D02*
X027004Y031651D01*
X026356Y031968D02*
X035028Y031968D01*
X034950Y032127D02*
X026197Y032127D01*
X026039Y032285D02*
X034827Y032285D01*
X034639Y032444D02*
X001063Y032444D01*
X000874Y032285D02*
X021663Y032285D01*
X021504Y032127D02*
X000751Y032127D01*
X000673Y031968D02*
X020337Y031968D01*
X019780Y031809D02*
X019625Y031809D01*
X019625Y031651D02*
X019780Y031651D01*
X019624Y031548D02*
X019624Y031393D01*
X019010Y031393D01*
X019010Y031132D01*
X019023Y031086D01*
X019046Y031045D01*
X019080Y031012D01*
X019121Y030988D01*
X019167Y030976D01*
X019625Y030976D01*
X019625Y031393D01*
X019780Y031393D01*
X019780Y030976D01*
X020238Y030976D01*
X020283Y030988D01*
X020322Y031010D01*
X020336Y030975D01*
X020426Y030885D01*
X020544Y030836D01*
X021695Y030836D01*
X021813Y030885D01*
X021851Y030923D01*
X021851Y030517D01*
X021945Y030290D01*
X021979Y030255D01*
X021313Y030255D01*
X021152Y030188D01*
X021028Y030065D01*
X020961Y029903D01*
X020961Y029728D01*
X020961Y027907D01*
X021028Y027745D01*
X021152Y027621D01*
X021219Y027593D01*
X021183Y027593D01*
X020892Y027473D01*
X020841Y027421D01*
X020841Y027613D01*
X020907Y027679D01*
X020956Y027797D01*
X020956Y028948D01*
X020907Y029065D01*
X020817Y029155D01*
X020781Y029170D01*
X020803Y029208D01*
X020816Y029254D01*
X020816Y029712D01*
X020399Y029712D01*
X020399Y029867D01*
X020816Y029867D01*
X020816Y030325D01*
X020803Y030371D01*
X020780Y030412D01*
X020746Y030445D01*
X020705Y030469D01*
X020659Y030481D01*
X020398Y030481D01*
X020398Y029867D01*
X020243Y029867D01*
X020243Y029712D01*
X019826Y029712D01*
X019826Y029254D01*
X019838Y029208D01*
X019860Y029170D01*
X019825Y029155D01*
X019735Y029065D01*
X019686Y028948D01*
X019686Y028841D01*
X019664Y028841D01*
X019457Y028841D01*
X019248Y028841D01*
X019248Y028936D01*
X019199Y029054D01*
X019109Y029144D01*
X019108Y029144D01*
X019108Y029307D01*
X018749Y029307D01*
X018749Y029344D01*
X018712Y029344D01*
X018712Y029307D01*
X018354Y029307D01*
X018354Y029144D01*
X018353Y029144D01*
X018263Y029054D01*
X018214Y028936D01*
X018214Y028841D01*
X017948Y028841D01*
X017942Y028846D01*
X017818Y028898D01*
X017842Y028910D01*
X017903Y028955D01*
X017957Y029008D01*
X018001Y029069D01*
X018036Y029136D01*
X018059Y029208D01*
X018071Y029283D01*
X018071Y029301D01*
X017311Y029301D01*
X017311Y029341D01*
X017271Y029341D01*
X017271Y029801D01*
X016953Y029801D01*
X016878Y029789D01*
X016806Y029766D01*
X016739Y029731D01*
X016678Y029687D01*
X016625Y029633D01*
X016580Y029572D01*
X016546Y029505D01*
X016523Y029433D01*
X016511Y029359D01*
X016511Y029341D01*
X017271Y029341D01*
X017271Y029301D01*
X016511Y029301D01*
X016511Y029283D01*
X016523Y029208D01*
X016546Y029136D01*
X016580Y029069D01*
X016625Y029008D01*
X016678Y028955D01*
X016739Y028910D01*
X016764Y028898D01*
X016640Y028846D01*
X016465Y028672D01*
X016371Y028444D01*
X016371Y028197D01*
X016465Y027970D01*
X016614Y027821D01*
X016465Y027672D01*
X016371Y027444D01*
X016371Y027197D01*
X016465Y026970D01*
X016614Y026821D01*
X016465Y026672D01*
X016371Y026444D01*
X016371Y026197D01*
X016465Y025970D01*
X016614Y025821D01*
X016465Y025672D01*
X016371Y025444D01*
X016371Y025197D01*
X016465Y024970D01*
X016614Y024821D01*
X016465Y024672D01*
X016371Y024444D01*
X016371Y024197D01*
X016465Y023970D01*
X016614Y023821D01*
X016465Y023672D01*
X016371Y023444D01*
X016371Y023197D01*
X016465Y022970D01*
X016614Y022821D01*
X016465Y022672D01*
X016371Y022444D01*
X016371Y022197D01*
X016465Y021970D01*
X016640Y021795D01*
X016764Y021744D01*
X016739Y021731D01*
X016678Y021687D01*
X016625Y021633D01*
X016580Y021572D01*
X016546Y021505D01*
X016523Y021433D01*
X016511Y021359D01*
X016511Y021341D01*
X017271Y021341D01*
X017271Y021301D01*
X017311Y021301D01*
X017311Y021341D01*
X018071Y021341D01*
X018071Y021359D01*
X018059Y021433D01*
X018036Y021505D01*
X018001Y021572D01*
X017957Y021633D01*
X017903Y021687D01*
X017842Y021731D01*
X017818Y021744D01*
X017942Y021795D01*
X018028Y021881D01*
X018600Y021881D01*
X018459Y021740D01*
X018338Y021448D01*
X018338Y021234D01*
X015907Y018802D01*
X012527Y018802D01*
X009456Y018802D01*
X009456Y018858D01*
X009407Y018975D01*
X009317Y019065D01*
X009281Y019080D01*
X009303Y019118D01*
X009316Y019164D01*
X009316Y019622D01*
X008899Y019622D01*
X008899Y019777D01*
X009316Y019777D01*
X009316Y020235D01*
X009303Y020281D01*
X009280Y020322D01*
X009246Y020355D01*
X009205Y020379D01*
X009159Y020391D01*
X008898Y020391D01*
X008898Y019777D01*
X008743Y019777D01*
X008743Y019622D01*
X008326Y019622D01*
X008326Y019164D01*
X008338Y019118D01*
X008360Y019080D01*
X008325Y019065D01*
X008235Y018975D01*
X008186Y018858D01*
X008186Y018802D01*
X008095Y018802D01*
X008095Y019182D01*
X008046Y019300D01*
X007956Y019390D01*
X007838Y019439D01*
X006924Y019439D01*
X006806Y019390D01*
X006716Y019300D01*
X006667Y019182D01*
X006667Y018891D01*
X005522Y018891D01*
X005476Y018937D01*
X005470Y018940D01*
X005474Y018957D01*
X005474Y019209D01*
X004969Y019209D01*
X004969Y019344D01*
X005474Y019344D01*
X005474Y019595D01*
X005462Y019641D01*
X005438Y019682D01*
X005405Y019716D01*
X005364Y019739D01*
X005318Y019752D01*
X004968Y019752D01*
X004968Y019344D01*
X004833Y019344D01*
X004833Y019752D01*
X004483Y019752D01*
X004437Y019739D01*
X004396Y019716D01*
X004363Y019682D01*
X004355Y019668D01*
X004317Y019690D01*
X004271Y019702D01*
X004069Y019702D01*
X004069Y019324D01*
X004032Y019324D01*
X004032Y019287D01*
X003674Y019287D01*
X003674Y019124D01*
X003673Y019124D01*
X003583Y019034D01*
X003534Y018916D01*
X003534Y018747D01*
X003531Y018740D01*
X003531Y018533D01*
X003534Y018525D01*
X003534Y018356D01*
X003583Y018238D01*
X003673Y018148D01*
X003682Y018145D01*
X003674Y018116D01*
X003674Y017894D01*
X004032Y017894D01*
X004032Y017857D01*
X003674Y017857D01*
X003674Y017694D01*
X003673Y017694D01*
X003583Y017604D01*
X003534Y017486D01*
X003534Y017332D01*
X003531Y017324D01*
X003531Y017117D01*
X003531Y017103D01*
X003534Y017095D01*
X003534Y016926D01*
X003583Y016808D01*
X003673Y016718D01*
X003790Y016670D01*
X004311Y016670D01*
X004381Y016698D01*
X004381Y016596D01*
X004244Y016596D01*
X004126Y016547D01*
X004036Y016457D01*
X004022Y016421D01*
X003983Y016443D01*
X003938Y016456D01*
X003480Y016456D01*
X003480Y016039D01*
X003325Y016039D01*
X003325Y016456D01*
X002867Y016456D01*
X002821Y016443D01*
X002780Y016420D01*
X002746Y016386D01*
X002723Y016345D01*
X002710Y016299D01*
X002710Y016038D01*
X003324Y016038D01*
X003324Y015883D01*
X002710Y015883D01*
X002710Y015622D01*
X002723Y015576D01*
X002746Y015535D01*
X002780Y015502D01*
X002821Y015478D01*
X002867Y015466D01*
X003325Y015466D01*
X003325Y015883D01*
X003480Y015883D01*
X003480Y015466D01*
X003938Y015466D01*
X003983Y015478D01*
X004022Y015500D01*
X004036Y015465D01*
X004126Y015375D01*
X004244Y015326D01*
X004299Y015326D01*
X004299Y015289D01*
X004295Y015289D01*
X004177Y015241D01*
X004087Y015151D01*
X004038Y015033D01*
X004038Y014092D01*
X003993Y014137D01*
X003932Y014181D01*
X003865Y014216D01*
X003793Y014239D01*
X003719Y014251D01*
X003401Y014251D01*
X003401Y013791D01*
X004139Y013791D01*
X004177Y013753D01*
X004295Y013704D01*
X005367Y013704D01*
X005484Y013753D01*
X005574Y013843D01*
X005623Y013961D01*
X005623Y015033D01*
X005574Y015151D01*
X005484Y015241D01*
X005367Y015289D01*
X005339Y015289D01*
X005339Y015326D01*
X005395Y015326D01*
X005513Y015375D01*
X005603Y015465D01*
X005651Y015582D01*
X005651Y016339D01*
X005603Y016457D01*
X005513Y016547D01*
X005421Y016585D01*
X005421Y016876D01*
X005476Y016899D01*
X005566Y016989D01*
X005614Y017106D01*
X005614Y017824D01*
X005603Y017851D01*
X006391Y017851D01*
X006391Y010520D01*
X006391Y009351D01*
X006391Y006746D01*
X006344Y006699D01*
X006264Y006506D01*
X006264Y006296D01*
X006344Y006102D01*
X006492Y005954D01*
X006686Y005874D01*
X006896Y005874D01*
X007089Y005954D01*
X007237Y006102D01*
X007317Y006296D01*
X007317Y006506D01*
X007237Y006699D01*
X007191Y006746D01*
X007191Y008304D01*
X007336Y008244D01*
X007546Y008244D01*
X007739Y008324D01*
X007746Y008331D01*
X008703Y008331D01*
X008878Y008331D01*
X011156Y008331D01*
X011162Y008324D01*
X011356Y008244D01*
X011566Y008244D01*
X011759Y008324D01*
X011907Y008472D01*
X011987Y008666D01*
X011987Y008876D01*
X011907Y009069D01*
X011759Y009217D01*
X011566Y009297D01*
X011356Y009297D01*
X011162Y009217D01*
X011156Y009211D01*
X009252Y009211D01*
X009252Y009461D01*
X009320Y009461D01*
X012790Y009461D01*
X012858Y009393D01*
X012976Y009344D01*
X013536Y009344D01*
X013654Y009393D01*
X013744Y009483D01*
X013744Y009484D01*
X013907Y009484D01*
X013907Y009842D01*
X013944Y009842D01*
X013944Y009484D01*
X014018Y009484D01*
X014018Y008236D01*
X013852Y008167D01*
X013704Y008019D01*
X013624Y007826D01*
X013624Y007616D01*
X013647Y007561D01*
X013571Y007561D01*
X013424Y007500D01*
X013312Y007387D01*
X013251Y007240D01*
X013251Y007081D01*
X013251Y006575D01*
X013246Y006577D01*
X013036Y006577D01*
X012842Y006497D01*
X012836Y006491D01*
X012333Y006491D01*
X012172Y006424D01*
X012048Y006300D01*
X011981Y006138D01*
X011981Y005963D01*
X011981Y005479D01*
X011963Y005436D01*
X011963Y004974D01*
X011998Y004890D01*
X011963Y004806D01*
X011963Y004374D01*
X011854Y004328D01*
X011764Y004238D01*
X011715Y004121D01*
X011715Y003009D01*
X011764Y002892D01*
X011854Y002802D01*
X011972Y002753D01*
X012868Y002753D01*
X012837Y002680D01*
X012837Y002482D01*
X012913Y002299D01*
X013053Y002159D01*
X013236Y002084D01*
X013434Y002084D01*
X013616Y002159D01*
X013756Y002299D01*
X013832Y002482D01*
X013832Y002680D01*
X013801Y002753D01*
X014048Y002753D01*
X014354Y002753D01*
X014600Y002753D01*
X014570Y002680D01*
X014570Y002482D01*
X014645Y002299D01*
X014785Y002159D01*
X014968Y002084D01*
X015166Y002084D01*
X015349Y002159D01*
X015488Y002299D01*
X015564Y002482D01*
X015564Y002680D01*
X015534Y002753D01*
X016430Y002753D01*
X016547Y002802D01*
X016637Y002892D01*
X016686Y003009D01*
X016686Y004121D01*
X016637Y004238D01*
X016547Y004328D01*
X016488Y004353D01*
X016488Y004528D01*
X016129Y004528D01*
X016129Y004565D01*
X016488Y004565D01*
X016488Y004727D01*
X016489Y004728D01*
X016579Y004818D01*
X016613Y004901D01*
X016854Y004901D01*
X016865Y004876D01*
X016955Y004786D01*
X016990Y004772D01*
X016968Y004733D01*
X016956Y004688D01*
X016956Y004230D01*
X017373Y004230D01*
X017373Y004075D01*
X016956Y004075D01*
X016956Y003617D01*
X016968Y003571D01*
X016992Y003530D01*
X017025Y003496D01*
X017066Y003473D01*
X017112Y003460D01*
X017373Y003460D01*
X017373Y004074D01*
X017528Y004074D01*
X017528Y003460D01*
X017789Y003460D01*
X017835Y003473D01*
X017876Y003496D01*
X017910Y003530D01*
X017933Y003571D01*
X017946Y003617D01*
X017946Y004075D01*
X017529Y004075D01*
X017529Y004230D01*
X017946Y004230D01*
X017946Y004688D01*
X017933Y004733D01*
X017911Y004772D01*
X017947Y004786D01*
X018037Y004876D01*
X018086Y004994D01*
X018086Y006145D01*
X018037Y006263D01*
X017947Y006353D01*
X017829Y006401D01*
X017072Y006401D01*
X016955Y006353D01*
X016865Y006263D01*
X016816Y006145D01*
X016816Y005781D01*
X016168Y005781D01*
X015948Y006001D01*
X016163Y006001D01*
X016338Y006001D01*
X016500Y006068D01*
X016790Y006358D01*
X016914Y006482D01*
X016981Y006643D01*
X016981Y006653D01*
X017042Y006714D01*
X017091Y006832D01*
X017091Y007589D01*
X017042Y007707D01*
X016952Y007797D01*
X016834Y007846D01*
X016247Y007846D01*
X016241Y007843D01*
X016234Y007846D01*
X015928Y007846D01*
X015823Y007951D01*
X015887Y008106D01*
X015887Y008316D01*
X015807Y008509D01*
X015659Y008657D01*
X015466Y008737D01*
X015256Y008737D01*
X015133Y008687D01*
X015133Y009832D01*
X015165Y009832D01*
X015165Y009474D01*
X015327Y009474D01*
X015328Y009473D01*
X015418Y009383D01*
X015535Y009334D01*
X015951Y009334D01*
X015951Y009307D01*
X016012Y009160D01*
X016124Y009047D01*
X016271Y008986D01*
X016495Y008986D01*
X016583Y008898D01*
X016700Y008850D01*
X017221Y008850D01*
X017339Y008898D01*
X017387Y008946D01*
X018581Y008946D01*
X018581Y007017D01*
X018629Y006899D01*
X018719Y006809D01*
X018837Y006761D01*
X019724Y006761D01*
X019842Y006809D01*
X019932Y006899D01*
X019981Y007017D01*
X019981Y009244D01*
X019932Y009362D01*
X019842Y009452D01*
X019724Y009501D01*
X019710Y009501D01*
X019654Y009635D01*
X019530Y009759D01*
X019368Y009826D01*
X019193Y009826D01*
X017387Y009826D01*
X017339Y009874D01*
X017338Y009874D01*
X017338Y010037D01*
X016979Y010037D01*
X016979Y010074D01*
X016942Y010074D01*
X016942Y010452D01*
X016942Y010767D01*
X016979Y010767D01*
X016979Y010452D01*
X016979Y010074D01*
X017338Y010074D01*
X017338Y010296D01*
X017325Y010341D01*
X017302Y010382D01*
X017268Y010416D01*
X017260Y010421D01*
X017268Y010426D01*
X017302Y010459D01*
X017325Y010500D01*
X017338Y010546D01*
X017338Y010768D01*
X016979Y010768D01*
X016979Y010805D01*
X017338Y010805D01*
X017338Y010967D01*
X017339Y010968D01*
X017385Y011014D01*
X018581Y011008D01*
X018581Y010817D01*
X018629Y010699D01*
X018719Y010609D01*
X018837Y010561D01*
X019724Y010561D01*
X019842Y010609D01*
X019932Y010699D01*
X019981Y010817D01*
X019981Y013044D01*
X019932Y013162D01*
X019842Y013252D01*
X019724Y013301D01*
X018837Y013301D01*
X018719Y013252D01*
X018629Y013162D01*
X018581Y013044D01*
X018581Y011888D01*
X017389Y011894D01*
X017347Y011935D01*
X017355Y011950D01*
X017368Y011996D01*
X017368Y012218D01*
X017009Y012218D01*
X017009Y012255D01*
X017368Y012255D01*
X017368Y012417D01*
X017369Y012418D01*
X017459Y012508D01*
X017508Y012625D01*
X017508Y013064D01*
X017586Y013064D01*
X017704Y013113D01*
X017794Y013203D01*
X017842Y013321D01*
X017842Y013881D01*
X017794Y013999D01*
X017786Y014006D01*
X017794Y014013D01*
X017842Y014131D01*
X017842Y014691D01*
X017794Y014809D01*
X017725Y014877D01*
X017725Y015020D01*
X017711Y015055D01*
X017739Y015067D01*
X017801Y015108D01*
X017853Y015161D01*
X017895Y015222D01*
X017923Y015291D01*
X017938Y015364D01*
X017938Y015382D01*
X017579Y015382D01*
X017579Y015419D01*
X017938Y015419D01*
X017938Y015438D01*
X017923Y015511D01*
X018452Y015511D01*
X018453Y015511D01*
X018532Y015511D01*
X018610Y015511D01*
X018611Y015511D01*
X018612Y015511D01*
X018683Y015541D01*
X018757Y015572D01*
X018758Y015572D01*
X018759Y015572D01*
X018811Y015626D01*
X018870Y015684D01*
X018870Y015685D01*
X018871Y015685D01*
X018900Y015757D01*
X018931Y015831D01*
X018931Y015832D01*
X018931Y015833D01*
X018931Y015885D01*
X023381Y011435D01*
X023381Y007194D01*
X023381Y006987D01*
X023460Y006796D01*
X025560Y004696D01*
X025706Y004550D01*
X025897Y004471D01*
X026997Y004471D01*
X027204Y004471D01*
X027395Y004550D01*
X028069Y005224D01*
X028073Y005226D01*
X028142Y005297D01*
X028186Y005341D01*
X028191Y005319D01*
X028241Y005185D01*
X028310Y005060D01*
X028395Y004946D01*
X028496Y004845D01*
X028610Y004760D01*
X028735Y004691D01*
X028869Y004641D01*
X029008Y004611D01*
X029151Y004601D01*
X034101Y004601D01*
X034243Y004591D01*
X034383Y004560D01*
X034516Y004510D01*
X034641Y004442D01*
X034756Y004357D01*
X034857Y004256D01*
X034942Y004141D01*
X035010Y004016D01*
X035060Y003883D01*
X035091Y003743D01*
X035101Y003601D01*
X035101Y001601D01*
X035091Y001458D01*
X035060Y001319D01*
X035010Y001185D01*
X034942Y001060D01*
X034857Y000946D01*
X034756Y000845D01*
X034641Y000760D01*
X034516Y000691D01*
X034383Y000641D01*
X034243Y000611D01*
X034101Y000601D01*
X016462Y000601D01*
X016547Y000636D01*
X016637Y000726D01*
X016686Y000844D01*
X016686Y001955D01*
X016637Y002073D01*
X016547Y002163D01*
X016430Y002212D01*
X015515Y002212D01*
X015397Y002163D01*
X015307Y002073D01*
X015259Y001955D01*
X015259Y000844D01*
X015307Y000726D01*
X015397Y000636D01*
X015483Y000601D01*
X012918Y000601D01*
X013004Y000636D01*
X013094Y000726D01*
X013143Y000844D01*
X013143Y001955D01*
X013094Y002073D01*
X013004Y002163D01*
X012886Y002212D01*
X011972Y002212D01*
X011854Y002163D01*
X011764Y002073D01*
X011715Y001955D01*
X011715Y000844D01*
X011764Y000726D01*
X011854Y000636D01*
X011940Y000601D01*
X001601Y000601D01*
X001458Y000611D01*
X001319Y000641D01*
X001185Y000691D01*
X001060Y000760D01*
X000946Y000845D01*
X000845Y000946D01*
X000760Y001060D01*
X000691Y001185D01*
X000641Y001319D01*
X000611Y001458D01*
X000601Y001601D01*
X000601Y025351D01*
X000611Y025493D01*
X000641Y025633D01*
X000691Y025766D01*
X000760Y025891D01*
X000845Y026006D01*
X000946Y026107D01*
X001060Y026192D01*
X001185Y026260D01*
X016371Y026260D01*
X016371Y026419D02*
X005957Y026419D01*
X006016Y026441D02*
X005883Y026391D01*
X005743Y026361D01*
X005601Y026351D01*
X001601Y026351D01*
X001458Y026341D01*
X001319Y026310D01*
X001185Y026260D01*
X000941Y026102D02*
X016410Y026102D01*
X016491Y025943D02*
X000798Y025943D01*
X000701Y025785D02*
X016578Y025785D01*
X016446Y025626D02*
X000640Y025626D01*
X000609Y025468D02*
X016381Y025468D01*
X016371Y025309D02*
X000601Y025309D01*
X000601Y025151D02*
X016390Y025151D01*
X016456Y024992D02*
X000601Y024992D01*
X000601Y024834D02*
X016601Y024834D01*
X016468Y024675D02*
X000601Y024675D01*
X000601Y024516D02*
X016401Y024516D01*
X016371Y024358D02*
X000601Y024358D01*
X000601Y024199D02*
X016371Y024199D01*
X016436Y024041D02*
X000601Y024041D01*
X000601Y023882D02*
X016552Y023882D01*
X016517Y023724D02*
X000601Y023724D01*
X000601Y023565D02*
X016421Y023565D01*
X016371Y023407D02*
X000601Y023407D01*
X000601Y023248D02*
X016371Y023248D01*
X016415Y023090D02*
X000601Y023090D01*
X000601Y022931D02*
X016504Y022931D01*
X016566Y022772D02*
X000601Y022772D01*
X000601Y022614D02*
X016441Y022614D01*
X016375Y022455D02*
X000601Y022455D01*
X000601Y022297D02*
X016371Y022297D01*
X016395Y022138D02*
X000601Y022138D01*
X000601Y021980D02*
X016461Y021980D01*
X016614Y021821D02*
X000601Y021821D01*
X000601Y021663D02*
X016654Y021663D01*
X016546Y021504D02*
X000601Y021504D01*
X000601Y021346D02*
X016511Y021346D01*
X016511Y021301D02*
X016511Y021283D01*
X016523Y021208D01*
X016546Y021136D01*
X016580Y021069D01*
X016625Y021008D01*
X016678Y020955D01*
X016739Y020910D01*
X016806Y020876D01*
X016878Y020853D01*
X016953Y020841D01*
X017271Y020841D01*
X017271Y021301D01*
X016511Y021301D01*
X016529Y021187D02*
X000601Y021187D01*
X000601Y021029D02*
X016610Y021029D01*
X016825Y020870D02*
X000601Y020870D01*
X000601Y020711D02*
X017816Y020711D01*
X017757Y020870D02*
X017975Y020870D01*
X017903Y020955D02*
X017957Y021008D01*
X018001Y021069D01*
X018036Y021136D01*
X018059Y021208D01*
X018071Y021283D01*
X018071Y021301D01*
X017311Y021301D01*
X017311Y020841D01*
X017629Y020841D01*
X017703Y020853D01*
X017775Y020876D01*
X017842Y020910D01*
X017903Y020955D01*
X017972Y021029D02*
X018133Y021029D01*
X018052Y021187D02*
X018292Y021187D01*
X018338Y021346D02*
X018071Y021346D01*
X018036Y021504D02*
X018361Y021504D01*
X018427Y021663D02*
X017928Y021663D01*
X017968Y021821D02*
X018541Y021821D01*
X019131Y021351D02*
X019131Y021291D01*
X020171Y020561D02*
X020351Y020741D01*
X020551Y020741D01*
X020171Y020561D02*
X020161Y016811D01*
X021841Y015141D01*
X021911Y015621D02*
X021081Y016451D01*
X021081Y018296D01*
X023721Y020936D01*
X023321Y021346D02*
X022911Y020936D01*
X023321Y021346D02*
X023321Y022091D01*
X023701Y022471D01*
X024001Y022471D01*
X023777Y022781D02*
X023777Y023286D01*
X025481Y023286D01*
X025471Y025051D01*
X025801Y025381D01*
X025801Y025541D01*
X026206Y025726D02*
X026731Y026251D01*
X026376Y026606D01*
X026376Y027144D01*
X026376Y028221D01*
X026535Y028381D01*
X026545Y028586D01*
X026361Y028771D01*
X026021Y028771D01*
X025995Y028790D01*
X026014Y028771D01*
X027081Y028771D01*
X027081Y028901D01*
X027471Y029311D02*
X026535Y029311D01*
X026535Y029201D01*
X026517Y028684D02*
X026517Y028399D01*
X026554Y028399D01*
X026554Y028684D01*
X026517Y028684D01*
X026517Y028639D02*
X026554Y028639D01*
X026554Y028480D02*
X026517Y028480D01*
X027091Y028181D02*
X027471Y028181D01*
X027471Y029311D01*
X028631Y029311D01*
X028631Y029051D01*
X028631Y029201D01*
X028366Y027861D02*
X031101Y027861D01*
X032291Y029051D01*
X032431Y029051D01*
X032156Y028351D02*
X033287Y028351D01*
X033241Y028238D01*
X033241Y028063D01*
X033241Y019942D01*
X033095Y019942D01*
X033117Y019996D01*
X033117Y020206D01*
X033037Y020399D01*
X032991Y020446D01*
X032991Y021711D01*
X032991Y021870D01*
X032930Y022017D01*
X032671Y022276D01*
X032671Y027100D01*
X032610Y027247D01*
X032497Y027360D01*
X032350Y027421D01*
X032191Y027421D01*
X029432Y027421D01*
X029432Y027432D01*
X029054Y027432D01*
X029054Y027461D01*
X031021Y027461D01*
X031180Y027461D01*
X031327Y027522D01*
X032156Y028351D01*
X032127Y028321D02*
X033275Y028321D01*
X033241Y028163D02*
X031969Y028163D01*
X031810Y028004D02*
X033241Y028004D01*
X033241Y027846D02*
X031652Y027846D01*
X031493Y027687D02*
X033241Y027687D01*
X033241Y027529D02*
X031334Y027529D01*
X030901Y027451D02*
X029035Y027451D01*
X028366Y027451D02*
X028366Y027861D01*
X028366Y027646D02*
X028366Y027451D01*
X028366Y027646D02*
X027006Y027646D01*
X027006Y027144D01*
X027321Y027144D02*
X027321Y026771D01*
X027631Y026461D01*
X027701Y026461D01*
X027961Y026721D01*
X031941Y026721D01*
X031941Y020401D01*
X032591Y020101D02*
X032591Y021791D01*
X032271Y022111D01*
X032271Y027021D01*
X027759Y027021D01*
X027636Y027144D01*
X026997Y026529D02*
X027094Y026432D01*
X027311Y026215D01*
X027264Y026169D01*
X027184Y025976D01*
X027184Y025766D01*
X027215Y025691D01*
X027149Y025757D01*
X026956Y025837D01*
X026746Y025837D01*
X026552Y025757D01*
X026404Y025609D01*
X026324Y025416D01*
X026324Y025206D01*
X026404Y025012D01*
X026451Y024966D01*
X026451Y024826D01*
X025885Y024826D01*
X025872Y024826D01*
X025872Y024886D01*
X026027Y025042D01*
X026027Y025042D01*
X026066Y025081D01*
X026099Y025094D01*
X026247Y025242D01*
X026327Y025436D01*
X026327Y025646D01*
X026247Y025839D01*
X026230Y025857D01*
X026369Y025914D01*
X026517Y026062D01*
X026597Y026256D01*
X026597Y026466D01*
X026571Y026529D01*
X026853Y026529D01*
X026997Y026529D01*
X027107Y026419D02*
X026597Y026419D01*
X026597Y026260D02*
X027265Y026260D01*
X027236Y026102D02*
X026534Y026102D01*
X026398Y025943D02*
X027184Y025943D01*
X027184Y025785D02*
X027083Y025785D01*
X026619Y025785D02*
X026270Y025785D01*
X026206Y025726D02*
X026206Y024901D01*
X026425Y024992D02*
X025978Y024992D01*
X025872Y024834D02*
X026451Y024834D01*
X026347Y025151D02*
X026155Y025151D01*
X026275Y025309D02*
X026324Y025309D01*
X026327Y025468D02*
X026346Y025468D01*
X026327Y025626D02*
X026421Y025626D01*
X026851Y025311D02*
X026851Y024426D01*
X025806Y024426D01*
X025806Y023636D01*
X027006Y023636D01*
X027006Y022577D01*
X027321Y022577D02*
X027321Y021976D01*
X027691Y021605D01*
X027801Y022031D02*
X028885Y022031D01*
X029301Y021605D01*
X029301Y020936D02*
X029511Y020936D01*
X029511Y019851D01*
X027471Y017821D01*
X027471Y016941D01*
X026471Y016941D02*
X026471Y017541D01*
X025961Y018051D01*
X025381Y018051D01*
X024971Y017641D01*
X024971Y016331D01*
X024661Y016021D01*
X022101Y016021D01*
X021641Y016481D01*
X021641Y018081D01*
X024496Y020936D01*
X024531Y020936D01*
X024531Y021605D02*
X024801Y021876D01*
X024801Y022577D01*
X025116Y022577D02*
X025116Y021506D01*
X025051Y021441D01*
X025431Y020901D02*
X025431Y022577D01*
X025746Y022577D02*
X025746Y020716D01*
X023471Y018441D01*
X023471Y016941D01*
X024471Y016941D02*
X024471Y018931D01*
X026061Y020521D01*
X026061Y022577D01*
X026376Y022577D02*
X026376Y020936D01*
X026871Y020936D01*
X026871Y020561D01*
X026691Y020381D01*
X026650Y020540D02*
X026852Y020540D01*
X026852Y020917D01*
X026889Y020917D01*
X026889Y020540D01*
X027091Y020540D01*
X027137Y020552D01*
X027178Y020576D01*
X027191Y020588D01*
X027196Y020574D01*
X027183Y020562D01*
X027135Y020444D01*
X027135Y019844D01*
X027182Y019731D01*
X027177Y019721D01*
X026891Y019721D01*
X026744Y019660D01*
X026632Y019547D01*
X026571Y019400D01*
X026571Y019241D01*
X026571Y018006D01*
X026187Y018390D01*
X026040Y018451D01*
X025881Y018451D01*
X025301Y018451D01*
X025154Y018390D01*
X025042Y018277D01*
X024871Y018106D01*
X024871Y018765D01*
X026400Y020294D01*
X026461Y020441D01*
X026461Y020600D01*
X026461Y021150D01*
X026493Y021118D01*
X026494Y021117D01*
X026494Y020955D01*
X026852Y020955D01*
X026852Y020918D01*
X026494Y020918D01*
X026494Y020696D01*
X026506Y020650D01*
X026530Y020609D01*
X026563Y020576D01*
X026604Y020552D01*
X026650Y020540D01*
X026603Y020553D02*
X026461Y020553D01*
X026461Y020711D02*
X026494Y020711D01*
X026494Y020870D02*
X026461Y020870D01*
X026461Y021029D02*
X026494Y021029D01*
X026852Y020870D02*
X026889Y020870D01*
X026889Y020711D02*
X026852Y020711D01*
X026852Y020553D02*
X026889Y020553D01*
X027139Y020553D02*
X027180Y020553D01*
X027135Y020394D02*
X026441Y020394D01*
X026341Y020236D02*
X027135Y020236D01*
X027135Y020077D02*
X026183Y020077D01*
X026024Y019919D02*
X027135Y019919D01*
X027169Y019760D02*
X025866Y019760D01*
X025707Y019602D02*
X026686Y019602D01*
X026589Y019443D02*
X025549Y019443D01*
X025390Y019285D02*
X026571Y019285D01*
X026571Y019126D02*
X025232Y019126D01*
X025073Y018967D02*
X026571Y018967D01*
X026571Y018809D02*
X024915Y018809D01*
X024871Y018650D02*
X026571Y018650D01*
X026571Y018492D02*
X024871Y018492D01*
X024871Y018333D02*
X025098Y018333D01*
X024939Y018175D02*
X024871Y018175D01*
X025471Y016941D02*
X025471Y016091D01*
X025001Y015621D01*
X021911Y015621D01*
X022471Y016941D02*
X022471Y017941D01*
X025431Y020901D01*
X026691Y021605D02*
X026871Y021605D01*
X026691Y021605D02*
X026691Y022577D01*
X026691Y023181D01*
X026621Y023251D01*
X026221Y024031D02*
X027811Y024031D01*
X027811Y024861D01*
X028344Y024861D01*
X028344Y025176D02*
X028344Y025181D01*
X027501Y025181D01*
X027501Y024411D01*
X027401Y024411D01*
X027901Y023601D02*
X028344Y023601D01*
X028344Y023916D02*
X028806Y023916D01*
X028991Y023731D01*
X029011Y024151D02*
X028931Y024231D01*
X028344Y024231D01*
X028344Y024546D02*
X029316Y024546D01*
X029316Y024571D01*
X029301Y024151D02*
X029011Y024151D01*
X029301Y024151D02*
X029561Y023891D01*
X029561Y023761D01*
X029556Y023761D01*
X029036Y023286D02*
X028344Y023286D01*
X027901Y023601D02*
X027571Y023271D01*
X027636Y022577D02*
X027636Y022196D01*
X027801Y022031D01*
X029036Y022951D02*
X029036Y023286D01*
X029705Y022951D02*
X029831Y022951D01*
X029831Y019341D01*
X028471Y017991D01*
X028471Y016941D01*
X029471Y016941D02*
X029461Y018221D01*
X030151Y018911D01*
X030161Y023761D01*
X030225Y023761D01*
X030991Y023724D02*
X031031Y023724D01*
X031031Y023882D02*
X030991Y023882D01*
X030991Y024041D02*
X031031Y024041D01*
X031031Y024199D02*
X030991Y024199D01*
X030991Y024358D02*
X031031Y024358D01*
X030991Y024491D02*
X030991Y024650D01*
X030930Y024797D01*
X030817Y024910D01*
X030670Y024971D01*
X030451Y024971D01*
X030364Y025059D01*
X030246Y025107D01*
X029838Y025107D01*
X029838Y025218D01*
X029479Y025218D01*
X029479Y025255D01*
X029780Y025255D01*
X029926Y025194D01*
X030136Y025194D01*
X030329Y025274D01*
X030376Y025321D01*
X031031Y025321D01*
X031031Y022007D01*
X030991Y022007D01*
X030991Y024491D01*
X030991Y024516D02*
X031031Y024516D01*
X031031Y024675D02*
X030981Y024675D01*
X031031Y024834D02*
X030894Y024834D01*
X031031Y024992D02*
X030430Y024992D01*
X030364Y025309D02*
X031031Y025309D01*
X030901Y025236D02*
X029461Y025236D01*
X029206Y025491D01*
X028344Y025491D01*
X027491Y025491D01*
X026731Y026251D01*
X026071Y026361D02*
X025746Y026686D01*
X025746Y027144D01*
X026061Y027144D02*
X026061Y028206D01*
X025866Y028381D01*
X025876Y028302D01*
X024671Y028302D01*
X023861Y028302D01*
X023861Y029775D01*
X023391Y029775D01*
X023391Y029801D01*
X023392Y029146D02*
X023391Y029145D01*
X024131Y029011D02*
X025361Y029011D01*
X025361Y028741D01*
X025866Y028885D02*
X025866Y029201D01*
X025866Y029491D01*
X024671Y029491D01*
X024671Y029719D01*
X024748Y029642D02*
X024748Y029411D01*
X024593Y029411D01*
X024593Y029642D01*
X024748Y029642D01*
X024748Y029590D02*
X024593Y029590D01*
X024593Y029431D02*
X024748Y029431D01*
X024131Y029011D02*
X024131Y030601D01*
X024471Y030941D01*
X025866Y028885D02*
X025995Y028790D01*
X025361Y027861D02*
X025216Y027716D01*
X025361Y027856D01*
X025361Y027861D01*
X025216Y027716D02*
X025116Y027616D01*
X025116Y027144D01*
X025431Y027144D02*
X025431Y027144D01*
X025431Y026371D01*
X025141Y025921D02*
X025141Y023601D01*
X023777Y023601D01*
X023001Y023601D01*
X023001Y023091D01*
X022351Y023091D01*
X022101Y022841D01*
X022101Y022225D01*
X022101Y021605D01*
X021551Y021351D02*
X021551Y023431D01*
X022541Y023431D01*
X022541Y023776D01*
X022681Y023916D01*
X023777Y023916D01*
X023777Y024231D02*
X022771Y024231D01*
X022451Y024551D01*
X021971Y024551D01*
X021961Y024516D02*
X022164Y024516D01*
X022164Y024464D02*
X022522Y024464D01*
X022522Y024427D01*
X022164Y024427D01*
X022164Y024264D01*
X022163Y024264D01*
X022073Y024174D01*
X022024Y024056D01*
X022024Y023831D01*
X021961Y023831D01*
X021961Y024776D01*
X022203Y024776D01*
X022200Y024772D01*
X022176Y024731D01*
X022164Y024686D01*
X022164Y024464D01*
X022164Y024358D02*
X021961Y024358D01*
X021961Y024199D02*
X022098Y024199D01*
X022024Y024041D02*
X021961Y024041D01*
X021961Y023882D02*
X022024Y023882D01*
X021561Y023891D02*
X021561Y025176D01*
X023777Y025176D01*
X023777Y025491D02*
X021251Y025491D01*
X021251Y024321D01*
X017291Y024321D01*
X018351Y026031D02*
X018851Y026031D01*
X019141Y026321D01*
X020761Y026321D01*
X020961Y026121D01*
X023777Y026121D01*
X023777Y026436D02*
X022256Y026436D01*
X022151Y026541D01*
X022301Y027167D02*
X023108Y027974D01*
X023101Y027984D01*
X023801Y027805D02*
X023153Y027157D01*
X023101Y027157D01*
X023801Y027136D02*
X024478Y027136D01*
X024486Y027144D01*
X024801Y027144D02*
X024801Y026551D01*
X024461Y026211D01*
X024461Y025451D01*
X024571Y025351D01*
X024921Y025921D02*
X025141Y025921D01*
X024471Y024831D02*
X024471Y024541D01*
X023782Y024541D01*
X023777Y024546D01*
X023777Y024861D02*
X023131Y024861D01*
X023131Y024701D01*
X022755Y024231D02*
X022541Y024445D01*
X022755Y024231D02*
X023777Y024231D01*
X023777Y022781D02*
X022911Y022781D01*
X022911Y021605D01*
X023721Y021605D02*
X024486Y022371D01*
X024486Y022577D01*
X022164Y024675D02*
X021961Y024675D01*
X021561Y023891D02*
X020991Y023891D01*
X020991Y022321D01*
X018091Y019391D02*
X018081Y016546D01*
X016251Y016546D01*
X016261Y015391D01*
X016261Y014721D01*
X014733Y014721D01*
X014733Y014225D01*
X014103Y014225D02*
X014103Y015176D01*
X014111Y015176D01*
X014121Y015171D01*
X015651Y015171D01*
X015641Y015391D01*
X015363Y014225D02*
X016656Y014225D01*
X016656Y014411D01*
X016901Y014941D02*
X017325Y014941D01*
X017325Y014411D01*
X017842Y014370D02*
X020446Y014370D01*
X020288Y014528D02*
X017842Y014528D01*
X017842Y014687D02*
X020129Y014687D01*
X019971Y014845D02*
X017757Y014845D01*
X017725Y015004D02*
X019812Y015004D01*
X019654Y015162D02*
X017855Y015162D01*
X017929Y015321D02*
X019495Y015321D01*
X019337Y015479D02*
X017929Y015479D01*
X017923Y015511D02*
X017923Y015511D01*
X018531Y015911D02*
X016901Y015911D01*
X016901Y015401D01*
X016901Y014941D01*
X017842Y014211D02*
X020605Y014211D01*
X020764Y014053D02*
X017810Y014053D01*
X017837Y013894D02*
X020922Y013894D01*
X021081Y013736D02*
X017842Y013736D01*
X017842Y013577D02*
X021239Y013577D01*
X021398Y013418D02*
X017842Y013418D01*
X017817Y013260D02*
X018738Y013260D01*
X018604Y013101D02*
X017675Y013101D01*
X017508Y012943D02*
X018581Y012943D01*
X018581Y012784D02*
X017508Y012784D01*
X017508Y012626D02*
X018581Y012626D01*
X018581Y012467D02*
X017418Y012467D01*
X017368Y012309D02*
X018581Y012309D01*
X018581Y012150D02*
X017368Y012150D01*
X017366Y011992D02*
X018581Y011992D01*
X018581Y010882D02*
X017338Y010882D01*
X017338Y010723D02*
X018620Y010723D01*
X018828Y010565D02*
X017338Y010565D01*
X017278Y010406D02*
X023381Y010406D01*
X023381Y010248D02*
X017338Y010248D01*
X017338Y010089D02*
X023381Y010089D01*
X023381Y009930D02*
X017338Y009930D01*
X016979Y010089D02*
X016942Y010089D01*
X016942Y010248D02*
X016979Y010248D01*
X016979Y010406D02*
X016942Y010406D01*
X016942Y010565D02*
X016979Y010565D01*
X016979Y010723D02*
X016942Y010723D01*
X016961Y011455D02*
X016961Y011803D01*
X015895Y011803D01*
X015895Y011488D02*
X016351Y011488D01*
X016351Y009386D01*
X016961Y009386D01*
X016502Y008979D02*
X015133Y008979D01*
X015133Y008821D02*
X018581Y008821D01*
X018581Y008662D02*
X015647Y008662D01*
X015810Y008504D02*
X018581Y008504D01*
X018581Y008345D02*
X015875Y008345D01*
X015887Y008186D02*
X018581Y008186D01*
X018581Y008028D02*
X015855Y008028D01*
X015904Y007869D02*
X018581Y007869D01*
X018581Y007711D02*
X017038Y007711D01*
X017091Y007552D02*
X018581Y007552D01*
X018581Y007394D02*
X017091Y007394D01*
X017091Y007235D02*
X018581Y007235D01*
X018581Y007077D02*
X017091Y007077D01*
X017091Y006918D02*
X018622Y006918D01*
X018016Y006284D02*
X023972Y006284D01*
X023814Y006443D02*
X016875Y006443D01*
X016886Y006284D02*
X016716Y006284D01*
X016816Y006125D02*
X016558Y006125D01*
X016816Y005967D02*
X015982Y005967D01*
X016140Y005808D02*
X016816Y005808D01*
X017451Y005569D02*
X017451Y005341D01*
X016884Y004857D02*
X016595Y004857D01*
X016488Y004699D02*
X016959Y004699D01*
X016956Y004540D02*
X016129Y004540D01*
X016111Y004546D02*
X015466Y004546D01*
X015211Y004291D01*
X015211Y003945D01*
X014831Y003565D01*
X014934Y003565D02*
X015109Y003565D01*
X015109Y004070D01*
X015129Y004078D01*
X015219Y004168D01*
X015267Y004286D01*
X015267Y004322D01*
X015400Y004454D01*
X015466Y004454D01*
X015659Y004534D01*
X015734Y004609D01*
X015734Y004565D01*
X016092Y004565D01*
X016092Y004528D01*
X015734Y004528D01*
X015734Y004377D01*
X015515Y004377D01*
X015397Y004328D01*
X015307Y004238D01*
X015259Y004121D01*
X015259Y003039D01*
X015166Y003078D01*
X015109Y003078D01*
X015109Y003565D01*
X014934Y003565D01*
X014934Y003565D01*
X015109Y003589D02*
X015259Y003589D01*
X015259Y003747D02*
X015109Y003747D01*
X015109Y003906D02*
X015259Y003906D01*
X015259Y004064D02*
X015109Y004064D01*
X015241Y004223D02*
X015301Y004223D01*
X015327Y004381D02*
X015734Y004381D01*
X015665Y004540D02*
X016092Y004540D01*
X016488Y004381D02*
X016956Y004381D01*
X016956Y004064D02*
X016686Y004064D01*
X016686Y003906D02*
X016956Y003906D01*
X016956Y003747D02*
X016686Y003747D01*
X016686Y003589D02*
X016963Y003589D01*
X016686Y003430D02*
X035101Y003430D01*
X035101Y003272D02*
X016686Y003272D01*
X016686Y003113D02*
X035101Y003113D01*
X035101Y002955D02*
X016663Y002955D01*
X016534Y002796D02*
X035101Y002796D01*
X035101Y002637D02*
X015564Y002637D01*
X015563Y002479D02*
X035101Y002479D01*
X035101Y002320D02*
X015497Y002320D01*
X015396Y002162D02*
X015351Y002162D01*
X015279Y002003D02*
X013123Y002003D01*
X013143Y001845D02*
X015259Y001845D01*
X015259Y001686D02*
X013143Y001686D01*
X013143Y001528D02*
X015259Y001528D01*
X015259Y001369D02*
X013143Y001369D01*
X013143Y001211D02*
X015259Y001211D01*
X015259Y001052D02*
X013143Y001052D01*
X013143Y000894D02*
X015259Y000894D01*
X015304Y000735D02*
X013098Y000735D01*
X013050Y002162D02*
X013005Y002162D01*
X012904Y002320D02*
X000601Y002320D01*
X000601Y002162D02*
X003091Y002162D01*
X003063Y002151D02*
X002896Y001983D01*
X002805Y001764D01*
X002805Y001527D01*
X002896Y001308D01*
X003063Y001141D01*
X003282Y001050D01*
X003519Y001050D01*
X003738Y001141D01*
X003906Y001308D01*
X003996Y001527D01*
X003996Y001764D01*
X003906Y001983D01*
X003738Y002151D01*
X003519Y002241D01*
X003282Y002241D01*
X003063Y002151D01*
X002916Y002003D02*
X000601Y002003D01*
X000601Y001845D02*
X002839Y001845D01*
X002805Y001686D02*
X000601Y001686D01*
X000606Y001528D02*
X002805Y001528D01*
X002871Y001369D02*
X000630Y001369D01*
X000682Y001211D02*
X002994Y001211D01*
X003278Y001052D02*
X000766Y001052D01*
X000897Y000894D02*
X011715Y000894D01*
X011715Y001052D02*
X003524Y001052D01*
X003808Y001211D02*
X011715Y001211D01*
X011715Y001369D02*
X003931Y001369D01*
X003996Y001528D02*
X011715Y001528D01*
X011715Y001686D02*
X003996Y001686D01*
X003963Y001845D02*
X011715Y001845D01*
X011735Y002003D02*
X003885Y002003D01*
X003711Y002162D02*
X011853Y002162D01*
X011868Y002796D02*
X000601Y002796D01*
X000601Y002637D02*
X012837Y002637D01*
X012839Y002479D02*
X000601Y002479D01*
X000601Y002955D02*
X011738Y002955D01*
X011715Y003113D02*
X000601Y003113D01*
X000601Y003272D02*
X011715Y003272D01*
X011715Y003430D02*
X008732Y003430D01*
X008700Y003398D02*
X008824Y003522D01*
X008891Y003683D01*
X008891Y003858D01*
X008891Y004346D01*
X009344Y004346D01*
X009462Y004394D01*
X009552Y004484D01*
X009601Y004602D01*
X009601Y005359D01*
X009552Y005477D01*
X009491Y005538D01*
X009491Y005839D01*
X010413Y006761D01*
X012276Y006761D01*
X012282Y006754D01*
X012476Y006674D01*
X012686Y006674D01*
X012879Y006754D01*
X013027Y006902D01*
X013107Y007096D01*
X013107Y007306D01*
X013027Y007499D01*
X012879Y007647D01*
X012686Y007727D01*
X012476Y007727D01*
X012282Y007647D01*
X012276Y007641D01*
X010143Y007641D01*
X009982Y007574D01*
X009858Y007450D01*
X008678Y006270D01*
X008611Y006108D01*
X008611Y005933D01*
X008611Y005616D01*
X008157Y005616D01*
X008039Y005567D01*
X007949Y005477D01*
X007901Y005359D01*
X007901Y004602D01*
X007949Y004484D01*
X008011Y004423D01*
X008011Y004211D01*
X005351Y004211D01*
X005351Y004423D01*
X005351Y004598D01*
X005284Y004760D01*
X004314Y005730D01*
X004357Y005836D01*
X004357Y006046D01*
X004277Y006239D01*
X004129Y006387D01*
X003936Y006467D01*
X003726Y006467D01*
X003532Y006387D01*
X003384Y006239D01*
X003304Y006046D01*
X003304Y005836D01*
X003384Y005642D01*
X003391Y005636D01*
X003391Y005503D01*
X003458Y005342D01*
X003582Y005218D01*
X004471Y004329D01*
X004471Y003683D01*
X004538Y003522D01*
X004662Y003398D01*
X004823Y003331D01*
X004998Y003331D01*
X008538Y003331D01*
X008700Y003398D01*
X008852Y003589D02*
X011715Y003589D01*
X011715Y003747D02*
X008891Y003747D01*
X008891Y003906D02*
X011715Y003906D01*
X011715Y004064D02*
X008891Y004064D01*
X008891Y004223D02*
X011758Y004223D01*
X011963Y004381D02*
X009431Y004381D01*
X009575Y004540D02*
X011963Y004540D01*
X011963Y004699D02*
X009601Y004699D01*
X009601Y004857D02*
X011984Y004857D01*
X011963Y005016D02*
X009601Y005016D01*
X009601Y005174D02*
X011963Y005174D01*
X011963Y005333D02*
X009601Y005333D01*
X009538Y005491D02*
X011981Y005491D01*
X011981Y005650D02*
X009491Y005650D01*
X009491Y005808D02*
X011981Y005808D01*
X011981Y005967D02*
X009619Y005967D01*
X009778Y006125D02*
X011981Y006125D01*
X012041Y006284D02*
X009936Y006284D01*
X010095Y006443D02*
X012217Y006443D01*
X012277Y006760D02*
X010412Y006760D01*
X010253Y006601D02*
X013251Y006601D01*
X013251Y006760D02*
X012884Y006760D01*
X013034Y006918D02*
X013251Y006918D01*
X013251Y007077D02*
X013099Y007077D01*
X013107Y007235D02*
X013251Y007235D01*
X013318Y007394D02*
X013071Y007394D01*
X012974Y007552D02*
X013551Y007552D01*
X013624Y007711D02*
X012726Y007711D01*
X012436Y007711D02*
X007191Y007711D01*
X007191Y007869D02*
X013642Y007869D01*
X013713Y008028D02*
X007191Y008028D01*
X007191Y008186D02*
X013899Y008186D01*
X014018Y008345D02*
X011780Y008345D01*
X011920Y008504D02*
X014018Y008504D01*
X014018Y008662D02*
X011986Y008662D01*
X011987Y008821D02*
X014018Y008821D01*
X014018Y008979D02*
X011944Y008979D01*
X011839Y009138D02*
X014018Y009138D01*
X014018Y009296D02*
X011568Y009296D01*
X011353Y009296D02*
X009252Y009296D01*
X009252Y009455D02*
X012796Y009455D01*
X013256Y009861D02*
X013246Y010101D01*
X013798Y010651D01*
X013788Y010957D01*
X013788Y011461D01*
X015363Y011461D01*
X015363Y012433D01*
X015895Y012433D01*
X016501Y012433D01*
X016501Y012905D01*
X016991Y012905D01*
X016991Y012236D02*
X016991Y012118D01*
X015895Y012118D01*
X015363Y011461D02*
X015363Y010957D01*
X015815Y010957D01*
X015815Y009851D01*
X015955Y009296D02*
X015133Y009296D01*
X015133Y009138D02*
X016033Y009138D01*
X015345Y009455D02*
X015133Y009455D01*
X015133Y009613D02*
X015165Y009613D01*
X015165Y009772D02*
X015133Y009772D01*
X015141Y009851D02*
X015146Y009851D01*
X015048Y010451D02*
X015048Y010957D01*
X014733Y010957D02*
X014733Y007161D01*
X013651Y007161D01*
X013651Y005215D01*
X013651Y004546D02*
X013395Y004546D01*
X013051Y004891D01*
X012726Y004575D02*
X012421Y004575D01*
X012726Y004575D02*
X013181Y004121D01*
X013181Y003955D01*
X013571Y003565D01*
X013886Y003565D02*
X013886Y004546D01*
X013651Y004546D01*
X014201Y004546D02*
X014731Y004546D01*
X014926Y004546D01*
X015361Y004981D01*
X014731Y005215D02*
X014741Y006641D01*
X014151Y006641D01*
X014151Y007721D02*
X014418Y007721D01*
X014418Y010957D01*
X014103Y010957D02*
X014103Y009861D01*
X013925Y009861D01*
X013907Y009772D02*
X013944Y009772D01*
X013944Y009613D02*
X013907Y009613D01*
X014018Y009455D02*
X013716Y009455D01*
X013256Y009861D02*
X009241Y009861D01*
X008661Y010441D01*
X007881Y010441D01*
X007621Y010441D01*
X007881Y010441D02*
X007881Y011571D01*
X007461Y011991D01*
X007461Y012411D01*
X007461Y016241D01*
X007461Y016341D01*
X007711Y016591D01*
X007461Y016241D02*
X010091Y016241D01*
X010231Y016101D01*
X011065Y016101D01*
X011321Y015845D01*
X011321Y015231D01*
X011296Y015231D01*
X011321Y015845D02*
X011881Y015845D01*
X014111Y015845D01*
X014111Y016546D02*
X016251Y016546D01*
X015914Y018809D02*
X009456Y018809D01*
X009410Y018967D02*
X016072Y018967D01*
X016231Y019126D02*
X009306Y019126D01*
X009316Y019285D02*
X016389Y019285D01*
X016548Y019443D02*
X009316Y019443D01*
X009316Y019602D02*
X016706Y019602D01*
X016865Y019760D02*
X008899Y019760D01*
X008743Y019760D02*
X000601Y019760D01*
X000601Y019602D02*
X003692Y019602D01*
X003686Y019591D02*
X003674Y019546D01*
X003674Y019324D01*
X004032Y019324D01*
X004032Y019702D01*
X003830Y019702D01*
X003784Y019690D01*
X003743Y019666D01*
X003710Y019632D01*
X003686Y019591D01*
X003674Y019443D02*
X000601Y019443D01*
X000601Y019285D02*
X003674Y019285D01*
X003674Y019126D02*
X000601Y019126D01*
X000601Y018967D02*
X003555Y018967D01*
X003534Y018809D02*
X000601Y018809D01*
X000601Y018650D02*
X003531Y018650D01*
X003534Y018492D02*
X000601Y018492D01*
X000601Y018333D02*
X003543Y018333D01*
X003646Y018175D02*
X000601Y018175D01*
X000601Y018016D02*
X003674Y018016D01*
X003674Y017699D02*
X000601Y017699D01*
X000601Y017541D02*
X003556Y017541D01*
X003534Y017382D02*
X000601Y017382D01*
X000601Y017223D02*
X003531Y017223D01*
X003534Y017065D02*
X000601Y017065D01*
X000601Y016906D02*
X003542Y016906D01*
X003643Y016748D02*
X000601Y016748D01*
X000601Y016589D02*
X004228Y016589D01*
X004026Y016431D02*
X004005Y016431D01*
X003480Y016431D02*
X003325Y016431D01*
X003325Y016272D02*
X003480Y016272D01*
X003480Y016114D02*
X003325Y016114D01*
X003324Y015955D02*
X000601Y015955D01*
X000601Y015797D02*
X002710Y015797D01*
X002710Y015638D02*
X000601Y015638D01*
X000601Y015479D02*
X002818Y015479D01*
X002710Y016114D02*
X000601Y016114D01*
X000601Y016272D02*
X002710Y016272D01*
X002799Y016431D02*
X000601Y016431D01*
X000601Y015321D02*
X004299Y015321D01*
X004099Y015162D02*
X000601Y015162D01*
X000601Y015004D02*
X004038Y015004D01*
X004038Y014845D02*
X000601Y014845D01*
X000601Y014687D02*
X004038Y014687D01*
X004038Y014528D02*
X000601Y014528D01*
X000601Y014370D02*
X001219Y014370D01*
X001258Y014386D02*
X001032Y014292D01*
X000859Y014119D01*
X000766Y013893D01*
X000766Y013648D01*
X000859Y013422D01*
X001011Y013271D01*
X000859Y013119D01*
X000766Y012893D01*
X000766Y012648D01*
X000859Y012422D01*
X001032Y012249D01*
X001258Y012156D01*
X001503Y012156D01*
X001729Y012249D01*
X001881Y012401D01*
X002032Y012249D01*
X002258Y012156D01*
X002503Y012156D01*
X002727Y012248D01*
X002730Y012245D01*
X002957Y012151D01*
X003804Y012151D01*
X004032Y012245D01*
X004038Y012251D01*
X004038Y012229D01*
X004087Y012111D01*
X004177Y012021D01*
X004295Y011972D01*
X005367Y011972D01*
X005484Y012021D01*
X005574Y012111D01*
X005623Y012229D01*
X005623Y013301D01*
X005574Y013418D01*
X006391Y013418D01*
X006391Y013260D02*
X005623Y013260D01*
X005623Y013101D02*
X006391Y013101D01*
X006391Y012943D02*
X005623Y012943D01*
X005623Y012784D02*
X006391Y012784D01*
X006391Y012626D02*
X005623Y012626D01*
X005623Y012467D02*
X006391Y012467D01*
X006391Y012309D02*
X005623Y012309D01*
X005591Y012150D02*
X006391Y012150D01*
X006391Y011992D02*
X005414Y011992D01*
X006391Y011833D02*
X000601Y011833D01*
X000601Y011992D02*
X004248Y011992D01*
X004071Y012150D02*
X000601Y012150D01*
X000601Y012309D02*
X000973Y012309D01*
X000841Y012467D02*
X000601Y012467D01*
X000601Y012626D02*
X000775Y012626D01*
X000766Y012784D02*
X000601Y012784D01*
X000601Y012943D02*
X000786Y012943D01*
X000852Y013101D02*
X000601Y013101D01*
X000601Y013260D02*
X001000Y013260D01*
X000863Y013418D02*
X000601Y013418D01*
X000601Y013577D02*
X000795Y013577D01*
X000766Y013736D02*
X000601Y013736D01*
X000601Y013894D02*
X000766Y013894D01*
X000832Y014053D02*
X000601Y014053D01*
X000601Y014211D02*
X000951Y014211D01*
X001258Y014386D02*
X001503Y014386D01*
X001729Y014292D01*
X001881Y014141D01*
X002032Y014292D01*
X002258Y014386D01*
X002503Y014386D01*
X002729Y014292D01*
X002837Y014185D01*
X002896Y014216D01*
X002968Y014239D01*
X003043Y014251D01*
X003361Y014251D01*
X003361Y013791D01*
X003401Y013791D01*
X003401Y013751D01*
X004161Y013751D01*
X004161Y013733D01*
X004149Y013658D01*
X004126Y013586D01*
X004091Y013519D01*
X004047Y013458D01*
X003993Y013405D01*
X003932Y013360D01*
X003908Y013348D01*
X004032Y013296D01*
X004038Y013291D01*
X004038Y013291D01*
X004038Y013301D01*
X004087Y013418D01*
X004177Y013508D01*
X004295Y013557D01*
X005367Y013557D01*
X005484Y013508D01*
X005574Y013418D01*
X005442Y013736D02*
X006391Y013736D01*
X006391Y013894D02*
X005596Y013894D01*
X005623Y014053D02*
X006391Y014053D01*
X006391Y014211D02*
X005623Y014211D01*
X005623Y014370D02*
X006391Y014370D01*
X006391Y014528D02*
X005623Y014528D01*
X005623Y014687D02*
X006391Y014687D01*
X006391Y014845D02*
X005623Y014845D01*
X005623Y015004D02*
X006391Y015004D01*
X006391Y015162D02*
X005563Y015162D01*
X005339Y015321D02*
X006391Y015321D01*
X006391Y015479D02*
X005609Y015479D01*
X005651Y015638D02*
X006391Y015638D01*
X006391Y015797D02*
X005651Y015797D01*
X005651Y015955D02*
X006391Y015955D01*
X006391Y016114D02*
X005651Y016114D01*
X005651Y016272D02*
X006391Y016272D01*
X006391Y016431D02*
X005613Y016431D01*
X005421Y016589D02*
X006391Y016589D01*
X006391Y016748D02*
X005421Y016748D01*
X005483Y016906D02*
X006391Y016906D01*
X006391Y017065D02*
X005597Y017065D01*
X005614Y017223D02*
X006391Y017223D01*
X006391Y017382D02*
X005614Y017382D01*
X005614Y017541D02*
X006391Y017541D01*
X006391Y017699D02*
X005614Y017699D01*
X005474Y018967D02*
X006667Y018967D01*
X006667Y019126D02*
X005474Y019126D01*
X005474Y019443D02*
X008326Y019443D01*
X008326Y019285D02*
X008052Y019285D01*
X008095Y019126D02*
X008336Y019126D01*
X008231Y018967D02*
X008095Y018967D01*
X008095Y018809D02*
X008186Y018809D01*
X008326Y019602D02*
X005473Y019602D01*
X004968Y019602D02*
X004833Y019602D01*
X004833Y019443D02*
X004968Y019443D01*
X004969Y019285D02*
X006710Y019285D01*
X006791Y018371D02*
X006791Y010441D01*
X006791Y009431D01*
X008066Y009431D01*
X008735Y009431D02*
X008791Y009431D01*
X009641Y010201D02*
X009337Y010504D01*
X009337Y010791D01*
X009641Y010201D02*
X012101Y010201D01*
X012301Y010401D01*
X011525Y010791D02*
X011525Y010957D01*
X013158Y010957D01*
X013251Y011488D02*
X012627Y011488D01*
X012627Y011803D02*
X012051Y011803D01*
X012051Y011681D01*
X011525Y011681D01*
X011525Y011621D01*
X010856Y011611D02*
X010856Y011621D01*
X011525Y012441D02*
X012051Y012441D01*
X012051Y012118D01*
X012627Y012118D01*
X013251Y012511D02*
X013251Y011488D01*
X013251Y012511D02*
X013501Y012511D01*
X013291Y013541D02*
X013291Y013691D01*
X012629Y013691D01*
X012627Y013693D01*
X011738Y013693D01*
X011401Y014031D01*
X009461Y014031D01*
X009171Y014321D01*
X009171Y015021D01*
X008671Y015521D01*
X008671Y015531D01*
X008891Y016631D02*
X010381Y016631D01*
X010840Y016873D02*
X010819Y016924D01*
X010674Y017069D01*
X010484Y017148D01*
X010278Y017148D01*
X010088Y017069D01*
X010050Y017031D01*
X009056Y017031D01*
X008637Y017450D01*
X008636Y017450D01*
X009199Y017450D01*
X009317Y017499D01*
X009407Y017589D01*
X009456Y017707D01*
X009456Y017762D01*
X012191Y017762D01*
X012191Y017128D01*
X012191Y017052D01*
X012174Y017069D01*
X011984Y017148D01*
X011778Y017148D01*
X011588Y017069D01*
X011443Y016924D01*
X011422Y016873D01*
X011371Y016923D01*
X011309Y016965D01*
X011241Y016993D01*
X011168Y017008D01*
X011149Y017008D01*
X011149Y016649D01*
X011112Y016649D01*
X011112Y017008D01*
X011094Y017008D01*
X011021Y016993D01*
X010952Y016965D01*
X010891Y016923D01*
X010840Y016873D01*
X010826Y016906D02*
X010873Y016906D01*
X011112Y016906D02*
X011149Y016906D01*
X011149Y016748D02*
X011112Y016748D01*
X011388Y016906D02*
X011436Y016906D01*
X011584Y017065D02*
X010678Y017065D01*
X010084Y017065D02*
X009022Y017065D01*
X008864Y017223D02*
X012191Y017223D01*
X012178Y017065D02*
X012191Y017065D01*
X012191Y017382D02*
X008705Y017382D01*
X008411Y017111D02*
X008891Y016631D01*
X008411Y017111D02*
X007121Y017111D01*
X007111Y011361D01*
X007321Y011151D01*
X007371Y011151D01*
X007021Y010441D02*
X006791Y010441D01*
X006391Y010406D02*
X000601Y010406D01*
X000601Y010248D02*
X006391Y010248D01*
X006391Y010089D02*
X000601Y010089D01*
X000601Y009930D02*
X006391Y009930D01*
X006391Y009772D02*
X000601Y009772D01*
X000601Y009613D02*
X006391Y009613D01*
X006391Y009455D02*
X000601Y009455D01*
X000601Y009296D02*
X006391Y009296D01*
X006391Y009138D02*
X000601Y009138D01*
X000601Y008979D02*
X006391Y008979D01*
X006391Y008821D02*
X000601Y008821D01*
X000601Y008662D02*
X006391Y008662D01*
X006391Y008504D02*
X000601Y008504D01*
X000601Y008345D02*
X006391Y008345D01*
X006391Y008186D02*
X000601Y008186D01*
X000601Y008028D02*
X006391Y008028D01*
X006391Y007869D02*
X000601Y007869D01*
X000601Y007711D02*
X006391Y007711D01*
X006391Y007552D02*
X000601Y007552D01*
X000601Y007394D02*
X006391Y007394D01*
X006391Y007235D02*
X000601Y007235D01*
X000601Y007077D02*
X006391Y007077D01*
X006391Y006918D02*
X000601Y006918D01*
X000601Y006760D02*
X006391Y006760D01*
X006304Y006601D02*
X000601Y006601D01*
X000601Y006443D02*
X003666Y006443D01*
X003429Y006284D02*
X000601Y006284D01*
X000601Y006125D02*
X003337Y006125D01*
X003304Y005967D02*
X000601Y005967D01*
X000601Y005808D02*
X003316Y005808D01*
X003381Y005650D02*
X000601Y005650D01*
X000601Y005491D02*
X003396Y005491D01*
X003467Y005333D02*
X000601Y005333D01*
X000601Y005174D02*
X003625Y005174D01*
X003784Y005016D02*
X000601Y005016D01*
X000601Y004857D02*
X003942Y004857D01*
X004101Y004699D02*
X000601Y004699D01*
X000601Y004540D02*
X004259Y004540D01*
X004418Y004381D02*
X000601Y004381D01*
X000601Y004223D02*
X004471Y004223D01*
X004471Y004064D02*
X000601Y004064D01*
X000601Y003906D02*
X004471Y003906D01*
X004471Y003747D02*
X000601Y003747D01*
X000601Y003589D02*
X004510Y003589D01*
X004629Y003430D02*
X000601Y003430D01*
X001105Y000735D02*
X011761Y000735D01*
X013619Y002162D02*
X014783Y002162D01*
X014637Y002320D02*
X013765Y002320D01*
X013831Y002479D02*
X014571Y002479D01*
X014570Y002637D02*
X013832Y002637D01*
X014201Y003565D02*
X014201Y004546D01*
X015109Y003430D02*
X015259Y003430D01*
X015259Y003272D02*
X015109Y003272D01*
X015109Y003113D02*
X015259Y003113D01*
X016549Y002162D02*
X035101Y002162D01*
X035101Y002003D02*
X016666Y002003D01*
X016686Y001845D02*
X035101Y001845D01*
X035101Y001686D02*
X016686Y001686D01*
X016686Y001528D02*
X035096Y001528D01*
X035071Y001369D02*
X016686Y001369D01*
X016686Y001211D02*
X035020Y001211D01*
X034936Y001052D02*
X016686Y001052D01*
X016686Y000894D02*
X034804Y000894D01*
X034596Y000735D02*
X016641Y000735D01*
X017373Y003589D02*
X017528Y003589D01*
X017528Y003747D02*
X017373Y003747D01*
X017373Y003906D02*
X017528Y003906D01*
X017528Y004064D02*
X017373Y004064D01*
X017373Y004223D02*
X016644Y004223D01*
X017529Y004223D02*
X034881Y004223D01*
X034984Y004064D02*
X017946Y004064D01*
X017946Y003906D02*
X035052Y003906D01*
X035090Y003747D02*
X017946Y003747D01*
X017938Y003589D02*
X035101Y003589D01*
X034722Y004381D02*
X017946Y004381D01*
X017946Y004540D02*
X025730Y004540D01*
X025558Y004699D02*
X017943Y004699D01*
X018018Y004857D02*
X025399Y004857D01*
X025241Y005016D02*
X018086Y005016D01*
X018086Y005174D02*
X025082Y005174D01*
X024923Y005333D02*
X018086Y005333D01*
X018086Y005491D02*
X024765Y005491D01*
X024606Y005650D02*
X018086Y005650D01*
X018086Y005808D02*
X024448Y005808D01*
X024289Y005967D02*
X018086Y005967D01*
X018086Y006125D02*
X024131Y006125D01*
X023655Y006601D02*
X016963Y006601D01*
X017061Y006760D02*
X023497Y006760D01*
X023409Y006918D02*
X019940Y006918D01*
X019981Y007077D02*
X023381Y007077D01*
X023381Y007235D02*
X019981Y007235D01*
X019981Y007394D02*
X023381Y007394D01*
X023381Y007552D02*
X019981Y007552D01*
X019981Y007711D02*
X023381Y007711D01*
X023381Y007869D02*
X019981Y007869D01*
X019981Y008028D02*
X023381Y008028D01*
X023381Y008186D02*
X019981Y008186D01*
X019981Y008345D02*
X023381Y008345D01*
X023381Y008504D02*
X019981Y008504D01*
X019981Y008662D02*
X023381Y008662D01*
X023381Y008821D02*
X019981Y008821D01*
X019981Y008979D02*
X023381Y008979D01*
X023381Y009138D02*
X019981Y009138D01*
X019959Y009296D02*
X023381Y009296D01*
X023381Y009455D02*
X019835Y009455D01*
X019663Y009613D02*
X023381Y009613D01*
X023381Y009772D02*
X019499Y009772D01*
X019734Y010565D02*
X023381Y010565D01*
X023381Y010723D02*
X019942Y010723D01*
X019981Y010882D02*
X023381Y010882D01*
X023381Y011040D02*
X019981Y011040D01*
X019981Y011199D02*
X023381Y011199D01*
X023381Y011357D02*
X019981Y011357D01*
X019981Y011516D02*
X023300Y011516D01*
X023142Y011674D02*
X019981Y011674D01*
X019981Y011833D02*
X022983Y011833D01*
X022825Y011992D02*
X019981Y011992D01*
X019981Y012150D02*
X022666Y012150D01*
X022508Y012309D02*
X019981Y012309D01*
X019981Y012467D02*
X022349Y012467D01*
X022190Y012626D02*
X019981Y012626D01*
X019981Y012784D02*
X022032Y012784D01*
X021873Y012943D02*
X019981Y012943D01*
X019957Y013101D02*
X021715Y013101D01*
X021556Y013260D02*
X019823Y013260D01*
X019178Y015638D02*
X018824Y015638D01*
X018916Y015797D02*
X019020Y015797D01*
X018531Y015911D02*
X018521Y018791D01*
X017182Y020077D02*
X009316Y020077D01*
X009316Y019919D02*
X017023Y019919D01*
X017340Y020236D02*
X009316Y020236D01*
X008898Y020236D02*
X008743Y020236D01*
X008743Y020391D02*
X008482Y020391D01*
X008436Y020379D01*
X008395Y020355D01*
X008362Y020322D01*
X008338Y020281D01*
X008326Y020235D01*
X008326Y019777D01*
X008743Y019777D01*
X008743Y020391D01*
X008743Y020077D02*
X008898Y020077D01*
X008898Y019919D02*
X008743Y019919D01*
X008326Y019919D02*
X000601Y019919D01*
X000601Y020077D02*
X008326Y020077D01*
X008326Y020236D02*
X000601Y020236D01*
X000601Y020394D02*
X017499Y020394D01*
X017658Y020553D02*
X000601Y020553D01*
X000601Y017858D02*
X004032Y017858D01*
X004032Y019173D02*
X004032Y019287D01*
X004069Y019287D01*
X004069Y019173D01*
X004032Y019173D01*
X004032Y019285D02*
X004069Y019285D01*
X004069Y019287D02*
X004069Y019324D01*
X004428Y019324D01*
X004428Y019344D01*
X004833Y019344D01*
X004833Y019209D01*
X004428Y019209D01*
X004428Y019287D01*
X004069Y019287D01*
X004069Y019443D02*
X004032Y019443D01*
X004032Y019602D02*
X004069Y019602D01*
X004428Y019285D02*
X004833Y019285D01*
X003480Y015797D02*
X003325Y015797D01*
X003325Y015638D02*
X003480Y015638D01*
X003480Y015479D02*
X003325Y015479D01*
X003986Y015479D02*
X004030Y015479D01*
X004038Y014370D02*
X002543Y014370D01*
X002811Y014211D02*
X002888Y014211D01*
X003361Y014211D02*
X003401Y014211D01*
X003401Y014053D02*
X003361Y014053D01*
X003361Y013894D02*
X003401Y013894D01*
X003874Y014211D02*
X004038Y014211D01*
X004161Y013736D02*
X004220Y013736D01*
X004121Y013577D02*
X006391Y013577D01*
X007461Y012411D02*
X007986Y012401D01*
X008655Y012401D02*
X008671Y012401D01*
X008671Y013051D01*
X011111Y013051D01*
X011111Y013311D01*
X011791Y013311D01*
X011807Y014225D02*
X011501Y014531D01*
X009671Y014531D01*
X008671Y013531D02*
X008671Y013051D01*
X010164Y012441D02*
X010164Y012431D01*
X011807Y014225D02*
X013158Y014225D01*
X013473Y014225D02*
X013473Y014468D01*
X013281Y014661D01*
X012651Y014661D01*
X012521Y015231D02*
X011965Y015231D01*
X012521Y015231D02*
X013101Y015231D01*
X013788Y014543D01*
X013788Y014225D01*
X012521Y015231D02*
X012521Y015381D01*
X011881Y015845D02*
X011881Y016631D01*
X012191Y017541D02*
X009359Y017541D01*
X009453Y017699D02*
X012191Y017699D01*
X015895Y013693D02*
X016656Y013693D01*
X016656Y013601D01*
X015361Y010451D02*
X015048Y010451D01*
X016101Y005341D02*
X016101Y005225D01*
X016111Y005215D01*
X009960Y007552D02*
X007191Y007552D01*
X007191Y007394D02*
X009802Y007394D01*
X009643Y007235D02*
X007191Y007235D01*
X007191Y007077D02*
X009484Y007077D01*
X009326Y006918D02*
X007191Y006918D01*
X007191Y006760D02*
X009167Y006760D01*
X009009Y006601D02*
X007278Y006601D01*
X007317Y006443D02*
X008850Y006443D01*
X008692Y006284D02*
X007312Y006284D01*
X007247Y006125D02*
X008618Y006125D01*
X008611Y005967D02*
X007102Y005967D01*
X006791Y006401D02*
X006791Y009431D01*
X006391Y010565D02*
X003678Y010565D01*
X003738Y010590D02*
X003906Y010757D01*
X003996Y010976D01*
X003996Y011213D01*
X003906Y011432D01*
X003738Y011599D01*
X003519Y011690D01*
X003282Y011690D01*
X003063Y011599D01*
X002896Y011432D01*
X002805Y011213D01*
X002805Y010976D01*
X002896Y010757D01*
X003063Y010590D01*
X003282Y010499D01*
X003519Y010499D01*
X003738Y010590D01*
X003872Y010723D02*
X006391Y010723D01*
X006391Y010882D02*
X003957Y010882D01*
X003996Y011040D02*
X006391Y011040D01*
X006391Y011199D02*
X003996Y011199D01*
X003937Y011357D02*
X006391Y011357D01*
X006391Y011516D02*
X003822Y011516D01*
X003557Y011674D02*
X006391Y011674D01*
X004038Y012251D02*
X004038Y012251D01*
X003244Y011674D02*
X000601Y011674D01*
X000601Y011516D02*
X002980Y011516D01*
X002865Y011357D02*
X000601Y011357D01*
X000601Y011199D02*
X002805Y011199D01*
X002805Y011040D02*
X000601Y011040D01*
X000601Y010882D02*
X002844Y010882D01*
X002930Y010723D02*
X000601Y010723D01*
X000601Y010565D02*
X003124Y010565D01*
X001973Y012309D02*
X001789Y012309D01*
X001811Y014211D02*
X001951Y014211D01*
X002219Y014370D02*
X001543Y014370D01*
X004007Y013418D02*
X004087Y013418D01*
X003996Y006443D02*
X006264Y006443D01*
X006269Y006284D02*
X004232Y006284D01*
X004324Y006125D02*
X006335Y006125D01*
X006480Y005967D02*
X004357Y005967D01*
X004346Y005808D02*
X008611Y005808D01*
X008611Y005650D02*
X004394Y005650D01*
X004553Y005491D02*
X007964Y005491D01*
X007901Y005333D02*
X004711Y005333D01*
X004870Y005174D02*
X007901Y005174D01*
X007901Y005016D02*
X005028Y005016D01*
X005187Y004857D02*
X007901Y004857D01*
X007901Y004699D02*
X005309Y004699D01*
X005351Y004540D02*
X007926Y004540D01*
X008011Y004381D02*
X005351Y004381D01*
X005351Y004223D02*
X008011Y004223D01*
X017271Y020870D02*
X017311Y020870D01*
X017311Y021029D02*
X017271Y021029D01*
X017271Y021187D02*
X017311Y021187D01*
X018351Y026031D02*
X018061Y026321D01*
X017291Y026321D01*
X016529Y026736D02*
X006387Y026736D01*
X006357Y026696D02*
X006442Y026810D01*
X006510Y026935D01*
X006560Y027069D01*
X006591Y027208D01*
X006601Y027351D01*
X006601Y029351D01*
X006591Y029493D01*
X006560Y029633D01*
X006510Y029766D01*
X006442Y029891D01*
X006357Y030006D01*
X006256Y030107D01*
X006141Y030192D01*
X006016Y030260D01*
X005883Y030310D01*
X005743Y030341D01*
X005601Y030351D01*
X001601Y030351D01*
X001458Y030361D01*
X001319Y030391D01*
X001185Y030441D01*
X001060Y030510D01*
X000946Y030595D01*
X000845Y030696D01*
X000760Y030810D01*
X000691Y030935D01*
X000641Y031069D01*
X000611Y031208D01*
X000601Y031351D01*
X000601Y031601D01*
X000611Y031743D01*
X000604Y031651D02*
X019010Y031651D01*
X019010Y031548D02*
X019010Y031809D01*
X019010Y031548D02*
X019624Y031548D01*
X019624Y031492D02*
X000601Y031492D01*
X000602Y031334D02*
X019010Y031334D01*
X019010Y031175D02*
X000618Y031175D01*
X000661Y031017D02*
X019075Y031017D01*
X019625Y031017D02*
X019780Y031017D01*
X019780Y031175D02*
X019625Y031175D01*
X019625Y031334D02*
X019780Y031334D01*
X020490Y030858D02*
X000733Y030858D01*
X000842Y030700D02*
X021851Y030700D01*
X021851Y030858D02*
X021749Y030858D01*
X021851Y030541D02*
X001018Y030541D01*
X001359Y030383D02*
X019845Y030383D01*
X019838Y030371D02*
X019826Y030325D01*
X019826Y029867D01*
X020243Y029867D01*
X020243Y030481D01*
X019982Y030481D01*
X019936Y030469D01*
X019895Y030445D01*
X019862Y030412D01*
X019838Y030371D01*
X019826Y030224D02*
X006083Y030224D01*
X006297Y030065D02*
X019826Y030065D01*
X019826Y029907D02*
X006430Y029907D01*
X006517Y029748D02*
X016773Y029748D01*
X016593Y029590D02*
X006570Y029590D01*
X006595Y029431D02*
X016522Y029431D01*
X016512Y029273D02*
X006601Y029273D01*
X006601Y029114D02*
X016557Y029114D01*
X016677Y028956D02*
X006601Y028956D01*
X006601Y028797D02*
X016590Y028797D01*
X016451Y028639D02*
X006601Y028639D01*
X006601Y028480D02*
X016386Y028480D01*
X016371Y028321D02*
X006601Y028321D01*
X006601Y028163D02*
X016385Y028163D01*
X016451Y028004D02*
X006601Y028004D01*
X006601Y027846D02*
X016589Y027846D01*
X016481Y027687D02*
X006601Y027687D01*
X006601Y027529D02*
X016406Y027529D01*
X016371Y027370D02*
X006601Y027370D01*
X006591Y027212D02*
X016371Y027212D01*
X016431Y027053D02*
X006554Y027053D01*
X006488Y026895D02*
X016540Y026895D01*
X016426Y026578D02*
X006232Y026578D01*
X006256Y026595D02*
X006357Y026696D01*
X006256Y026595D02*
X006141Y026510D01*
X006016Y026441D01*
X017291Y029321D02*
X017291Y029325D01*
X017311Y029341D02*
X017311Y029801D01*
X017629Y029801D01*
X017703Y029789D01*
X017775Y029766D01*
X017842Y029731D01*
X017903Y029687D01*
X017957Y029633D01*
X018001Y029572D01*
X018036Y029505D01*
X018059Y029433D01*
X018071Y029359D01*
X018071Y029341D01*
X017311Y029341D01*
X017311Y029431D02*
X017271Y029431D01*
X017271Y029590D02*
X017311Y029590D01*
X017311Y029748D02*
X017271Y029748D01*
X017809Y029748D02*
X020243Y029748D01*
X020399Y029748D02*
X020961Y029748D01*
X020961Y029590D02*
X020816Y029590D01*
X020816Y029431D02*
X020961Y029431D01*
X020961Y029273D02*
X020816Y029273D01*
X020858Y029114D02*
X020961Y029114D01*
X020952Y028956D02*
X020961Y028956D01*
X020956Y028797D02*
X020961Y028797D01*
X020956Y028639D02*
X020961Y028639D01*
X020956Y028480D02*
X020961Y028480D01*
X020956Y028321D02*
X020961Y028321D01*
X020956Y028163D02*
X020961Y028163D01*
X020956Y028004D02*
X020961Y028004D01*
X020956Y027846D02*
X020986Y027846D01*
X020910Y027687D02*
X021085Y027687D01*
X021028Y027529D02*
X020841Y027529D01*
X020269Y028321D02*
X020321Y028372D01*
X019689Y028956D02*
X019240Y028956D01*
X019139Y029114D02*
X019784Y029114D01*
X019826Y029273D02*
X019108Y029273D01*
X019108Y029344D02*
X019108Y029566D01*
X019095Y029611D01*
X019072Y029652D01*
X019038Y029686D01*
X018997Y029710D01*
X018951Y029722D01*
X018749Y029722D01*
X018749Y029344D01*
X019108Y029344D01*
X019108Y029431D02*
X019826Y029431D01*
X019826Y029590D02*
X019101Y029590D01*
X018749Y029590D02*
X018712Y029590D01*
X018712Y029722D02*
X018510Y029722D01*
X018464Y029710D01*
X018423Y029686D01*
X018390Y029652D01*
X018366Y029611D01*
X018354Y029566D01*
X018354Y029344D01*
X018712Y029344D01*
X018712Y029722D01*
X018712Y029431D02*
X018749Y029431D01*
X018354Y029431D02*
X018059Y029431D01*
X018069Y029273D02*
X018354Y029273D01*
X018323Y029114D02*
X018024Y029114D01*
X017904Y028956D02*
X018222Y028956D01*
X018731Y028672D02*
X018731Y028656D01*
X018731Y028321D01*
X018751Y027755D02*
X018731Y027755D01*
X019571Y027086D02*
X019571Y026751D01*
X019141Y026321D01*
X020411Y025806D02*
X023777Y025806D01*
X026691Y027144D02*
X026691Y027781D01*
X027091Y028181D01*
X028344Y026436D02*
X031406Y026436D01*
X031411Y026261D01*
X031431Y025721D02*
X030031Y025721D01*
X030031Y025905D01*
X029461Y025905D01*
X029361Y025806D01*
X028344Y025806D01*
X028344Y026121D02*
X027911Y026121D01*
X027711Y025871D01*
X028931Y025406D02*
X029084Y025406D01*
X029084Y025255D01*
X029442Y025255D01*
X029442Y025218D01*
X029084Y025218D01*
X029084Y025107D01*
X029056Y025107D01*
X028959Y025067D01*
X028959Y025338D01*
X028931Y025406D01*
X028959Y025309D02*
X029084Y025309D01*
X029084Y025151D02*
X028959Y025151D01*
X029838Y025151D02*
X031031Y025151D01*
X031431Y025721D02*
X031431Y019421D01*
X031861Y019421D01*
X033051Y019421D01*
X033061Y019425D01*
X032941Y019425D01*
X033061Y018756D02*
X033055Y018751D01*
X032471Y018751D01*
X032471Y016941D01*
X031471Y016941D02*
X031471Y018771D01*
X031956Y018771D01*
X031971Y018756D01*
X031471Y018771D02*
X031031Y018771D01*
X031031Y021481D01*
X031031Y022138D02*
X030991Y022138D01*
X030991Y022297D02*
X031031Y022297D01*
X031031Y022455D02*
X030991Y022455D01*
X030991Y022614D02*
X031031Y022614D01*
X031031Y022772D02*
X030991Y022772D01*
X030991Y022931D02*
X031031Y022931D01*
X031031Y023090D02*
X030991Y023090D01*
X030991Y023248D02*
X031031Y023248D01*
X031031Y023407D02*
X030991Y023407D01*
X030991Y023565D02*
X031031Y023565D01*
X030591Y024571D02*
X029985Y024571D01*
X030591Y024571D02*
X030591Y016941D01*
X030471Y016941D01*
X031861Y019421D02*
X031871Y019425D01*
X031971Y019425D01*
X033117Y020077D02*
X033241Y020077D01*
X033241Y020236D02*
X033105Y020236D01*
X033039Y020394D02*
X033241Y020394D01*
X033241Y020553D02*
X032991Y020553D01*
X032991Y020711D02*
X033241Y020711D01*
X033241Y020870D02*
X032991Y020870D01*
X032991Y021029D02*
X033241Y021029D01*
X033241Y021187D02*
X032991Y021187D01*
X032991Y021346D02*
X033241Y021346D01*
X033241Y021504D02*
X032991Y021504D01*
X032991Y021663D02*
X033241Y021663D01*
X033241Y021821D02*
X032991Y021821D01*
X032945Y021980D02*
X033241Y021980D01*
X033241Y022138D02*
X032809Y022138D01*
X032671Y022297D02*
X033241Y022297D01*
X033241Y022455D02*
X032671Y022455D01*
X032671Y022614D02*
X033241Y022614D01*
X033241Y022772D02*
X032671Y022772D01*
X032671Y022931D02*
X033241Y022931D01*
X033241Y023090D02*
X032671Y023090D01*
X032671Y023248D02*
X033241Y023248D01*
X033241Y023407D02*
X032671Y023407D01*
X032671Y023565D02*
X033241Y023565D01*
X033241Y023724D02*
X032671Y023724D01*
X032671Y023882D02*
X033241Y023882D01*
X033241Y024041D02*
X032671Y024041D01*
X032671Y024199D02*
X033241Y024199D01*
X033241Y024358D02*
X032671Y024358D01*
X032671Y024516D02*
X033241Y024516D01*
X033241Y024675D02*
X032671Y024675D01*
X032671Y024834D02*
X033241Y024834D01*
X033241Y024992D02*
X032671Y024992D01*
X032671Y025151D02*
X033241Y025151D01*
X033241Y025309D02*
X032671Y025309D01*
X032671Y025468D02*
X033241Y025468D01*
X033241Y025626D02*
X032671Y025626D01*
X032671Y025785D02*
X033241Y025785D01*
X033241Y025943D02*
X032671Y025943D01*
X032671Y026102D02*
X033241Y026102D01*
X033241Y026260D02*
X032671Y026260D01*
X032671Y026419D02*
X033241Y026419D01*
X033241Y026578D02*
X032671Y026578D01*
X032671Y026736D02*
X033241Y026736D01*
X033241Y026895D02*
X032671Y026895D01*
X032671Y027053D02*
X033241Y027053D01*
X033241Y027212D02*
X032625Y027212D01*
X032472Y027370D02*
X033241Y027370D01*
X034121Y027370D02*
X035101Y027370D01*
X035101Y027212D02*
X034121Y027212D01*
X034121Y027053D02*
X035101Y027053D01*
X035101Y026895D02*
X034121Y026895D01*
X034121Y026736D02*
X035101Y026736D01*
X035101Y026578D02*
X034121Y026578D01*
X034121Y026419D02*
X035101Y026419D01*
X035101Y026260D02*
X034121Y026260D01*
X034121Y026102D02*
X035101Y026102D01*
X035101Y025943D02*
X034121Y025943D01*
X034121Y025785D02*
X035101Y025785D01*
X035101Y025626D02*
X034121Y025626D01*
X034121Y025468D02*
X035101Y025468D01*
X035101Y025309D02*
X034121Y025309D01*
X034121Y025151D02*
X035101Y025151D01*
X035101Y024992D02*
X034121Y024992D01*
X034121Y024834D02*
X035101Y024834D01*
X035101Y024675D02*
X034121Y024675D01*
X034121Y024516D02*
X035101Y024516D01*
X035101Y024358D02*
X034121Y024358D01*
X034121Y024199D02*
X035101Y024199D01*
X035101Y024041D02*
X034121Y024041D01*
X034121Y023882D02*
X035101Y023882D01*
X035101Y023724D02*
X034121Y023724D01*
X034121Y023565D02*
X035101Y023565D01*
X035101Y023407D02*
X034121Y023407D01*
X034121Y023248D02*
X035101Y023248D01*
X035101Y023090D02*
X034121Y023090D01*
X034121Y022931D02*
X035101Y022931D01*
X035101Y022772D02*
X034121Y022772D01*
X034121Y022614D02*
X035101Y022614D01*
X035101Y022455D02*
X034121Y022455D01*
X034121Y022297D02*
X035101Y022297D01*
X035101Y022138D02*
X034121Y022138D01*
X034121Y021980D02*
X035101Y021980D01*
X035101Y021821D02*
X034121Y021821D01*
X034121Y021663D02*
X035101Y021663D01*
X035101Y021504D02*
X034121Y021504D01*
X034121Y021346D02*
X035101Y021346D01*
X035101Y021187D02*
X034121Y021187D01*
X034121Y021029D02*
X035101Y021029D01*
X035101Y020870D02*
X034121Y020870D01*
X034121Y020711D02*
X035101Y020711D01*
X035101Y020553D02*
X034121Y020553D01*
X034121Y020394D02*
X035101Y020394D01*
X035101Y020236D02*
X034121Y020236D01*
X034121Y020077D02*
X035101Y020077D01*
X035101Y019919D02*
X034121Y019919D01*
X034121Y019760D02*
X035101Y019760D01*
X035101Y019602D02*
X034121Y019602D01*
X034121Y019443D02*
X035101Y019443D01*
X035101Y019285D02*
X034121Y019285D01*
X034121Y019126D02*
X035101Y019126D01*
X035101Y018967D02*
X034121Y018967D01*
X034121Y018809D02*
X035101Y018809D01*
X035101Y018650D02*
X034121Y018650D01*
X034121Y018492D02*
X035101Y018492D01*
X035101Y018333D02*
X034121Y018333D01*
X034121Y018175D02*
X035101Y018175D01*
X035101Y018016D02*
X034121Y018016D01*
X034121Y017858D02*
X035101Y017858D01*
X035101Y017699D02*
X034121Y017699D01*
X034121Y017541D02*
X035101Y017541D01*
X035101Y017382D02*
X034121Y017382D01*
X034121Y017223D02*
X035101Y017223D01*
X035101Y017065D02*
X034121Y017065D01*
X034121Y016906D02*
X035101Y016906D01*
X035101Y016748D02*
X034121Y016748D01*
X034121Y016589D02*
X035101Y016589D01*
X035101Y016431D02*
X034121Y016431D01*
X034121Y016272D02*
X035101Y016272D01*
X035101Y016114D02*
X034121Y016114D01*
X034121Y015955D02*
X035101Y015955D01*
X035101Y015797D02*
X034106Y015797D01*
X034020Y015638D02*
X035101Y015638D01*
X035101Y015479D02*
X033862Y015479D01*
X033703Y015321D02*
X035101Y015321D01*
X035101Y015162D02*
X033545Y015162D01*
X033424Y015042D02*
X033424Y015042D01*
X033386Y015004D02*
X035101Y015004D01*
X035101Y014845D02*
X026838Y014845D01*
X026679Y014687D02*
X035101Y014687D01*
X035101Y014528D02*
X026520Y014528D01*
X026362Y014370D02*
X035101Y014370D01*
X035101Y014211D02*
X026203Y014211D01*
X026045Y014053D02*
X027330Y014053D01*
X027852Y014053D02*
X035101Y014053D01*
X035101Y013894D02*
X028032Y013894D01*
X028101Y013736D02*
X035101Y013736D01*
X035101Y013577D02*
X028117Y013577D01*
X028089Y013418D02*
X035101Y013418D01*
X035101Y013260D02*
X028005Y013260D01*
X027785Y013101D02*
X035101Y013101D01*
X035101Y012943D02*
X026751Y012943D01*
X026817Y013101D02*
X027396Y013101D01*
X026635Y012784D02*
X035101Y012784D01*
X035101Y012626D02*
X026688Y012626D01*
X026667Y012467D02*
X035091Y012467D01*
X035056Y012309D02*
X026562Y012309D01*
X026694Y012150D02*
X034991Y012150D01*
X034891Y011992D02*
X026721Y011992D01*
X026721Y011833D02*
X034740Y011833D01*
X034471Y011674D02*
X026721Y011674D01*
X026721Y011706D02*
X026346Y011706D01*
X026346Y011246D01*
X026564Y011246D01*
X026610Y011258D01*
X026651Y011282D01*
X026685Y011315D01*
X026708Y011356D01*
X026721Y011402D01*
X026721Y011706D01*
X026721Y011516D02*
X028750Y011516D01*
X028497Y011357D02*
X026709Y011357D01*
X026346Y011357D02*
X026276Y011357D01*
X026276Y011516D02*
X026346Y011516D01*
X026346Y011674D02*
X026276Y011674D01*
X026276Y011833D02*
X026346Y011833D01*
X026346Y011992D02*
X026276Y011992D01*
X026276Y012150D02*
X026346Y012150D01*
X026329Y012309D02*
X026292Y012309D01*
X026292Y012467D02*
X026329Y012467D01*
X025593Y013101D02*
X025331Y013101D01*
X025331Y012943D02*
X025332Y012943D01*
X025331Y013260D02*
X025794Y013260D01*
X025829Y013418D02*
X025411Y013418D01*
X025569Y013577D02*
X025926Y013577D01*
X025728Y013736D02*
X026179Y013736D01*
X026352Y013894D02*
X025886Y013894D01*
X026971Y015601D02*
X026971Y019321D01*
X027701Y019321D01*
X027691Y019317D01*
X027691Y020144D02*
X027691Y020384D01*
X026571Y018333D02*
X026244Y018333D01*
X026402Y018175D02*
X026571Y018175D01*
X026561Y018016D02*
X026571Y018016D01*
X026166Y011199D02*
X028353Y011199D01*
X028254Y011040D02*
X025632Y011040D01*
X025474Y010882D02*
X028191Y010882D01*
X028160Y010723D02*
X025331Y010723D01*
X025331Y010565D02*
X028151Y010565D01*
X028151Y010406D02*
X025331Y010406D01*
X025362Y010248D02*
X026035Y010248D01*
X026038Y010261D02*
X026026Y010215D01*
X026026Y009757D01*
X026443Y009757D01*
X026443Y010371D01*
X026182Y010371D01*
X026136Y010359D01*
X026095Y010335D01*
X026062Y010302D01*
X026038Y010261D01*
X026026Y010089D02*
X025447Y010089D01*
X025447Y009930D02*
X026026Y009930D01*
X026026Y009772D02*
X025447Y009772D01*
X025447Y009613D02*
X026443Y009613D01*
X026599Y009613D02*
X028151Y009613D01*
X028151Y009455D02*
X027016Y009455D01*
X027016Y009296D02*
X028151Y009296D01*
X028151Y009138D02*
X027014Y009138D01*
X027083Y008979D02*
X027424Y008979D01*
X027758Y008979D02*
X028151Y008979D01*
X028151Y008821D02*
X028082Y008821D01*
X028151Y009772D02*
X027016Y009772D01*
X027016Y009930D02*
X028151Y009930D01*
X028151Y010089D02*
X027016Y010089D01*
X027007Y010248D02*
X028151Y010248D01*
X026598Y010248D02*
X026443Y010248D01*
X026443Y010089D02*
X026598Y010089D01*
X026598Y009930D02*
X026443Y009930D01*
X026443Y009772D02*
X026598Y009772D01*
X026026Y009455D02*
X025431Y009455D01*
X025435Y009296D02*
X026026Y009296D01*
X026027Y009138D02*
X025447Y009138D01*
X025447Y008979D02*
X025959Y008979D01*
X025886Y008821D02*
X025447Y008821D01*
X025445Y008662D02*
X025886Y008662D01*
X025886Y008504D02*
X025427Y008504D01*
X025427Y008345D02*
X025886Y008345D01*
X025886Y008186D02*
X025427Y008186D01*
X025412Y008028D02*
X025886Y008028D01*
X025886Y007869D02*
X025427Y007869D01*
X025427Y007711D02*
X025886Y007711D01*
X025951Y007552D02*
X025427Y007552D01*
X025426Y007394D02*
X026001Y007394D01*
X026012Y007235D02*
X025469Y007235D01*
X025627Y007077D02*
X026078Y007077D01*
X026244Y006918D02*
X025786Y006918D01*
X025944Y006760D02*
X027230Y006760D01*
X027233Y006601D02*
X026103Y006601D01*
X026261Y006443D02*
X027236Y006443D01*
X027239Y006284D02*
X026420Y006284D01*
X026605Y006125D02*
X027242Y006125D01*
X027245Y005967D02*
X026859Y005967D01*
X026959Y005808D02*
X027183Y005808D01*
X027024Y005650D02*
X026997Y005650D01*
X027702Y004857D02*
X028484Y004857D01*
X028343Y005016D02*
X027861Y005016D01*
X028019Y005174D02*
X028247Y005174D01*
X028188Y005333D02*
X028178Y005333D01*
X028722Y004699D02*
X027544Y004699D01*
X027371Y004540D02*
X034437Y004540D01*
X020411Y025801D02*
X020411Y025806D01*
X018360Y029590D02*
X017989Y029590D01*
X020243Y029907D02*
X020398Y029907D01*
X020398Y030065D02*
X020243Y030065D01*
X020243Y030224D02*
X020398Y030224D01*
X020398Y030383D02*
X020243Y030383D01*
X020797Y030383D02*
X021907Y030383D01*
X021237Y030224D02*
X020816Y030224D01*
X020816Y030065D02*
X021029Y030065D01*
X020962Y029907D02*
X020816Y029907D01*
X033900Y030224D02*
X035101Y030224D01*
X035101Y030065D02*
X034058Y030065D01*
X034217Y029907D02*
X035101Y029907D01*
X035101Y029748D02*
X034374Y029748D01*
X034440Y029590D02*
X035101Y029590D01*
X035101Y029431D02*
X034441Y029431D01*
X034441Y029273D02*
X035101Y029273D01*
X035101Y029114D02*
X034441Y029114D01*
X034441Y028956D02*
X035101Y028956D01*
X035101Y028797D02*
X034441Y028797D01*
X034441Y028639D02*
X035101Y028639D01*
X035101Y028480D02*
X034441Y028480D01*
X034415Y028321D02*
X035101Y028321D01*
X035101Y028163D02*
X034315Y028163D01*
X034157Y028004D02*
X035101Y028004D01*
X035101Y027846D02*
X034121Y027846D01*
X034121Y027687D02*
X035101Y027687D01*
X035101Y027529D02*
X034121Y027529D01*
D34*
X034651Y030941D02*
X031471Y030941D01*
X032471Y030941D01*
X034651Y030941D02*
X034651Y013721D01*
X030201Y013721D01*
X027811Y011341D01*
X026521Y010051D01*
X026521Y009679D01*
X026521Y008262D02*
X026521Y007366D01*
X027751Y007366D01*
X027741Y008191D01*
X027591Y008191D01*
X027751Y006736D02*
X027771Y005661D01*
X027101Y004991D01*
X026001Y004991D01*
X023901Y007091D01*
X023901Y011651D01*
X019091Y016460D01*
X019091Y016910D01*
X019111Y020531D01*
X019111Y021271D01*
X019131Y021291D01*
X016122Y018282D01*
X012631Y018282D01*
X008821Y018282D01*
X007511Y018282D01*
X007511Y018441D01*
X007441Y018371D01*
X007381Y018371D01*
X006791Y018371D01*
X004901Y018371D01*
X004541Y018371D01*
X004275Y018636D01*
X004051Y018636D01*
X004051Y019276D02*
X004901Y019276D01*
X005358Y019734D01*
X008821Y019734D01*
X008821Y019699D01*
X015881Y019699D01*
X015881Y021321D01*
X015881Y029321D01*
X017291Y029321D01*
X017291Y029325D02*
X018731Y029325D01*
X019857Y029325D01*
X020321Y029789D01*
X020321Y028372D02*
X020321Y027435D01*
X020321Y026805D02*
X021336Y026805D01*
X021341Y026801D01*
X020269Y028321D02*
X019561Y028321D01*
X019561Y027765D01*
X019571Y027755D01*
X019561Y028321D02*
X018731Y028321D01*
X017291Y028321D01*
X018731Y028656D02*
X018731Y027755D01*
X017291Y021321D02*
X015881Y021321D01*
X006081Y013391D02*
X006101Y005780D01*
X008111Y005780D01*
X008111Y007000D01*
X008111Y007001D01*
X004831Y012765D02*
X004831Y012771D01*
X003381Y012771D01*
X003381Y013771D02*
X003402Y013771D01*
X003402Y015961D01*
X003402Y017891D01*
X004051Y017891D01*
X004051Y017875D01*
X003402Y017891D02*
X003402Y019305D01*
X004051Y019305D01*
X004051Y019276D01*
X004901Y017465D02*
X004901Y017221D01*
X004051Y017221D01*
X004051Y017206D01*
X004901Y017221D02*
X004901Y015961D01*
X004819Y015961D01*
X004819Y014497D01*
X004831Y014497D01*
X017411Y002771D02*
X026581Y002781D01*
X028081Y004291D01*
D35*
X008111Y007000D03*
D36*
X006791Y006401D03*
X007351Y004851D03*
X007101Y002351D03*
X008851Y000851D03*
X009851Y002351D03*
X009851Y005601D03*
X012051Y006551D03*
X012581Y007201D03*
X013141Y006051D03*
X013051Y004891D03*
X014151Y006641D03*
X014151Y007721D03*
X015361Y008211D03*
X016451Y008401D03*
X018351Y008901D03*
X016651Y006001D03*
X015361Y004981D03*
X015351Y006051D03*
X011461Y008771D03*
X009851Y009401D03*
X007441Y008771D03*
X007371Y011151D03*
X011791Y013311D03*
X012651Y014661D03*
X012521Y015381D03*
X013291Y013541D03*
X013501Y012511D03*
X012301Y010401D03*
X015361Y010451D03*
X018411Y013011D03*
X021841Y015141D03*
X022451Y011801D03*
X023251Y008901D03*
X026471Y005611D03*
X024741Y004631D03*
X023851Y000851D03*
X019131Y004601D03*
X018851Y000851D03*
X013851Y000851D03*
X005101Y000851D03*
X002351Y002101D03*
X000851Y002101D03*
X003601Y004101D03*
X003831Y005941D03*
X000851Y006351D03*
X001851Y009101D03*
X000791Y010611D03*
X002381Y011971D03*
X000771Y014441D03*
X000851Y016351D03*
X002831Y016661D03*
X006051Y017601D03*
X007711Y016591D03*
X011371Y017331D03*
X011101Y021101D03*
X012131Y022321D03*
X012181Y023271D03*
X010801Y024131D03*
X010671Y022791D03*
X009301Y023551D03*
X008131Y023721D03*
X007631Y022321D03*
X008101Y021101D03*
X009131Y022321D03*
X009601Y021101D03*
X006601Y021101D03*
X006131Y022321D03*
X005101Y021101D03*
X004551Y022291D03*
X005131Y023721D03*
X006631Y023721D03*
X006811Y025181D03*
X005881Y026061D03*
X006991Y027071D03*
X007101Y028101D03*
X007101Y029601D03*
X005421Y030801D03*
X006351Y032351D03*
X008601Y029601D03*
X010101Y029601D03*
X011351Y030601D03*
X011601Y029601D03*
X013101Y029601D03*
X014601Y029601D03*
X015351Y030601D03*
X015351Y032351D03*
X011351Y032351D03*
X011601Y028101D03*
X010841Y027031D03*
X010861Y025861D03*
X012061Y026551D03*
X013101Y028101D03*
X013751Y026811D03*
X014601Y028101D03*
X015331Y028101D03*
X015251Y026811D03*
X015131Y025351D03*
X013631Y025351D03*
X012821Y024801D03*
X014131Y023721D03*
X015221Y023741D03*
X015131Y022321D03*
X015191Y021091D03*
X014101Y021101D03*
X013631Y022321D03*
X012601Y021101D03*
X014761Y019021D03*
X018091Y019391D03*
X018521Y018791D03*
X020551Y020741D03*
X020411Y023871D03*
X020831Y025321D03*
X020411Y025801D03*
X021971Y024551D03*
X023131Y024701D03*
X024471Y024831D03*
X024571Y025351D03*
X024921Y025921D03*
X025431Y026371D03*
X026071Y026361D03*
X025801Y025541D03*
X026206Y024901D03*
X026851Y025311D03*
X027711Y025871D03*
X027401Y024411D03*
X027571Y023271D03*
X026621Y023251D03*
X026221Y024031D03*
X024001Y022471D03*
X025051Y021441D03*
X026691Y020381D03*
X028991Y023731D03*
X030901Y025236D03*
X030031Y025721D03*
X031411Y026261D03*
X030901Y027451D03*
X032821Y025261D03*
X034241Y026851D03*
X031351Y032351D03*
X027081Y028901D03*
X025361Y028741D03*
X025361Y027861D03*
X025351Y029891D03*
X023351Y028631D03*
X021991Y028811D03*
X022151Y026541D03*
X018631Y026551D03*
X019351Y030201D03*
X021351Y032351D03*
X026351Y032351D03*
X031031Y021481D03*
X031941Y020401D03*
X032591Y020101D03*
X026971Y015601D03*
X027591Y013591D03*
X029701Y012101D03*
X030591Y013161D03*
X032751Y012001D03*
X034851Y003351D03*
X032751Y003001D03*
X031351Y000851D03*
X028851Y000851D03*
X008891Y025251D03*
X009611Y026511D03*
X008101Y026721D03*
X008601Y028101D03*
X010101Y028101D03*
X004631Y025321D03*
X001101Y025851D03*
X000851Y021351D03*
X003901Y019951D03*
X001101Y030851D03*
X001101Y032101D03*
D37*
X002601Y021601D03*
X017601Y031601D03*
X033601Y001601D03*
D38*
X010856Y010791D02*
X010164Y010791D01*
X010164Y011611D02*
X010856Y011611D01*
X010856Y012441D02*
X010164Y012441D01*
X009337Y012431D02*
X009337Y011611D01*
X009337Y010791D01*
D39*
X005291Y027321D02*
X003481Y027321D01*
X003481Y027297D01*
X003495Y027297D01*
X003481Y027321D02*
X001491Y027321D01*
X001491Y029301D01*
X001487Y029305D02*
X001487Y029321D01*
X003491Y029321D01*
X003491Y029305D01*
X003495Y029305D01*
X003491Y029321D02*
X005291Y029321D01*
X001491Y027321D02*
X001491Y027291D01*
D40*
X001381Y013771D03*
X002381Y013771D03*
X002381Y012771D03*
X001381Y012771D03*
M02*
