G75*
G70*
%OFA0B0*%
%FSLAX24Y24*%
%IPPOS*%
%LPD*%
%AMOC8*
5,1,8,0,0,1.08239X$1,22.5*
%
%ADD10C,0.0394*%
%ADD11C,0.0640*%
%ADD12C,0.0985*%
%ADD13R,0.0827X0.0867*%
%ADD14R,0.0867X0.0827*%
%ADD15R,0.0985X0.0985*%
%ADD16R,0.0473X0.0434*%
%ADD17R,0.0607X0.0434*%
%ADD18R,0.0607X0.0512*%
%ADD19R,0.0434X0.0473*%
%ADD20R,0.0906X0.0867*%
%ADD21R,0.0940X0.0867*%
%ADD22R,0.1182X0.1064*%
%ADD23C,0.0591*%
%ADD24R,0.0788X0.0552*%
%ADD25R,0.0808X0.0591*%
%ADD26R,0.1733X0.0512*%
%ADD27R,0.0827X0.0512*%
%ADD28R,0.0985X0.0567*%
%ADD29R,0.0375X0.0316*%
%ADD30R,0.0670X0.0500*%
%ADD31R,0.0720X0.0060*%
%ADD32C,0.1700*%
D10*
X013335Y002581D03*
X015067Y002581D03*
D11*
X010271Y013531D02*
X009671Y013531D01*
X009671Y014531D02*
X010271Y014531D01*
X010271Y015531D02*
X009671Y015531D01*
X008671Y015531D02*
X008071Y015531D01*
X008071Y014531D02*
X008671Y014531D01*
X008671Y013531D02*
X008071Y013531D01*
X003681Y013771D02*
X003081Y013771D01*
X003081Y012771D02*
X003681Y012771D01*
X016991Y021321D02*
X017591Y021321D01*
X017591Y022321D02*
X016991Y022321D01*
X016991Y023321D02*
X017591Y023321D01*
X017591Y024321D02*
X016991Y024321D01*
X016991Y025321D02*
X017591Y025321D01*
X017591Y026321D02*
X016991Y026321D01*
X016991Y027321D02*
X017591Y027321D01*
X017591Y028321D02*
X016991Y028321D01*
X016991Y029321D02*
X017591Y029321D01*
X022471Y030641D02*
X022471Y031241D01*
X023471Y031241D02*
X023471Y030641D01*
X024471Y030641D02*
X024471Y031241D01*
X025471Y031241D02*
X025471Y030641D01*
X026471Y030641D02*
X026471Y031241D01*
X027471Y031241D02*
X027471Y030641D01*
X028471Y030641D02*
X028471Y031241D01*
X029471Y031241D02*
X029471Y030641D01*
X030471Y030641D02*
X030471Y031241D01*
X031471Y031241D02*
X031471Y030641D01*
X032471Y030641D02*
X032471Y031241D01*
X032471Y017241D02*
X032471Y016641D01*
X031471Y016641D02*
X031471Y017241D01*
X030471Y017241D02*
X030471Y016641D01*
X029471Y016641D02*
X029471Y017241D01*
X028471Y017241D02*
X028471Y016641D01*
X027471Y016641D02*
X027471Y017241D01*
X026471Y017241D02*
X026471Y016641D01*
X025471Y016641D02*
X025471Y017241D01*
X024471Y017241D02*
X024471Y016641D01*
X023471Y016641D02*
X023471Y017241D01*
X022471Y017241D02*
X022471Y016641D01*
X005591Y027321D02*
X004991Y027321D01*
X004991Y028321D02*
X005591Y028321D01*
X005591Y029321D02*
X004991Y029321D01*
D12*
X003495Y029305D03*
X002491Y028301D03*
X001487Y029305D03*
X001487Y027297D03*
X003495Y027297D03*
D13*
X028632Y010071D03*
X028632Y008201D03*
X028632Y006331D03*
D14*
X030010Y005445D03*
X031191Y005445D03*
X032372Y005445D03*
X033553Y005445D03*
X034744Y005276D03*
X033553Y010957D03*
X032372Y010957D03*
X031191Y010957D03*
X030010Y010957D03*
X034734Y011135D03*
D15*
X020301Y026835D03*
X020301Y028567D03*
D16*
X026376Y028381D03*
X027045Y028381D03*
X034061Y012875D03*
X034061Y012206D03*
X034881Y012206D03*
X034881Y012875D03*
D17*
X014554Y004537D03*
X013688Y004537D03*
X013688Y005285D03*
D18*
X014554Y005206D03*
D19*
X027811Y006326D03*
X027811Y006995D03*
X027811Y009406D03*
X027811Y010075D03*
D20*
X001531Y001055D03*
D21*
X002563Y001055D03*
D22*
X001294Y011606D03*
D23*
X003401Y011095D03*
X003401Y001646D03*
D24*
X010251Y000976D03*
X010074Y011764D03*
X011787Y011764D03*
D25*
X012338Y001646D03*
X012338Y000937D03*
D26*
X005497Y002423D03*
X005497Y003063D03*
X005497Y004047D03*
X005497Y005032D03*
X005497Y006016D03*
X005497Y007000D03*
X005497Y007984D03*
X005497Y008969D03*
D27*
X005044Y009953D03*
D28*
X004013Y011805D03*
X003813Y000955D03*
D29*
X021136Y030261D03*
X021766Y030261D03*
D30*
X009411Y017101D03*
X009411Y016501D03*
D31*
X009411Y016801D03*
D32*
X002601Y021601D03*
X017601Y031601D03*
X033601Y001601D03*
M02*
