G75*
G70*
%OFA0B0*%
%FSLAX24Y24*%
%IPPOS*%
%LPD*%
%AMOC8*
5,1,8,0,0,1.08239X$1,22.5*
%
%ADD10C,0.0394*%
%ADD11C,0.0640*%
%ADD12C,0.0985*%
%ADD13C,0.0041*%
%ADD14C,0.0049*%
%ADD15C,0.0043*%
%ADD16C,0.0041*%
%ADD17C,0.0043*%
%ADD18C,0.0043*%
%ADD19C,0.0591*%
%ADD20C,0.0044*%
%ADD21C,0.0041*%
%ADD22C,0.0045*%
%ADD23C,0.0041*%
%ADD24C,0.0040*%
%ADD25R,0.0720X0.0060*%
%ADD26C,0.1700*%
D10*
X013335Y002581D03*
X015067Y002581D03*
D11*
X010271Y013531D02*
X009671Y013531D01*
X009671Y014531D02*
X010271Y014531D01*
X010271Y015531D02*
X009671Y015531D01*
X008671Y015531D02*
X008071Y015531D01*
X008071Y014531D02*
X008671Y014531D01*
X008671Y013531D02*
X008071Y013531D01*
X003681Y013771D02*
X003081Y013771D01*
X003081Y012771D02*
X003681Y012771D01*
X016991Y021321D02*
X017591Y021321D01*
X017591Y022321D02*
X016991Y022321D01*
X016991Y023321D02*
X017591Y023321D01*
X017591Y024321D02*
X016991Y024321D01*
X016991Y025321D02*
X017591Y025321D01*
X017591Y026321D02*
X016991Y026321D01*
X016991Y027321D02*
X017591Y027321D01*
X017591Y028321D02*
X016991Y028321D01*
X016991Y029321D02*
X017591Y029321D01*
X022471Y030641D02*
X022471Y031241D01*
X023471Y031241D02*
X023471Y030641D01*
X024471Y030641D02*
X024471Y031241D01*
X025471Y031241D02*
X025471Y030641D01*
X026471Y030641D02*
X026471Y031241D01*
X027471Y031241D02*
X027471Y030641D01*
X028471Y030641D02*
X028471Y031241D01*
X029471Y031241D02*
X029471Y030641D01*
X030471Y030641D02*
X030471Y031241D01*
X031471Y031241D02*
X031471Y030641D01*
X032471Y030641D02*
X032471Y031241D01*
X032471Y017241D02*
X032471Y016641D01*
X031471Y016641D02*
X031471Y017241D01*
X030471Y017241D02*
X030471Y016641D01*
X029471Y016641D02*
X029471Y017241D01*
X028471Y017241D02*
X028471Y016641D01*
X027471Y016641D02*
X027471Y017241D01*
X026471Y017241D02*
X026471Y016641D01*
X025471Y016641D02*
X025471Y017241D01*
X024471Y017241D02*
X024471Y016641D01*
X023471Y016641D02*
X023471Y017241D01*
X022471Y017241D02*
X022471Y016641D01*
X005591Y027321D02*
X004991Y027321D01*
X004991Y028321D02*
X005591Y028321D01*
X005591Y029321D02*
X004991Y029321D01*
D12*
X003495Y029305D03*
X002491Y028301D03*
X001487Y029305D03*
X001487Y027297D03*
X003495Y027297D03*
D13*
X028239Y010484D02*
X028239Y009658D01*
X028239Y010484D02*
X029025Y010484D01*
X029025Y009658D01*
X028239Y009658D01*
X028239Y009698D02*
X029025Y009698D01*
X029025Y009738D02*
X028239Y009738D01*
X028239Y009778D02*
X029025Y009778D01*
X029025Y009818D02*
X028239Y009818D01*
X028239Y009858D02*
X029025Y009858D01*
X029025Y009898D02*
X028239Y009898D01*
X028239Y009938D02*
X029025Y009938D01*
X029025Y009978D02*
X028239Y009978D01*
X028239Y010018D02*
X029025Y010018D01*
X029025Y010058D02*
X028239Y010058D01*
X028239Y010098D02*
X029025Y010098D01*
X029025Y010138D02*
X028239Y010138D01*
X028239Y010178D02*
X029025Y010178D01*
X029025Y010218D02*
X028239Y010218D01*
X028239Y010258D02*
X029025Y010258D01*
X029025Y010298D02*
X028239Y010298D01*
X028239Y010338D02*
X029025Y010338D01*
X029025Y010378D02*
X028239Y010378D01*
X028239Y010418D02*
X029025Y010418D01*
X029025Y010458D02*
X028239Y010458D01*
X029597Y010564D02*
X030423Y010564D01*
X029597Y010564D02*
X029597Y011350D01*
X030423Y011350D01*
X030423Y010564D01*
X030423Y010604D02*
X029597Y010604D01*
X029597Y010644D02*
X030423Y010644D01*
X030423Y010684D02*
X029597Y010684D01*
X029597Y010724D02*
X030423Y010724D01*
X030423Y010764D02*
X029597Y010764D01*
X029597Y010804D02*
X030423Y010804D01*
X030423Y010844D02*
X029597Y010844D01*
X029597Y010884D02*
X030423Y010884D01*
X030423Y010924D02*
X029597Y010924D01*
X029597Y010964D02*
X030423Y010964D01*
X030423Y011004D02*
X029597Y011004D01*
X029597Y011044D02*
X030423Y011044D01*
X030423Y011084D02*
X029597Y011084D01*
X029597Y011124D02*
X030423Y011124D01*
X030423Y011164D02*
X029597Y011164D01*
X029597Y011204D02*
X030423Y011204D01*
X030423Y011244D02*
X029597Y011244D01*
X029597Y011284D02*
X030423Y011284D01*
X030423Y011324D02*
X029597Y011324D01*
X030778Y010564D02*
X031604Y010564D01*
X030778Y010564D02*
X030778Y011350D01*
X031604Y011350D01*
X031604Y010564D01*
X031604Y010604D02*
X030778Y010604D01*
X030778Y010644D02*
X031604Y010644D01*
X031604Y010684D02*
X030778Y010684D01*
X030778Y010724D02*
X031604Y010724D01*
X031604Y010764D02*
X030778Y010764D01*
X030778Y010804D02*
X031604Y010804D01*
X031604Y010844D02*
X030778Y010844D01*
X030778Y010884D02*
X031604Y010884D01*
X031604Y010924D02*
X030778Y010924D01*
X030778Y010964D02*
X031604Y010964D01*
X031604Y011004D02*
X030778Y011004D01*
X030778Y011044D02*
X031604Y011044D01*
X031604Y011084D02*
X030778Y011084D01*
X030778Y011124D02*
X031604Y011124D01*
X031604Y011164D02*
X030778Y011164D01*
X030778Y011204D02*
X031604Y011204D01*
X031604Y011244D02*
X030778Y011244D01*
X030778Y011284D02*
X031604Y011284D01*
X031604Y011324D02*
X030778Y011324D01*
X031959Y010564D02*
X032785Y010564D01*
X031959Y010564D02*
X031959Y011350D01*
X032785Y011350D01*
X032785Y010564D01*
X032785Y010604D02*
X031959Y010604D01*
X031959Y010644D02*
X032785Y010644D01*
X032785Y010684D02*
X031959Y010684D01*
X031959Y010724D02*
X032785Y010724D01*
X032785Y010764D02*
X031959Y010764D01*
X031959Y010804D02*
X032785Y010804D01*
X032785Y010844D02*
X031959Y010844D01*
X031959Y010884D02*
X032785Y010884D01*
X032785Y010924D02*
X031959Y010924D01*
X031959Y010964D02*
X032785Y010964D01*
X032785Y011004D02*
X031959Y011004D01*
X031959Y011044D02*
X032785Y011044D01*
X032785Y011084D02*
X031959Y011084D01*
X031959Y011124D02*
X032785Y011124D01*
X032785Y011164D02*
X031959Y011164D01*
X031959Y011204D02*
X032785Y011204D01*
X032785Y011244D02*
X031959Y011244D01*
X031959Y011284D02*
X032785Y011284D01*
X032785Y011324D02*
X031959Y011324D01*
X033140Y010564D02*
X033966Y010564D01*
X033140Y010564D02*
X033140Y011350D01*
X033966Y011350D01*
X033966Y010564D01*
X033966Y010604D02*
X033140Y010604D01*
X033140Y010644D02*
X033966Y010644D01*
X033966Y010684D02*
X033140Y010684D01*
X033140Y010724D02*
X033966Y010724D01*
X033966Y010764D02*
X033140Y010764D01*
X033140Y010804D02*
X033966Y010804D01*
X033966Y010844D02*
X033140Y010844D01*
X033140Y010884D02*
X033966Y010884D01*
X033966Y010924D02*
X033140Y010924D01*
X033140Y010964D02*
X033966Y010964D01*
X033966Y011004D02*
X033140Y011004D01*
X033140Y011044D02*
X033966Y011044D01*
X033966Y011084D02*
X033140Y011084D01*
X033140Y011124D02*
X033966Y011124D01*
X033966Y011164D02*
X033140Y011164D01*
X033140Y011204D02*
X033966Y011204D01*
X033966Y011244D02*
X033140Y011244D01*
X033140Y011284D02*
X033966Y011284D01*
X033966Y011324D02*
X033140Y011324D01*
X034321Y010742D02*
X035147Y010742D01*
X034321Y010742D02*
X034321Y011528D01*
X035147Y011528D01*
X035147Y010742D01*
X035147Y010782D02*
X034321Y010782D01*
X034321Y010822D02*
X035147Y010822D01*
X035147Y010862D02*
X034321Y010862D01*
X034321Y010902D02*
X035147Y010902D01*
X035147Y010942D02*
X034321Y010942D01*
X034321Y010982D02*
X035147Y010982D01*
X035147Y011022D02*
X034321Y011022D01*
X034321Y011062D02*
X035147Y011062D01*
X035147Y011102D02*
X034321Y011102D01*
X034321Y011142D02*
X035147Y011142D01*
X035147Y011182D02*
X034321Y011182D01*
X034321Y011222D02*
X035147Y011222D01*
X035147Y011262D02*
X034321Y011262D01*
X034321Y011302D02*
X035147Y011302D01*
X035147Y011342D02*
X034321Y011342D01*
X034321Y011382D02*
X035147Y011382D01*
X035147Y011422D02*
X034321Y011422D01*
X034321Y011462D02*
X035147Y011462D01*
X035147Y011502D02*
X034321Y011502D01*
X029025Y008614D02*
X029025Y007788D01*
X028239Y007788D01*
X028239Y008614D01*
X029025Y008614D01*
X029025Y007828D02*
X028239Y007828D01*
X028239Y007868D02*
X029025Y007868D01*
X029025Y007908D02*
X028239Y007908D01*
X028239Y007948D02*
X029025Y007948D01*
X029025Y007988D02*
X028239Y007988D01*
X028239Y008028D02*
X029025Y008028D01*
X029025Y008068D02*
X028239Y008068D01*
X028239Y008108D02*
X029025Y008108D01*
X029025Y008148D02*
X028239Y008148D01*
X028239Y008188D02*
X029025Y008188D01*
X029025Y008228D02*
X028239Y008228D01*
X028239Y008268D02*
X029025Y008268D01*
X029025Y008308D02*
X028239Y008308D01*
X028239Y008348D02*
X029025Y008348D01*
X029025Y008388D02*
X028239Y008388D01*
X028239Y008428D02*
X029025Y008428D01*
X029025Y008468D02*
X028239Y008468D01*
X028239Y008508D02*
X029025Y008508D01*
X029025Y008548D02*
X028239Y008548D01*
X028239Y008588D02*
X029025Y008588D01*
X029025Y006744D02*
X029025Y005918D01*
X028239Y005918D01*
X028239Y006744D01*
X029025Y006744D01*
X029025Y005958D02*
X028239Y005958D01*
X028239Y005998D02*
X029025Y005998D01*
X029025Y006038D02*
X028239Y006038D01*
X028239Y006078D02*
X029025Y006078D01*
X029025Y006118D02*
X028239Y006118D01*
X028239Y006158D02*
X029025Y006158D01*
X029025Y006198D02*
X028239Y006198D01*
X028239Y006238D02*
X029025Y006238D01*
X029025Y006278D02*
X028239Y006278D01*
X028239Y006318D02*
X029025Y006318D01*
X029025Y006358D02*
X028239Y006358D01*
X028239Y006398D02*
X029025Y006398D01*
X029025Y006438D02*
X028239Y006438D01*
X028239Y006478D02*
X029025Y006478D01*
X029025Y006518D02*
X028239Y006518D01*
X028239Y006558D02*
X029025Y006558D01*
X029025Y006598D02*
X028239Y006598D01*
X028239Y006638D02*
X029025Y006638D01*
X029025Y006678D02*
X028239Y006678D01*
X028239Y006718D02*
X029025Y006718D01*
X029597Y005052D02*
X030423Y005052D01*
X029597Y005052D02*
X029597Y005838D01*
X030423Y005838D01*
X030423Y005052D01*
X030423Y005092D02*
X029597Y005092D01*
X029597Y005132D02*
X030423Y005132D01*
X030423Y005172D02*
X029597Y005172D01*
X029597Y005212D02*
X030423Y005212D01*
X030423Y005252D02*
X029597Y005252D01*
X029597Y005292D02*
X030423Y005292D01*
X030423Y005332D02*
X029597Y005332D01*
X029597Y005372D02*
X030423Y005372D01*
X030423Y005412D02*
X029597Y005412D01*
X029597Y005452D02*
X030423Y005452D01*
X030423Y005492D02*
X029597Y005492D01*
X029597Y005532D02*
X030423Y005532D01*
X030423Y005572D02*
X029597Y005572D01*
X029597Y005612D02*
X030423Y005612D01*
X030423Y005652D02*
X029597Y005652D01*
X029597Y005692D02*
X030423Y005692D01*
X030423Y005732D02*
X029597Y005732D01*
X029597Y005772D02*
X030423Y005772D01*
X030423Y005812D02*
X029597Y005812D01*
X030778Y005052D02*
X031604Y005052D01*
X030778Y005052D02*
X030778Y005838D01*
X031604Y005838D01*
X031604Y005052D01*
X031604Y005092D02*
X030778Y005092D01*
X030778Y005132D02*
X031604Y005132D01*
X031604Y005172D02*
X030778Y005172D01*
X030778Y005212D02*
X031604Y005212D01*
X031604Y005252D02*
X030778Y005252D01*
X030778Y005292D02*
X031604Y005292D01*
X031604Y005332D02*
X030778Y005332D01*
X030778Y005372D02*
X031604Y005372D01*
X031604Y005412D02*
X030778Y005412D01*
X030778Y005452D02*
X031604Y005452D01*
X031604Y005492D02*
X030778Y005492D01*
X030778Y005532D02*
X031604Y005532D01*
X031604Y005572D02*
X030778Y005572D01*
X030778Y005612D02*
X031604Y005612D01*
X031604Y005652D02*
X030778Y005652D01*
X030778Y005692D02*
X031604Y005692D01*
X031604Y005732D02*
X030778Y005732D01*
X030778Y005772D02*
X031604Y005772D01*
X031604Y005812D02*
X030778Y005812D01*
X031959Y005052D02*
X032785Y005052D01*
X031959Y005052D02*
X031959Y005838D01*
X032785Y005838D01*
X032785Y005052D01*
X032785Y005092D02*
X031959Y005092D01*
X031959Y005132D02*
X032785Y005132D01*
X032785Y005172D02*
X031959Y005172D01*
X031959Y005212D02*
X032785Y005212D01*
X032785Y005252D02*
X031959Y005252D01*
X031959Y005292D02*
X032785Y005292D01*
X032785Y005332D02*
X031959Y005332D01*
X031959Y005372D02*
X032785Y005372D01*
X032785Y005412D02*
X031959Y005412D01*
X031959Y005452D02*
X032785Y005452D01*
X032785Y005492D02*
X031959Y005492D01*
X031959Y005532D02*
X032785Y005532D01*
X032785Y005572D02*
X031959Y005572D01*
X031959Y005612D02*
X032785Y005612D01*
X032785Y005652D02*
X031959Y005652D01*
X031959Y005692D02*
X032785Y005692D01*
X032785Y005732D02*
X031959Y005732D01*
X031959Y005772D02*
X032785Y005772D01*
X032785Y005812D02*
X031959Y005812D01*
X033140Y005052D02*
X033966Y005052D01*
X033140Y005052D02*
X033140Y005838D01*
X033966Y005838D01*
X033966Y005052D01*
X033966Y005092D02*
X033140Y005092D01*
X033140Y005132D02*
X033966Y005132D01*
X033966Y005172D02*
X033140Y005172D01*
X033140Y005212D02*
X033966Y005212D01*
X033966Y005252D02*
X033140Y005252D01*
X033140Y005292D02*
X033966Y005292D01*
X033966Y005332D02*
X033140Y005332D01*
X033140Y005372D02*
X033966Y005372D01*
X033966Y005412D02*
X033140Y005412D01*
X033140Y005452D02*
X033966Y005452D01*
X033966Y005492D02*
X033140Y005492D01*
X033140Y005532D02*
X033966Y005532D01*
X033966Y005572D02*
X033140Y005572D01*
X033140Y005612D02*
X033966Y005612D01*
X033966Y005652D02*
X033140Y005652D01*
X033140Y005692D02*
X033966Y005692D01*
X033966Y005732D02*
X033140Y005732D01*
X033140Y005772D02*
X033966Y005772D01*
X033966Y005812D02*
X033140Y005812D01*
X034331Y004883D02*
X035157Y004883D01*
X034331Y004883D02*
X034331Y005669D01*
X035157Y005669D01*
X035157Y004883D01*
X035157Y004923D02*
X034331Y004923D01*
X034331Y004963D02*
X035157Y004963D01*
X035157Y005003D02*
X034331Y005003D01*
X034331Y005043D02*
X035157Y005043D01*
X035157Y005083D02*
X034331Y005083D01*
X034331Y005123D02*
X035157Y005123D01*
X035157Y005163D02*
X034331Y005163D01*
X034331Y005203D02*
X035157Y005203D01*
X035157Y005243D02*
X034331Y005243D01*
X034331Y005283D02*
X035157Y005283D01*
X035157Y005323D02*
X034331Y005323D01*
X034331Y005363D02*
X035157Y005363D01*
X035157Y005403D02*
X034331Y005403D01*
X034331Y005443D02*
X035157Y005443D01*
X035157Y005483D02*
X034331Y005483D01*
X034331Y005523D02*
X035157Y005523D01*
X035157Y005563D02*
X034331Y005563D01*
X034331Y005603D02*
X035157Y005603D01*
X035157Y005643D02*
X034331Y005643D01*
D14*
X019833Y026367D02*
X019833Y027303D01*
X020769Y027303D01*
X020769Y026367D01*
X019833Y026367D01*
X019833Y026415D02*
X020769Y026415D01*
X020769Y026463D02*
X019833Y026463D01*
X019833Y026511D02*
X020769Y026511D01*
X020769Y026559D02*
X019833Y026559D01*
X019833Y026607D02*
X020769Y026607D01*
X020769Y026655D02*
X019833Y026655D01*
X019833Y026703D02*
X020769Y026703D01*
X020769Y026751D02*
X019833Y026751D01*
X019833Y026799D02*
X020769Y026799D01*
X020769Y026847D02*
X019833Y026847D01*
X019833Y026895D02*
X020769Y026895D01*
X020769Y026943D02*
X019833Y026943D01*
X019833Y026991D02*
X020769Y026991D01*
X020769Y027039D02*
X019833Y027039D01*
X019833Y027087D02*
X020769Y027087D01*
X020769Y027135D02*
X019833Y027135D01*
X019833Y027183D02*
X020769Y027183D01*
X020769Y027231D02*
X019833Y027231D01*
X019833Y027279D02*
X020769Y027279D01*
X019833Y028099D02*
X019833Y029035D01*
X020769Y029035D01*
X020769Y028099D01*
X019833Y028099D01*
X019833Y028147D02*
X020769Y028147D01*
X020769Y028195D02*
X019833Y028195D01*
X019833Y028243D02*
X020769Y028243D01*
X020769Y028291D02*
X019833Y028291D01*
X019833Y028339D02*
X020769Y028339D01*
X020769Y028387D02*
X019833Y028387D01*
X019833Y028435D02*
X020769Y028435D01*
X020769Y028483D02*
X019833Y028483D01*
X019833Y028531D02*
X020769Y028531D01*
X020769Y028579D02*
X019833Y028579D01*
X019833Y028627D02*
X020769Y028627D01*
X020769Y028675D02*
X019833Y028675D01*
X019833Y028723D02*
X020769Y028723D01*
X020769Y028771D02*
X019833Y028771D01*
X019833Y028819D02*
X020769Y028819D01*
X020769Y028867D02*
X019833Y028867D01*
X019833Y028915D02*
X020769Y028915D01*
X020769Y028963D02*
X019833Y028963D01*
X019833Y029011D02*
X020769Y029011D01*
D15*
X026161Y028185D02*
X026591Y028185D01*
X026161Y028185D02*
X026161Y028577D01*
X026591Y028577D01*
X026591Y028185D01*
X026591Y028227D02*
X026161Y028227D01*
X026161Y028269D02*
X026591Y028269D01*
X026591Y028311D02*
X026161Y028311D01*
X026161Y028353D02*
X026591Y028353D01*
X026591Y028395D02*
X026161Y028395D01*
X026161Y028437D02*
X026591Y028437D01*
X026591Y028479D02*
X026161Y028479D01*
X026161Y028521D02*
X026591Y028521D01*
X026591Y028563D02*
X026161Y028563D01*
X026830Y028185D02*
X027260Y028185D01*
X026830Y028185D02*
X026830Y028577D01*
X027260Y028577D01*
X027260Y028185D01*
X027260Y028227D02*
X026830Y028227D01*
X026830Y028269D02*
X027260Y028269D01*
X027260Y028311D02*
X026830Y028311D01*
X026830Y028353D02*
X027260Y028353D01*
X027260Y028395D02*
X026830Y028395D01*
X026830Y028437D02*
X027260Y028437D01*
X027260Y028479D02*
X026830Y028479D01*
X026830Y028521D02*
X027260Y028521D01*
X027260Y028563D02*
X026830Y028563D01*
X033846Y013071D02*
X033846Y012679D01*
X033846Y013071D02*
X034276Y013071D01*
X034276Y012679D01*
X033846Y012679D01*
X033846Y012721D02*
X034276Y012721D01*
X034276Y012763D02*
X033846Y012763D01*
X033846Y012805D02*
X034276Y012805D01*
X034276Y012847D02*
X033846Y012847D01*
X033846Y012889D02*
X034276Y012889D01*
X034276Y012931D02*
X033846Y012931D01*
X033846Y012973D02*
X034276Y012973D01*
X034276Y013015D02*
X033846Y013015D01*
X033846Y013057D02*
X034276Y013057D01*
X034666Y013071D02*
X034666Y012679D01*
X034666Y013071D02*
X035096Y013071D01*
X035096Y012679D01*
X034666Y012679D01*
X034666Y012721D02*
X035096Y012721D01*
X035096Y012763D02*
X034666Y012763D01*
X034666Y012805D02*
X035096Y012805D01*
X035096Y012847D02*
X034666Y012847D01*
X034666Y012889D02*
X035096Y012889D01*
X035096Y012931D02*
X034666Y012931D01*
X034666Y012973D02*
X035096Y012973D01*
X035096Y013015D02*
X034666Y013015D01*
X034666Y013057D02*
X035096Y013057D01*
X034666Y012402D02*
X034666Y012010D01*
X034666Y012402D02*
X035096Y012402D01*
X035096Y012010D01*
X034666Y012010D01*
X034666Y012052D02*
X035096Y012052D01*
X035096Y012094D02*
X034666Y012094D01*
X034666Y012136D02*
X035096Y012136D01*
X035096Y012178D02*
X034666Y012178D01*
X034666Y012220D02*
X035096Y012220D01*
X035096Y012262D02*
X034666Y012262D01*
X034666Y012304D02*
X035096Y012304D01*
X035096Y012346D02*
X034666Y012346D01*
X034666Y012388D02*
X035096Y012388D01*
X033846Y012402D02*
X033846Y012010D01*
X033846Y012402D02*
X034276Y012402D01*
X034276Y012010D01*
X033846Y012010D01*
X033846Y012052D02*
X034276Y012052D01*
X034276Y012094D02*
X033846Y012094D01*
X033846Y012136D02*
X034276Y012136D01*
X034276Y012178D02*
X033846Y012178D01*
X033846Y012220D02*
X034276Y012220D01*
X034276Y012262D02*
X033846Y012262D01*
X033846Y012304D02*
X034276Y012304D01*
X034276Y012346D02*
X033846Y012346D01*
X033846Y012388D02*
X034276Y012388D01*
X028007Y010290D02*
X028007Y009860D01*
X027615Y009860D01*
X027615Y010290D01*
X028007Y010290D01*
X028007Y009902D02*
X027615Y009902D01*
X027615Y009944D02*
X028007Y009944D01*
X028007Y009986D02*
X027615Y009986D01*
X027615Y010028D02*
X028007Y010028D01*
X028007Y010070D02*
X027615Y010070D01*
X027615Y010112D02*
X028007Y010112D01*
X028007Y010154D02*
X027615Y010154D01*
X027615Y010196D02*
X028007Y010196D01*
X028007Y010238D02*
X027615Y010238D01*
X027615Y010280D02*
X028007Y010280D01*
X028007Y009621D02*
X028007Y009191D01*
X027615Y009191D01*
X027615Y009621D01*
X028007Y009621D01*
X028007Y009233D02*
X027615Y009233D01*
X027615Y009275D02*
X028007Y009275D01*
X028007Y009317D02*
X027615Y009317D01*
X027615Y009359D02*
X028007Y009359D01*
X028007Y009401D02*
X027615Y009401D01*
X027615Y009443D02*
X028007Y009443D01*
X028007Y009485D02*
X027615Y009485D01*
X027615Y009527D02*
X028007Y009527D01*
X028007Y009569D02*
X027615Y009569D01*
X027615Y009611D02*
X028007Y009611D01*
X027615Y007210D02*
X027615Y006780D01*
X027615Y007210D02*
X028007Y007210D01*
X028007Y006780D01*
X027615Y006780D01*
X027615Y006822D02*
X028007Y006822D01*
X028007Y006864D02*
X027615Y006864D01*
X027615Y006906D02*
X028007Y006906D01*
X028007Y006948D02*
X027615Y006948D01*
X027615Y006990D02*
X028007Y006990D01*
X028007Y007032D02*
X027615Y007032D01*
X027615Y007074D02*
X028007Y007074D01*
X028007Y007116D02*
X027615Y007116D01*
X027615Y007158D02*
X028007Y007158D01*
X028007Y007200D02*
X027615Y007200D01*
X027615Y006541D02*
X027615Y006111D01*
X027615Y006541D02*
X028007Y006541D01*
X028007Y006111D01*
X027615Y006111D01*
X027615Y006153D02*
X028007Y006153D01*
X028007Y006195D02*
X027615Y006195D01*
X027615Y006237D02*
X028007Y006237D01*
X028007Y006279D02*
X027615Y006279D01*
X027615Y006321D02*
X028007Y006321D01*
X028007Y006363D02*
X027615Y006363D01*
X027615Y006405D02*
X028007Y006405D01*
X028007Y006447D02*
X027615Y006447D01*
X027615Y006489D02*
X028007Y006489D01*
X028007Y006531D02*
X027615Y006531D01*
X014272Y004733D02*
X014272Y004341D01*
X014272Y004733D02*
X014836Y004733D01*
X014836Y004341D01*
X014272Y004341D01*
X014272Y004383D02*
X014836Y004383D01*
X014836Y004425D02*
X014272Y004425D01*
X014272Y004467D02*
X014836Y004467D01*
X014836Y004509D02*
X014272Y004509D01*
X014272Y004551D02*
X014836Y004551D01*
X014836Y004593D02*
X014272Y004593D01*
X014272Y004635D02*
X014836Y004635D01*
X014836Y004677D02*
X014272Y004677D01*
X014272Y004719D02*
X014836Y004719D01*
X013406Y004733D02*
X013406Y004341D01*
X013406Y004733D02*
X013970Y004733D01*
X013970Y004341D01*
X013406Y004341D01*
X013406Y004383D02*
X013970Y004383D01*
X013970Y004425D02*
X013406Y004425D01*
X013406Y004467D02*
X013970Y004467D01*
X013970Y004509D02*
X013406Y004509D01*
X013406Y004551D02*
X013970Y004551D01*
X013970Y004593D02*
X013406Y004593D01*
X013406Y004635D02*
X013970Y004635D01*
X013970Y004677D02*
X013406Y004677D01*
X013406Y004719D02*
X013970Y004719D01*
X013406Y005089D02*
X013406Y005481D01*
X013970Y005481D01*
X013970Y005089D01*
X013406Y005089D01*
X013406Y005131D02*
X013970Y005131D01*
X013970Y005173D02*
X013406Y005173D01*
X013406Y005215D02*
X013970Y005215D01*
X013970Y005257D02*
X013406Y005257D01*
X013406Y005299D02*
X013970Y005299D01*
X013970Y005341D02*
X013406Y005341D01*
X013406Y005383D02*
X013970Y005383D01*
X013970Y005425D02*
X013406Y005425D01*
X013406Y005467D02*
X013970Y005467D01*
D16*
X014271Y005442D02*
X014271Y004970D01*
X014271Y005442D02*
X014837Y005442D01*
X014837Y004970D01*
X014271Y004970D01*
X014271Y005010D02*
X014837Y005010D01*
X014837Y005050D02*
X014271Y005050D01*
X014271Y005090D02*
X014837Y005090D01*
X014837Y005130D02*
X014271Y005130D01*
X014271Y005170D02*
X014837Y005170D01*
X014837Y005210D02*
X014271Y005210D01*
X014271Y005250D02*
X014837Y005250D01*
X014837Y005290D02*
X014271Y005290D01*
X014271Y005330D02*
X014837Y005330D01*
X014837Y005370D02*
X014271Y005370D01*
X014271Y005410D02*
X014837Y005410D01*
X006343Y005268D02*
X006343Y004796D01*
X004651Y004796D01*
X004651Y005268D01*
X006343Y005268D01*
X006343Y004836D02*
X004651Y004836D01*
X004651Y004876D02*
X006343Y004876D01*
X006343Y004916D02*
X004651Y004916D01*
X004651Y004956D02*
X006343Y004956D01*
X006343Y004996D02*
X004651Y004996D01*
X004651Y005036D02*
X006343Y005036D01*
X006343Y005076D02*
X004651Y005076D01*
X004651Y005116D02*
X006343Y005116D01*
X006343Y005156D02*
X004651Y005156D01*
X004651Y005196D02*
X006343Y005196D01*
X006343Y005236D02*
X004651Y005236D01*
X006343Y005780D02*
X006343Y006252D01*
X006343Y005780D02*
X004651Y005780D01*
X004651Y006252D01*
X006343Y006252D01*
X006343Y005820D02*
X004651Y005820D01*
X004651Y005860D02*
X006343Y005860D01*
X006343Y005900D02*
X004651Y005900D01*
X004651Y005940D02*
X006343Y005940D01*
X006343Y005980D02*
X004651Y005980D01*
X004651Y006020D02*
X006343Y006020D01*
X006343Y006060D02*
X004651Y006060D01*
X004651Y006100D02*
X006343Y006100D01*
X006343Y006140D02*
X004651Y006140D01*
X004651Y006180D02*
X006343Y006180D01*
X006343Y006220D02*
X004651Y006220D01*
X006343Y006764D02*
X006343Y007236D01*
X006343Y006764D02*
X004651Y006764D01*
X004651Y007236D01*
X006343Y007236D01*
X006343Y006804D02*
X004651Y006804D01*
X004651Y006844D02*
X006343Y006844D01*
X006343Y006884D02*
X004651Y006884D01*
X004651Y006924D02*
X006343Y006924D01*
X006343Y006964D02*
X004651Y006964D01*
X004651Y007004D02*
X006343Y007004D01*
X006343Y007044D02*
X004651Y007044D01*
X004651Y007084D02*
X006343Y007084D01*
X006343Y007124D02*
X004651Y007124D01*
X004651Y007164D02*
X006343Y007164D01*
X006343Y007204D02*
X004651Y007204D01*
X006343Y007748D02*
X006343Y008220D01*
X006343Y007748D02*
X004651Y007748D01*
X004651Y008220D01*
X006343Y008220D01*
X006343Y007788D02*
X004651Y007788D01*
X004651Y007828D02*
X006343Y007828D01*
X006343Y007868D02*
X004651Y007868D01*
X004651Y007908D02*
X006343Y007908D01*
X006343Y007948D02*
X004651Y007948D01*
X004651Y007988D02*
X006343Y007988D01*
X006343Y008028D02*
X004651Y008028D01*
X004651Y008068D02*
X006343Y008068D01*
X006343Y008108D02*
X004651Y008108D01*
X004651Y008148D02*
X006343Y008148D01*
X006343Y008188D02*
X004651Y008188D01*
X006343Y008733D02*
X006343Y009205D01*
X006343Y008733D02*
X004651Y008733D01*
X004651Y009205D01*
X006343Y009205D01*
X006343Y008773D02*
X004651Y008773D01*
X004651Y008813D02*
X006343Y008813D01*
X006343Y008853D02*
X004651Y008853D01*
X004651Y008893D02*
X006343Y008893D01*
X006343Y008933D02*
X004651Y008933D01*
X004651Y008973D02*
X006343Y008973D01*
X006343Y009013D02*
X004651Y009013D01*
X004651Y009053D02*
X006343Y009053D01*
X006343Y009093D02*
X004651Y009093D01*
X004651Y009133D02*
X006343Y009133D01*
X006343Y009173D02*
X004651Y009173D01*
X005437Y009717D02*
X005437Y010189D01*
X005437Y009717D02*
X004651Y009717D01*
X004651Y010189D01*
X005437Y010189D01*
X005437Y009757D02*
X004651Y009757D01*
X004651Y009797D02*
X005437Y009797D01*
X005437Y009837D02*
X004651Y009837D01*
X004651Y009877D02*
X005437Y009877D01*
X005437Y009917D02*
X004651Y009917D01*
X004651Y009957D02*
X005437Y009957D01*
X005437Y009997D02*
X004651Y009997D01*
X004651Y010037D02*
X005437Y010037D01*
X005437Y010077D02*
X004651Y010077D01*
X004651Y010117D02*
X005437Y010117D01*
X005437Y010157D02*
X004651Y010157D01*
X006343Y004283D02*
X006343Y003811D01*
X004651Y003811D01*
X004651Y004283D01*
X006343Y004283D01*
X006343Y003851D02*
X004651Y003851D01*
X004651Y003891D02*
X006343Y003891D01*
X006343Y003931D02*
X004651Y003931D01*
X004651Y003971D02*
X006343Y003971D01*
X006343Y004011D02*
X004651Y004011D01*
X004651Y004051D02*
X006343Y004051D01*
X006343Y004091D02*
X004651Y004091D01*
X004651Y004131D02*
X006343Y004131D01*
X006343Y004171D02*
X004651Y004171D01*
X004651Y004211D02*
X006343Y004211D01*
X006343Y004251D02*
X004651Y004251D01*
X006343Y003299D02*
X006343Y002827D01*
X004651Y002827D01*
X004651Y003299D01*
X006343Y003299D01*
X006343Y002867D02*
X004651Y002867D01*
X004651Y002907D02*
X006343Y002907D01*
X006343Y002947D02*
X004651Y002947D01*
X004651Y002987D02*
X006343Y002987D01*
X006343Y003027D02*
X004651Y003027D01*
X004651Y003067D02*
X006343Y003067D01*
X006343Y003107D02*
X004651Y003107D01*
X004651Y003147D02*
X006343Y003147D01*
X006343Y003187D02*
X004651Y003187D01*
X004651Y003227D02*
X006343Y003227D01*
X006343Y003267D02*
X004651Y003267D01*
X006343Y002659D02*
X006343Y002187D01*
X004651Y002187D01*
X004651Y002659D01*
X006343Y002659D01*
X006343Y002227D02*
X004651Y002227D01*
X004651Y002267D02*
X006343Y002267D01*
X006343Y002307D02*
X004651Y002307D01*
X004651Y002347D02*
X006343Y002347D01*
X006343Y002387D02*
X004651Y002387D01*
X004651Y002427D02*
X006343Y002427D01*
X006343Y002467D02*
X004651Y002467D01*
X004651Y002507D02*
X006343Y002507D01*
X006343Y002547D02*
X004651Y002547D01*
X004651Y002587D02*
X006343Y002587D01*
X006343Y002627D02*
X004651Y002627D01*
D17*
X001963Y001467D02*
X001963Y000643D01*
X001099Y000643D01*
X001099Y001467D01*
X001963Y001467D01*
X001963Y000685D02*
X001099Y000685D01*
X001099Y000727D02*
X001963Y000727D01*
X001963Y000769D02*
X001099Y000769D01*
X001099Y000811D02*
X001963Y000811D01*
X001963Y000853D02*
X001099Y000853D01*
X001099Y000895D02*
X001963Y000895D01*
X001963Y000937D02*
X001099Y000937D01*
X001099Y000979D02*
X001963Y000979D01*
X001963Y001021D02*
X001099Y001021D01*
X001099Y001063D02*
X001963Y001063D01*
X001963Y001105D02*
X001099Y001105D01*
X001099Y001147D02*
X001963Y001147D01*
X001963Y001189D02*
X001099Y001189D01*
X001099Y001231D02*
X001963Y001231D01*
X001963Y001273D02*
X001099Y001273D01*
X001099Y001315D02*
X001963Y001315D01*
X001963Y001357D02*
X001099Y001357D01*
X001099Y001399D02*
X001963Y001399D01*
X001963Y001441D02*
X001099Y001441D01*
X003012Y001467D02*
X003012Y000643D01*
X002114Y000643D01*
X002114Y001467D01*
X003012Y001467D01*
X003012Y000685D02*
X002114Y000685D01*
X002114Y000727D02*
X003012Y000727D01*
X003012Y000769D02*
X002114Y000769D01*
X002114Y000811D02*
X003012Y000811D01*
X003012Y000853D02*
X002114Y000853D01*
X002114Y000895D02*
X003012Y000895D01*
X003012Y000937D02*
X002114Y000937D01*
X002114Y000979D02*
X003012Y000979D01*
X003012Y001021D02*
X002114Y001021D01*
X002114Y001063D02*
X003012Y001063D01*
X003012Y001105D02*
X002114Y001105D01*
X002114Y001147D02*
X003012Y001147D01*
X003012Y001189D02*
X002114Y001189D01*
X002114Y001231D02*
X003012Y001231D01*
X003012Y001273D02*
X002114Y001273D01*
X002114Y001315D02*
X003012Y001315D01*
X003012Y001357D02*
X002114Y001357D01*
X002114Y001399D02*
X003012Y001399D01*
X003012Y001441D02*
X002114Y001441D01*
D18*
X001864Y011095D02*
X001864Y012117D01*
X001864Y011095D02*
X000724Y011095D01*
X000724Y012117D01*
X001864Y012117D01*
X001864Y011137D02*
X000724Y011137D01*
X000724Y011179D02*
X001864Y011179D01*
X001864Y011221D02*
X000724Y011221D01*
X000724Y011263D02*
X001864Y011263D01*
X001864Y011305D02*
X000724Y011305D01*
X000724Y011347D02*
X001864Y011347D01*
X001864Y011389D02*
X000724Y011389D01*
X000724Y011431D02*
X001864Y011431D01*
X001864Y011473D02*
X000724Y011473D01*
X000724Y011515D02*
X001864Y011515D01*
X001864Y011557D02*
X000724Y011557D01*
X000724Y011599D02*
X001864Y011599D01*
X001864Y011641D02*
X000724Y011641D01*
X000724Y011683D02*
X001864Y011683D01*
X001864Y011725D02*
X000724Y011725D01*
X000724Y011767D02*
X001864Y011767D01*
X001864Y011809D02*
X000724Y011809D01*
X000724Y011851D02*
X001864Y011851D01*
X001864Y011893D02*
X000724Y011893D01*
X000724Y011935D02*
X001864Y011935D01*
X001864Y011977D02*
X000724Y011977D01*
X000724Y012019D02*
X001864Y012019D01*
X001864Y012061D02*
X000724Y012061D01*
X000724Y012103D02*
X001864Y012103D01*
D19*
X003401Y011095D03*
X003401Y001646D03*
D20*
X010623Y001230D02*
X010623Y000722D01*
X009879Y000722D01*
X009879Y001230D01*
X010623Y001230D01*
X010623Y000765D02*
X009879Y000765D01*
X009879Y000808D02*
X010623Y000808D01*
X010623Y000851D02*
X009879Y000851D01*
X009879Y000894D02*
X010623Y000894D01*
X010623Y000937D02*
X009879Y000937D01*
X009879Y000980D02*
X010623Y000980D01*
X010623Y001023D02*
X009879Y001023D01*
X009879Y001066D02*
X010623Y001066D01*
X010623Y001109D02*
X009879Y001109D01*
X009879Y001152D02*
X010623Y001152D01*
X010623Y001195D02*
X009879Y001195D01*
X010446Y011510D02*
X010446Y012018D01*
X010446Y011510D02*
X009702Y011510D01*
X009702Y012018D01*
X010446Y012018D01*
X010446Y011553D02*
X009702Y011553D01*
X009702Y011596D02*
X010446Y011596D01*
X010446Y011639D02*
X009702Y011639D01*
X009702Y011682D02*
X010446Y011682D01*
X010446Y011725D02*
X009702Y011725D01*
X009702Y011768D02*
X010446Y011768D01*
X010446Y011811D02*
X009702Y011811D01*
X009702Y011854D02*
X010446Y011854D01*
X010446Y011897D02*
X009702Y011897D01*
X009702Y011940D02*
X010446Y011940D01*
X010446Y011983D02*
X009702Y011983D01*
X012159Y012018D02*
X012159Y011510D01*
X011415Y011510D01*
X011415Y012018D01*
X012159Y012018D01*
X012159Y011553D02*
X011415Y011553D01*
X011415Y011596D02*
X012159Y011596D01*
X012159Y011639D02*
X011415Y011639D01*
X011415Y011682D02*
X012159Y011682D01*
X012159Y011725D02*
X011415Y011725D01*
X011415Y011768D02*
X012159Y011768D01*
X012159Y011811D02*
X011415Y011811D01*
X011415Y011854D02*
X012159Y011854D01*
X012159Y011897D02*
X011415Y011897D01*
X011415Y011940D02*
X012159Y011940D01*
X012159Y011983D02*
X011415Y011983D01*
D21*
X012722Y001921D02*
X012722Y001371D01*
X011954Y001371D01*
X011954Y001921D01*
X012722Y001921D01*
X012722Y001411D02*
X011954Y001411D01*
X011954Y001451D02*
X012722Y001451D01*
X012722Y001491D02*
X011954Y001491D01*
X011954Y001531D02*
X012722Y001531D01*
X012722Y001571D02*
X011954Y001571D01*
X011954Y001611D02*
X012722Y001611D01*
X012722Y001651D02*
X011954Y001651D01*
X011954Y001691D02*
X012722Y001691D01*
X012722Y001731D02*
X011954Y001731D01*
X011954Y001771D02*
X012722Y001771D01*
X012722Y001811D02*
X011954Y001811D01*
X011954Y001851D02*
X012722Y001851D01*
X012722Y001891D02*
X011954Y001891D01*
X012722Y001212D02*
X012722Y000662D01*
X011954Y000662D01*
X011954Y001212D01*
X012722Y001212D01*
X012722Y000702D02*
X011954Y000702D01*
X011954Y000742D02*
X012722Y000742D01*
X012722Y000782D02*
X011954Y000782D01*
X011954Y000822D02*
X012722Y000822D01*
X012722Y000862D02*
X011954Y000862D01*
X011954Y000902D02*
X012722Y000902D01*
X012722Y000942D02*
X011954Y000942D01*
X011954Y000982D02*
X012722Y000982D01*
X012722Y001022D02*
X011954Y001022D01*
X011954Y001062D02*
X012722Y001062D01*
X012722Y001102D02*
X011954Y001102D01*
X011954Y001142D02*
X012722Y001142D01*
X012722Y001182D02*
X011954Y001182D01*
D22*
X004283Y001216D02*
X004283Y000694D01*
X003343Y000694D01*
X003343Y001216D01*
X004283Y001216D01*
X004283Y000738D02*
X003343Y000738D01*
X003343Y000782D02*
X004283Y000782D01*
X004283Y000826D02*
X003343Y000826D01*
X003343Y000870D02*
X004283Y000870D01*
X004283Y000914D02*
X003343Y000914D01*
X003343Y000958D02*
X004283Y000958D01*
X004283Y001002D02*
X003343Y001002D01*
X003343Y001046D02*
X004283Y001046D01*
X004283Y001090D02*
X003343Y001090D01*
X003343Y001134D02*
X004283Y001134D01*
X004283Y001178D02*
X003343Y001178D01*
X004483Y011544D02*
X004483Y012066D01*
X004483Y011544D02*
X003543Y011544D01*
X003543Y012066D01*
X004483Y012066D01*
X004483Y011588D02*
X003543Y011588D01*
X003543Y011632D02*
X004483Y011632D01*
X004483Y011676D02*
X003543Y011676D01*
X003543Y011720D02*
X004483Y011720D01*
X004483Y011764D02*
X003543Y011764D01*
X003543Y011808D02*
X004483Y011808D01*
X004483Y011852D02*
X003543Y011852D01*
X003543Y011896D02*
X004483Y011896D01*
X004483Y011940D02*
X003543Y011940D01*
X003543Y011984D02*
X004483Y011984D01*
X004483Y012028D02*
X003543Y012028D01*
D23*
X020969Y030123D02*
X021303Y030123D01*
X020969Y030123D02*
X020969Y030399D01*
X021303Y030399D01*
X021303Y030123D01*
X021303Y030163D02*
X020969Y030163D01*
X020969Y030203D02*
X021303Y030203D01*
X021303Y030243D02*
X020969Y030243D01*
X020969Y030283D02*
X021303Y030283D01*
X021303Y030323D02*
X020969Y030323D01*
X020969Y030363D02*
X021303Y030363D01*
X021599Y030123D02*
X021933Y030123D01*
X021599Y030123D02*
X021599Y030399D01*
X021933Y030399D01*
X021933Y030123D01*
X021933Y030163D02*
X021599Y030163D01*
X021599Y030203D02*
X021933Y030203D01*
X021933Y030243D02*
X021599Y030243D01*
X021599Y030283D02*
X021933Y030283D01*
X021933Y030323D02*
X021599Y030323D01*
X021599Y030363D02*
X021933Y030363D01*
D24*
X009096Y017331D02*
X009096Y016871D01*
X009096Y017331D02*
X009726Y017331D01*
X009726Y016871D01*
X009096Y016871D01*
X009096Y016910D02*
X009726Y016910D01*
X009726Y016949D02*
X009096Y016949D01*
X009096Y016988D02*
X009726Y016988D01*
X009726Y017027D02*
X009096Y017027D01*
X009096Y017066D02*
X009726Y017066D01*
X009726Y017105D02*
X009096Y017105D01*
X009096Y017144D02*
X009726Y017144D01*
X009726Y017183D02*
X009096Y017183D01*
X009096Y017222D02*
X009726Y017222D01*
X009726Y017261D02*
X009096Y017261D01*
X009096Y017300D02*
X009726Y017300D01*
X009096Y016731D02*
X009096Y016271D01*
X009096Y016731D02*
X009726Y016731D01*
X009726Y016271D01*
X009096Y016271D01*
X009096Y016310D02*
X009726Y016310D01*
X009726Y016349D02*
X009096Y016349D01*
X009096Y016388D02*
X009726Y016388D01*
X009726Y016427D02*
X009096Y016427D01*
X009096Y016466D02*
X009726Y016466D01*
X009726Y016505D02*
X009096Y016505D01*
X009096Y016544D02*
X009726Y016544D01*
X009726Y016583D02*
X009096Y016583D01*
X009096Y016622D02*
X009726Y016622D01*
X009726Y016661D02*
X009096Y016661D01*
X009096Y016700D02*
X009726Y016700D01*
D25*
X009411Y016801D03*
D26*
X002601Y021601D03*
X017601Y031601D03*
X033601Y001601D03*
M02*
