%
M48
M72
T01C0.0276
T02C0.0354
T03C0.0394
T04C0.0400
T05C0.0551
T06C0.0591
T07C0.0630
T08C0.1260
%
T01
X851Y2101
X2351Y2101
X3601Y4101
X3831Y5941
X851Y6351
X1851Y9101
X791Y10611
X2381Y11971
X771Y14441
X851Y16351
X2831Y16661
X6051Y17601
X7711Y16591
X11371Y17331
X12521Y15381
X12651Y14661
X13291Y13541
X13501Y12511
X11791Y13311
X12301Y10401
X11461Y8771
X12581Y7201
X12051Y6551
X13141Y6051
X13051Y4891
X14151Y6641
X14151Y7721
X15361Y8211
X16451Y8401
X18351Y8901
X16651Y6001
X15361Y4981
X15351Y6051
X19131Y4601
X18851Y851
X23851Y851
X24741Y4631
X26471Y5611
X23251Y8901
X22451Y11801
X21841Y15141
X18411Y13011
X15361Y10451
X9851Y9401
X7441Y8771
X6791Y6401
X7351Y4851
X7101Y2351
X8851Y851
X9851Y2351
X9851Y5601
X13851Y851
X5101Y851
X7371Y11151
X14761Y19021
X15191Y21091
X14101Y21101
X13631Y22321
X12601Y21101
X12131Y22321
X12181Y23271
X10801Y24131
X10671Y22791
X9301Y23551
X8131Y23721
X7631Y22321
X8101Y21101
X9131Y22321
X9601Y21101
X11101Y21101
X14131Y23721
X15221Y23741
X15131Y22321
X12821Y24801
X13631Y25351
X13751Y26811
X13101Y28101
X13101Y29601
X14601Y29601
X15351Y30601
X15351Y32351
X11601Y29601
X11351Y30601
X10101Y29601
X10101Y28101
X10841Y27031
X10861Y25861
X12061Y26551
X11601Y28101
X9611Y26511
X8891Y25251
X8101Y26721
X6991Y27071
X7101Y28101
X7101Y29601
X5421Y30801
X6351Y32351
X8601Y29601
X8601Y28101
X5881Y26061
X6811Y25181
X6631Y23721
X6131Y22321
X6601Y21101
X5101Y21101
X4551Y22291
X5131Y23721
X4631Y25321
X1101Y25851
X851Y21351
X3901Y19951
X1101Y30851
X1101Y32101
X11351Y32351
X14601Y28101
X15331Y28101
X15251Y26811
X15131Y25351
X18631Y26551
X20411Y25801
X20831Y25321
X21971Y24551
X23131Y24701
X24471Y24831
X24571Y25351
X24921Y25921
X25431Y26371
X26071Y26361
X25801Y25541
X26206Y24901
X26851Y25311
X27711Y25871
X27401Y24411
X27571Y23271
X26621Y23251
X26221Y24031
X24001Y22471
X25051Y21441
X26691Y20381
X28991Y23731
X30901Y25236
X30031Y25721
X31411Y26261
X30901Y27451
X32821Y25261
X34241Y26851
X31351Y32351
X27081Y28901
X25361Y28741
X25361Y27861
X25351Y29891
X23351Y28631
X21991Y28811
X22151Y26541
X20411Y23871
X20551Y20741
X18521Y18791
X18091Y19391
X26971Y15601
X27591Y13591
X29701Y12101
X30591Y13161
X32751Y12001
X32591Y20101
X31941Y20401
X31031Y21481
X26351Y32351
X21351Y32351
X19351Y30201
X34851Y3351
X32751Y3001
X31351Y851
X28851Y851
T02
X15067Y2581
X13335Y2581
T03
X2381Y12771
X2381Y13771
X1381Y13771
X1381Y12771
T04
X3381Y12771
X3381Y13771
X8671Y13531
X8671Y14531
X8671Y15531
X9671Y15531
X9671Y14531
X9671Y13531
X17291Y21321
X17291Y22321
X17291Y23321
X17291Y24321
X17291Y25321
X17291Y26321
X17291Y27321
X17291Y28321
X17291Y29321
X22471Y30941
X23471Y30941
X24471Y30941
X25471Y30941
X26471Y30941
X27471Y30941
X28471Y30941
X29471Y30941
X30471Y30941
X31471Y30941
X32471Y30941
X32471Y16941
X31471Y16941
X30471Y16941
X29471Y16941
X28471Y16941
X27471Y16941
X26471Y16941
X25471Y16941
X24471Y16941
X23471Y16941
X22471Y16941
X5291Y27321
X5291Y28321
X5291Y29321
T05
X3401Y11095
X3401Y1646
T06
X8111Y7000
T07
X6081Y13391
X17411Y2771
X27591Y8191
X27811Y11341
X28081Y4291
X19131Y21291
X21341Y26801
X3495Y27297
X2491Y28301
X1487Y29305
X3495Y29305
X1487Y27297
T08
X2601Y21601
X17601Y31601
X33601Y1601
M30
