G75*
G70*
%OFA0B0*%
%FSLAX24Y24*%
%IPPOS*%
%LPD*%
%AMOC8*
5,1,8,0,0,1.08239X$1,22.5*
%
%ADD10R,0.0631X0.0237*%
%ADD11R,0.0237X0.0631*%
%ADD12R,0.0434X0.0217*%
%ADD13R,0.0217X0.0434*%
%ADD14R,0.0237X0.1024*%
%ADD15R,0.0827X0.1024*%
%ADD16C,0.0394*%
%ADD17R,0.0473X0.0434*%
%ADD18R,0.0800X0.2140*%
%ADD19R,0.0434X0.0473*%
%ADD20R,0.2140X0.0800*%
%ADD21R,0.0512X0.0512*%
%ADD22C,0.0434*%
%ADD23R,0.1064X0.0670*%
%ADD24R,0.0670X0.1064*%
%ADD25R,0.0985X0.0985*%
%ADD26C,0.0640*%
%ADD27C,0.0985*%
%ADD28R,0.0316X0.0375*%
%ADD29C,0.0591*%
%ADD30R,0.0827X0.0631*%
%ADD31R,0.0827X0.1536*%
%ADD32R,0.0500X0.0670*%
%ADD33R,0.0060X0.0720*%
%ADD34C,0.1700*%
D10*
X023777Y023286D03*
X023777Y023601D03*
X023777Y023916D03*
X023777Y024231D03*
X023777Y024546D03*
X023777Y024861D03*
X023777Y025176D03*
X023777Y025491D03*
X023777Y025806D03*
X023777Y026121D03*
X023777Y026436D03*
X028344Y026436D03*
X028344Y026121D03*
X028344Y025806D03*
X028344Y025491D03*
X028344Y025176D03*
X028344Y024861D03*
X028344Y024546D03*
X028344Y024231D03*
X028344Y023916D03*
X028344Y023601D03*
X028344Y023286D03*
D11*
X027636Y022577D03*
X027321Y022577D03*
X027006Y022577D03*
X026691Y022577D03*
X026376Y022577D03*
X026061Y022577D03*
X025746Y022577D03*
X025431Y022577D03*
X025116Y022577D03*
X024801Y022577D03*
X024486Y022577D03*
X024486Y027144D03*
X024801Y027144D03*
X025116Y027144D03*
X025431Y027144D03*
X025746Y027144D03*
X026061Y027144D03*
X026376Y027144D03*
X026691Y027144D03*
X027006Y027144D03*
X027321Y027144D03*
X027636Y027144D03*
D12*
X015895Y013693D03*
X015895Y013378D03*
X015895Y013063D03*
X015895Y012748D03*
X015895Y012433D03*
X015895Y012118D03*
X015895Y011803D03*
X015895Y011488D03*
X012627Y011488D03*
X012627Y011803D03*
X012627Y012118D03*
X012627Y012433D03*
X012627Y012748D03*
X012627Y013063D03*
X012627Y013378D03*
X012627Y013693D03*
D13*
X013158Y014225D03*
X013473Y014225D03*
X013788Y014225D03*
X014103Y014225D03*
X014418Y014225D03*
X014733Y014225D03*
X015048Y014225D03*
X015363Y014225D03*
X015363Y010957D03*
X015048Y010957D03*
X014733Y010957D03*
X014418Y010957D03*
X014103Y010957D03*
X013788Y010957D03*
X013473Y010957D03*
X013158Y010957D03*
D14*
X013571Y003565D03*
X013886Y003565D03*
X014201Y003565D03*
X014516Y003565D03*
X014831Y003565D03*
D15*
X015972Y003565D03*
X015972Y001400D03*
X012429Y001400D03*
X012429Y003565D03*
D16*
X013335Y002581D03*
X015067Y002581D03*
D17*
X014731Y004546D03*
X014731Y005215D03*
X013651Y005215D03*
X013651Y004546D03*
X013925Y009861D03*
X013256Y009861D03*
X015146Y009851D03*
X015815Y009851D03*
X014111Y015176D03*
X014111Y015845D03*
X014111Y016546D03*
X014111Y017215D03*
X022101Y020936D03*
X022101Y021605D03*
X022911Y021605D03*
X022911Y020936D03*
X023721Y020936D03*
X023721Y021605D03*
X024531Y021605D03*
X024531Y020936D03*
X027691Y020936D03*
X027691Y021605D03*
X029301Y021605D03*
X029301Y020936D03*
X031971Y019425D03*
X031971Y018756D03*
X033061Y018756D03*
X033061Y019425D03*
X029035Y027451D03*
X028366Y027451D03*
X026535Y028381D03*
X025866Y028381D03*
X025866Y029201D03*
X026535Y029201D03*
X023801Y027805D03*
X023801Y027136D03*
X022781Y029146D03*
X022781Y029815D03*
X019571Y027755D03*
X019571Y027086D03*
X018751Y027086D03*
X018751Y027755D03*
X024891Y008325D03*
X024891Y007656D03*
D18*
X019281Y008131D03*
X019281Y011931D03*
D19*
X017325Y013601D03*
X016656Y013601D03*
X016991Y012905D03*
X016991Y012236D03*
X016961Y011455D03*
X016961Y010786D03*
X016961Y010055D03*
X016961Y009386D03*
X016111Y005215D03*
X016111Y004546D03*
X011525Y010791D03*
X010856Y010791D03*
X010856Y011621D03*
X011525Y011621D03*
X011525Y012441D03*
X010856Y012441D03*
X008655Y012401D03*
X007986Y012401D03*
X008066Y009431D03*
X008735Y009431D03*
X011296Y015231D03*
X011965Y015231D03*
X016656Y014411D03*
X017325Y014411D03*
X022541Y023776D03*
X022541Y024445D03*
X026871Y021605D03*
X026871Y020936D03*
X029036Y022951D03*
X029705Y022951D03*
X029556Y023761D03*
X030225Y023761D03*
X029985Y024571D03*
X029316Y024571D03*
X029461Y025236D03*
X029461Y025905D03*
X018731Y028656D03*
X018731Y029325D03*
X004051Y019305D03*
X004051Y018636D03*
X004051Y017875D03*
X004051Y017206D03*
D20*
X028631Y029051D03*
X032431Y029051D03*
D21*
X027691Y020144D03*
X027691Y019317D03*
X023101Y027157D03*
X022301Y027167D03*
X022301Y027994D03*
X023101Y027984D03*
X010164Y012431D03*
X010164Y011611D03*
X010164Y010791D03*
X009337Y010791D03*
X009337Y011611D03*
X009337Y012431D03*
X024891Y009794D03*
X024891Y008967D03*
D22*
X025711Y012591D03*
X026311Y012591D03*
X026311Y013231D03*
X017561Y015401D03*
X016901Y015401D03*
X016261Y015391D03*
X015641Y015391D03*
X012631Y016631D03*
X011881Y016631D03*
X011131Y016631D03*
X010381Y016631D03*
D23*
X004819Y015961D03*
X003402Y015961D03*
X019702Y031471D03*
X021119Y031471D03*
D24*
X020321Y029789D03*
X020321Y028372D03*
X024671Y028302D03*
X024671Y029719D03*
X008821Y019699D03*
X008821Y018282D03*
X017451Y005569D03*
X017451Y004152D03*
X026521Y008262D03*
X026521Y009679D03*
D25*
X004831Y012765D03*
X004831Y014497D03*
D26*
X003681Y013771D02*
X003081Y013771D01*
X003081Y012771D02*
X003681Y012771D01*
X008071Y013531D02*
X008671Y013531D01*
X008671Y014531D02*
X008071Y014531D01*
X008071Y015531D02*
X008671Y015531D01*
X009671Y015531D02*
X010271Y015531D01*
X010271Y014531D02*
X009671Y014531D01*
X009671Y013531D02*
X010271Y013531D01*
X016991Y021321D02*
X017591Y021321D01*
X017591Y022321D02*
X016991Y022321D01*
X016991Y023321D02*
X017591Y023321D01*
X017591Y024321D02*
X016991Y024321D01*
X016991Y025321D02*
X017591Y025321D01*
X017591Y026321D02*
X016991Y026321D01*
X016991Y027321D02*
X017591Y027321D01*
X017591Y028321D02*
X016991Y028321D01*
X016991Y029321D02*
X017591Y029321D01*
X022471Y030641D02*
X022471Y031241D01*
X023471Y031241D02*
X023471Y030641D01*
X024471Y030641D02*
X024471Y031241D01*
X025471Y031241D02*
X025471Y030641D01*
X026471Y030641D02*
X026471Y031241D01*
X027471Y031241D02*
X027471Y030641D01*
X028471Y030641D02*
X028471Y031241D01*
X029471Y031241D02*
X029471Y030641D01*
X030471Y030641D02*
X030471Y031241D01*
X031471Y031241D02*
X031471Y030641D01*
X032471Y030641D02*
X032471Y031241D01*
X032471Y017241D02*
X032471Y016641D01*
X031471Y016641D02*
X031471Y017241D01*
X030471Y017241D02*
X030471Y016641D01*
X029471Y016641D02*
X029471Y017241D01*
X028471Y017241D02*
X028471Y016641D01*
X027471Y016641D02*
X027471Y017241D01*
X026471Y017241D02*
X026471Y016641D01*
X025471Y016641D02*
X025471Y017241D01*
X024471Y017241D02*
X024471Y016641D01*
X023471Y016641D02*
X023471Y017241D01*
X022471Y017241D02*
X022471Y016641D01*
X005591Y027321D02*
X004991Y027321D01*
X004991Y028321D02*
X005591Y028321D01*
X005591Y029321D02*
X004991Y029321D01*
D27*
X003495Y029305D03*
X002491Y028301D03*
X001487Y029305D03*
X001487Y027297D03*
X003495Y027297D03*
D28*
X020321Y027435D03*
X020321Y026805D03*
X023391Y029145D03*
X023391Y029775D03*
X027751Y007366D03*
X027751Y006736D03*
X012421Y005205D03*
X012421Y004575D03*
D29*
X003401Y001646D03*
X003401Y011095D03*
D30*
X004901Y017465D03*
X004901Y018371D03*
X004901Y019276D03*
D31*
X007381Y018371D03*
D32*
X007621Y010441D03*
X007021Y010441D03*
X008451Y004981D03*
X009051Y004981D03*
X015941Y007211D03*
X016541Y007211D03*
X025711Y011741D03*
X026311Y011741D03*
D33*
X026011Y011741D03*
X016241Y007211D03*
X008751Y004981D03*
X007321Y010441D03*
D34*
X002601Y021601D03*
X017601Y031601D03*
X033601Y001601D03*
M02*
